G04 #@! TF.GenerationSoftware,KiCad,Pcbnew,(5.0.0-rc2-dev)*
G04 #@! TF.CreationDate,2018-03-07T22:42:49-08:00*
G04 #@! TF.ProjectId,makerlabs-acm-reader-lock_v1.0.0,6D616B65726C6162732D61636D2D7265,rev?*
G04 #@! TF.SameCoordinates,Original*
G04 #@! TF.FileFunction,Legend,Top*
G04 #@! TF.FilePolarity,Positive*
%FSLAX46Y46*%
G04 Gerber Fmt 4.6, Leading zero omitted, Abs format (unit mm)*
G04 Created by KiCad (PCBNEW (5.0.0-rc2-dev)) date Wednesday, March 07, 2018 at 10:42:49 PM*
%MOMM*%
%LPD*%
G01*
G04 APERTURE LIST*
%ADD10C,0.150000*%
%ADD11C,0.120000*%
%ADD12C,0.300000*%
G04 APERTURE END LIST*
D10*
X196000000Y-62452380D02*
X196000000Y-61452380D01*
X196000000Y-61928571D02*
X196571428Y-61928571D01*
X196571428Y-62452380D02*
X196571428Y-61452380D01*
X197047619Y-62452380D02*
X197047619Y-61785714D01*
X197047619Y-61452380D02*
X197000000Y-61500000D01*
X197047619Y-61547619D01*
X197095238Y-61500000D01*
X197047619Y-61452380D01*
X197047619Y-61547619D01*
X198571428Y-62833333D02*
X198523809Y-62785714D01*
X198428571Y-62642857D01*
X198380952Y-62547619D01*
X198333333Y-62404761D01*
X198285714Y-62166666D01*
X198285714Y-61976190D01*
X198333333Y-61738095D01*
X198380952Y-61595238D01*
X198428571Y-61500000D01*
X198523809Y-61357142D01*
X198571428Y-61309523D01*
X199142857Y-61976190D02*
X199142857Y-62452380D01*
X198809523Y-61452380D02*
X199142857Y-61976190D01*
X199476190Y-61452380D01*
X199714285Y-62833333D02*
X199761904Y-62785714D01*
X199857142Y-62642857D01*
X199904761Y-62547619D01*
X199952380Y-62404761D01*
X200000000Y-62166666D01*
X200000000Y-61976190D01*
X199952380Y-61738095D01*
X199904761Y-61595238D01*
X199857142Y-61500000D01*
X199761904Y-61357142D01*
X199714285Y-61309523D01*
X193857142Y-62452380D02*
X193380952Y-62452380D01*
X193380952Y-61452380D01*
X194333333Y-62452380D02*
X194238095Y-62404761D01*
X194190476Y-62357142D01*
X194142857Y-62261904D01*
X194142857Y-61976190D01*
X194190476Y-61880952D01*
X194238095Y-61833333D01*
X194333333Y-61785714D01*
X194476190Y-61785714D01*
X194571428Y-61833333D01*
X194619047Y-61880952D01*
X194666666Y-61976190D01*
X194666666Y-62261904D01*
X194619047Y-62357142D01*
X194571428Y-62404761D01*
X194476190Y-62452380D01*
X194333333Y-62452380D01*
X189476190Y-62452380D02*
X189476190Y-61452380D01*
X189476190Y-61928571D02*
X190047619Y-61928571D01*
X190047619Y-62452380D02*
X190047619Y-61452380D01*
X190523809Y-62452380D02*
X190523809Y-61785714D01*
X190523809Y-61452380D02*
X190476190Y-61500000D01*
X190523809Y-61547619D01*
X190571428Y-61500000D01*
X190523809Y-61452380D01*
X190523809Y-61547619D01*
X184142857Y-62833333D02*
X184095238Y-62785714D01*
X184000000Y-62642857D01*
X183952380Y-62547619D01*
X183904761Y-62404761D01*
X183857142Y-62166666D01*
X183857142Y-61976190D01*
X183904761Y-61738095D01*
X183952380Y-61595238D01*
X184000000Y-61500000D01*
X184095238Y-61357142D01*
X184142857Y-61309523D01*
X184428571Y-61452380D02*
X185095238Y-62452380D01*
X185095238Y-61452380D02*
X184428571Y-62452380D01*
X185380952Y-62833333D02*
X185428571Y-62785714D01*
X185523809Y-62642857D01*
X185571428Y-62547619D01*
X185619047Y-62404761D01*
X185666666Y-62166666D01*
X185666666Y-61976190D01*
X185619047Y-61738095D01*
X185571428Y-61595238D01*
X185523809Y-61500000D01*
X185428571Y-61357142D01*
X185380952Y-61309523D01*
X187380952Y-62452380D02*
X186904761Y-62452380D01*
X186904761Y-61452380D01*
X187857142Y-62452380D02*
X187761904Y-62404761D01*
X187714285Y-62357142D01*
X187666666Y-62261904D01*
X187666666Y-61976190D01*
X187714285Y-61880952D01*
X187761904Y-61833333D01*
X187857142Y-61785714D01*
X188000000Y-61785714D01*
X188095238Y-61833333D01*
X188142857Y-61880952D01*
X188190476Y-61976190D01*
X188190476Y-62261904D01*
X188142857Y-62357142D01*
X188095238Y-62404761D01*
X188000000Y-62452380D01*
X187857142Y-62452380D01*
X172476190Y-62452380D02*
X172476190Y-61452380D01*
X172476190Y-61928571D02*
X173047619Y-61928571D01*
X173047619Y-62452380D02*
X173047619Y-61452380D01*
X173523809Y-62452380D02*
X173523809Y-61785714D01*
X173523809Y-61452380D02*
X173476190Y-61500000D01*
X173523809Y-61547619D01*
X173571428Y-61500000D01*
X173523809Y-61452380D01*
X173523809Y-61547619D01*
X168857142Y-62452380D02*
X168380952Y-62452380D01*
X168380952Y-61452380D01*
X169333333Y-62452380D02*
X169238095Y-62404761D01*
X169190476Y-62357142D01*
X169142857Y-62261904D01*
X169142857Y-61976190D01*
X169190476Y-61880952D01*
X169238095Y-61833333D01*
X169333333Y-61785714D01*
X169476190Y-61785714D01*
X169571428Y-61833333D01*
X169619047Y-61880952D01*
X169666666Y-61976190D01*
X169666666Y-62261904D01*
X169619047Y-62357142D01*
X169571428Y-62404761D01*
X169476190Y-62452380D01*
X169333333Y-62452380D01*
X151309523Y-61500000D02*
X151214285Y-61452380D01*
X151071428Y-61452380D01*
X150928571Y-61500000D01*
X150833333Y-61595238D01*
X150785714Y-61690476D01*
X150738095Y-61880952D01*
X150738095Y-62023809D01*
X150785714Y-62214285D01*
X150833333Y-62309523D01*
X150928571Y-62404761D01*
X151071428Y-62452380D01*
X151166666Y-62452380D01*
X151309523Y-62404761D01*
X151357142Y-62357142D01*
X151357142Y-62023809D01*
X151166666Y-62023809D01*
X151785714Y-62452380D02*
X151785714Y-61452380D01*
X152357142Y-62452380D01*
X152357142Y-61452380D01*
X152833333Y-62452380D02*
X152833333Y-61452380D01*
X153071428Y-61452380D01*
X153214285Y-61500000D01*
X153309523Y-61595238D01*
X153357142Y-61690476D01*
X153404761Y-61880952D01*
X153404761Y-62023809D01*
X153357142Y-62214285D01*
X153309523Y-62309523D01*
X153214285Y-62404761D01*
X153071428Y-62452380D01*
X152833333Y-62452380D01*
X154880952Y-62833333D02*
X154833333Y-62785714D01*
X154738095Y-62642857D01*
X154690476Y-62547619D01*
X154642857Y-62404761D01*
X154595238Y-62166666D01*
X154595238Y-61976190D01*
X154642857Y-61738095D01*
X154690476Y-61595238D01*
X154738095Y-61500000D01*
X154833333Y-61357142D01*
X154880952Y-61309523D01*
X155166666Y-62452380D02*
X155690476Y-61785714D01*
X155166666Y-61785714D02*
X155690476Y-62452380D01*
X156023809Y-61547619D02*
X156071428Y-61500000D01*
X156166666Y-61452380D01*
X156404761Y-61452380D01*
X156500000Y-61500000D01*
X156547619Y-61547619D01*
X156595238Y-61642857D01*
X156595238Y-61738095D01*
X156547619Y-61880952D01*
X155976190Y-62452380D01*
X156595238Y-62452380D01*
X156928571Y-62833333D02*
X156976190Y-62785714D01*
X157071428Y-62642857D01*
X157119047Y-62547619D01*
X157166666Y-62404761D01*
X157214285Y-62166666D01*
X157214285Y-61976190D01*
X157166666Y-61738095D01*
X157119047Y-61595238D01*
X157071428Y-61500000D01*
X156976190Y-61357142D01*
X156928571Y-61309523D01*
X146523809Y-61452380D02*
X147142857Y-61452380D01*
X146809523Y-61833333D01*
X146952380Y-61833333D01*
X147047619Y-61880952D01*
X147095238Y-61928571D01*
X147142857Y-62023809D01*
X147142857Y-62261904D01*
X147095238Y-62357142D01*
X147047619Y-62404761D01*
X146952380Y-62452380D01*
X146666666Y-62452380D01*
X146571428Y-62404761D01*
X146523809Y-62357142D01*
X147571428Y-62357142D02*
X147619047Y-62404761D01*
X147571428Y-62452380D01*
X147523809Y-62404761D01*
X147571428Y-62357142D01*
X147571428Y-62452380D01*
X147952380Y-61452380D02*
X148571428Y-61452380D01*
X148238095Y-61833333D01*
X148380952Y-61833333D01*
X148476190Y-61880952D01*
X148523809Y-61928571D01*
X148571428Y-62023809D01*
X148571428Y-62261904D01*
X148523809Y-62357142D01*
X148476190Y-62404761D01*
X148380952Y-62452380D01*
X148095238Y-62452380D01*
X148000000Y-62404761D01*
X147952380Y-62357142D01*
X148857142Y-61452380D02*
X149190476Y-62452380D01*
X149523809Y-61452380D01*
D11*
X163100000Y-102500000D02*
X163800000Y-102500000D01*
X163800000Y-103700000D02*
X163100000Y-103700000D01*
X163100000Y-82300000D02*
X163800000Y-82300000D01*
X163800000Y-83500000D02*
X163100000Y-83500000D01*
X163850000Y-96100000D02*
X163150000Y-96100000D01*
X163150000Y-94900000D02*
X163850000Y-94900000D01*
X161600000Y-106320000D02*
X163600000Y-106320000D01*
X163600000Y-104280000D02*
X161600000Y-104280000D01*
X161600000Y-81720000D02*
X163600000Y-81720000D01*
X163600000Y-79680000D02*
X161600000Y-79680000D01*
X170120000Y-100650000D02*
X168880000Y-100650000D01*
X170120000Y-105350000D02*
X168880000Y-105350000D01*
X167550000Y-105350000D02*
X167200000Y-105350000D01*
X167200000Y-105350000D02*
X167200000Y-100650000D01*
X167200000Y-100650000D02*
X167550000Y-100650000D01*
X167550000Y-105350000D02*
X167550000Y-106600000D01*
X171450000Y-105350000D02*
X171800000Y-105350000D01*
X171800000Y-105350000D02*
X171800000Y-100650000D01*
X171800000Y-100650000D02*
X171450000Y-100650000D01*
D10*
X172025000Y-91125000D02*
X172025000Y-89725000D01*
X166925000Y-91125000D02*
X166925000Y-95275000D01*
X172075000Y-91125000D02*
X172075000Y-95275000D01*
X166925000Y-91125000D02*
X167070000Y-91125000D01*
X166925000Y-95275000D02*
X167070000Y-95275000D01*
X172075000Y-95275000D02*
X171930000Y-95275000D01*
X172075000Y-91125000D02*
X172025000Y-91125000D01*
X166925000Y-85375000D02*
X166975000Y-85375000D01*
X166925000Y-81225000D02*
X167070000Y-81225000D01*
X172075000Y-81225000D02*
X171930000Y-81225000D01*
X172075000Y-85375000D02*
X171930000Y-85375000D01*
X166925000Y-85375000D02*
X166925000Y-81225000D01*
X172075000Y-85375000D02*
X172075000Y-81225000D01*
X166975000Y-85375000D02*
X166975000Y-86775000D01*
D11*
X150300000Y-83450000D02*
X150300000Y-82250000D01*
X150300000Y-85950000D02*
X150300000Y-85050000D01*
X150300000Y-88450000D02*
X150300000Y-87550000D01*
X150300000Y-90950000D02*
X150300000Y-90050000D01*
X150300000Y-93450000D02*
X150300000Y-92550000D01*
X150300000Y-95950000D02*
X150300000Y-95050000D01*
X150300000Y-98450000D02*
X150300000Y-97550000D01*
X150300000Y-100950000D02*
X150300000Y-100050000D01*
X150300000Y-103750000D02*
X150300000Y-102550000D01*
X155900000Y-82250000D02*
X155900000Y-103750000D01*
X168950000Y-58700000D02*
X167750000Y-58700000D01*
X171450000Y-58700000D02*
X170550000Y-58700000D01*
X175250000Y-58700000D02*
X173050000Y-58700000D01*
X167750000Y-53100000D02*
X174250000Y-53100000D01*
X186250000Y-53100000D02*
X197750000Y-53100000D01*
X197750000Y-58700000D02*
X196550000Y-58700000D01*
X194950000Y-58700000D02*
X194050000Y-58700000D01*
X192450000Y-58700000D02*
X191550000Y-58700000D01*
X192450000Y-58700000D02*
X191550000Y-58700000D01*
X189950000Y-58700000D02*
X189050000Y-58700000D01*
X189950000Y-58700000D02*
X189050000Y-58700000D01*
X187450000Y-58700000D02*
X186250000Y-58700000D01*
D12*
X119500000Y-103000000D02*
X120000000Y-107000000D01*
X118500000Y-103000000D02*
X119500000Y-111500000D01*
X117500000Y-103000000D02*
X118500000Y-111500000D01*
X116500000Y-103000000D02*
X117500000Y-111500000D01*
X115500000Y-103000000D02*
X116500000Y-111500000D01*
X114500000Y-103000000D02*
X115500000Y-111500000D01*
X113500000Y-103000000D02*
X114500000Y-111500000D01*
X112500000Y-103000000D02*
X113500000Y-111500000D01*
D10*
G36*
X184000000Y-89500000D02*
X184000000Y-82000000D01*
X191500000Y-82000000D01*
X191500000Y-89500000D01*
X184000000Y-89500000D01*
G37*
X184000000Y-89500000D02*
X184000000Y-82000000D01*
X191500000Y-82000000D01*
X191500000Y-89500000D01*
X184000000Y-89500000D01*
D12*
X191500000Y-82000000D02*
X191500000Y-89500000D01*
X184000000Y-82000000D02*
X191500000Y-82000000D01*
X184000000Y-89500000D02*
X184000000Y-82000000D01*
X191500000Y-89500000D02*
X184000000Y-89500000D01*
X120000000Y-103000000D02*
X112500000Y-103000000D01*
X120000000Y-111500000D02*
X120000000Y-103000000D01*
X112500000Y-111500000D02*
X120000000Y-111500000D01*
X204500000Y-103500000D02*
X204500000Y-111500000D01*
X207500000Y-103500000D02*
X204500000Y-103500000D01*
X207500000Y-111500000D02*
X207500000Y-103500000D01*
X204500000Y-111500000D02*
X207500000Y-111500000D01*
X207500000Y-82500000D02*
X207500000Y-74500000D01*
X204500000Y-82500000D02*
X207500000Y-82500000D01*
X204500000Y-74500000D02*
X204500000Y-82500000D01*
X207500000Y-74500000D02*
X204500000Y-74500000D01*
X204500000Y-72000000D02*
X204500000Y-114000000D01*
X207500000Y-72000000D02*
X204500000Y-72000000D01*
X207500000Y-114000000D02*
X207500000Y-72000000D01*
X204500000Y-114000000D02*
X207500000Y-114000000D01*
X177500000Y-91000000D02*
X177500000Y-95000000D01*
X194000000Y-91000000D02*
X177500000Y-91000000D01*
X194000000Y-95000000D02*
X194000000Y-91000000D01*
X177500000Y-95000000D02*
X194000000Y-95000000D01*
X126000000Y-95000000D02*
X142500000Y-95000000D01*
X126000000Y-91000000D02*
X126000000Y-95000000D01*
X142500000Y-91000000D02*
X126000000Y-91000000D01*
X142500000Y-95000000D02*
X142500000Y-91000000D01*
X175000000Y-108000000D02*
X145000000Y-108000000D01*
X175000000Y-78000000D02*
X175000000Y-108000000D01*
X145000000Y-78000000D02*
X175000000Y-78000000D01*
X145000000Y-108000000D02*
X145000000Y-78000000D01*
X112500000Y-72000000D02*
X112500000Y-114000000D01*
X207500000Y-72000000D02*
X112500000Y-72000000D01*
X207500000Y-114000000D02*
X207500000Y-72000000D01*
X112500000Y-114000000D02*
X207500000Y-114000000D01*
D11*
X130450000Y-123100000D02*
X130450000Y-120400000D01*
X130450000Y-120400000D02*
X176310000Y-120420000D01*
X130450000Y-123100000D02*
X176310000Y-123080000D01*
X176310000Y-123080000D02*
X176310000Y-120420000D01*
X176310000Y-145580000D02*
X176310000Y-142920000D01*
X133070000Y-145580000D02*
X176310000Y-145580000D01*
X133070000Y-142920000D02*
X176310000Y-142920000D01*
X133070000Y-145580000D02*
X133070000Y-142920000D01*
X131800000Y-145580000D02*
X130470000Y-145580000D01*
X130470000Y-145580000D02*
X130470000Y-144250000D01*
D12*
X176500000Y-142000000D02*
X176500000Y-123000000D01*
X175800000Y-123000000D02*
X142300000Y-123000000D01*
X143000000Y-123000000D02*
X143000000Y-142000000D01*
X143000000Y-142000000D02*
X176500000Y-142000000D01*
X173000000Y-137500000D02*
X146500000Y-137500000D01*
X146500000Y-137500000D02*
X146500000Y-123000000D01*
X145800000Y-123000000D02*
X172300000Y-123000000D01*
X173000000Y-123000000D02*
X173000000Y-137500000D01*
X128600000Y-136500000D02*
X133600000Y-136500000D01*
X133600000Y-136500000D02*
X133600000Y-129500000D01*
X133600000Y-129500000D02*
X128600000Y-129500000D01*
X128600000Y-129500000D02*
X128600000Y-136500000D01*
D11*
X130990000Y-68740000D02*
X129250000Y-68740000D01*
X130990000Y-67000000D02*
X130990000Y-68740000D01*
X125200000Y-63100000D02*
X125200000Y-60650000D01*
X125600000Y-63100000D02*
X125200000Y-63100000D01*
X125600000Y-65100000D02*
X125600000Y-63100000D01*
X127200000Y-65100000D02*
X125600000Y-65100000D01*
X134000000Y-65100000D02*
X131000000Y-65100000D01*
X134000000Y-63100000D02*
X134000000Y-65100000D01*
X134400000Y-63100000D02*
X134000000Y-63100000D01*
X134400000Y-60650000D02*
X134400000Y-63100000D01*
X134400000Y-50400000D02*
X134400000Y-53950000D01*
X125200000Y-50400000D02*
X134400000Y-50400000D01*
X125200000Y-53950000D02*
X125200000Y-50400000D01*
X163000000Y-99820000D02*
X164000000Y-99820000D01*
X164000000Y-101180000D02*
X163000000Y-101180000D01*
X163000000Y-97320000D02*
X164000000Y-97320000D01*
X164000000Y-98680000D02*
X163000000Y-98680000D01*
X163000000Y-84820000D02*
X164000000Y-84820000D01*
X164000000Y-86180000D02*
X163000000Y-86180000D01*
X163000000Y-89820000D02*
X164000000Y-89820000D01*
X164000000Y-91180000D02*
X163000000Y-91180000D01*
X164000000Y-88680000D02*
X163000000Y-88680000D01*
X163000000Y-87320000D02*
X164000000Y-87320000D01*
X164000000Y-93680000D02*
X163000000Y-93680000D01*
X163000000Y-92320000D02*
X164000000Y-92320000D01*
X146700000Y-53200000D02*
X155700000Y-53200000D01*
X155700000Y-58800000D02*
X154500000Y-58800000D01*
X152900000Y-58800000D02*
X152000000Y-58800000D01*
X150400000Y-58800000D02*
X149500000Y-58800000D01*
X147900000Y-58800000D02*
X146700000Y-58800000D01*
D10*
X158833333Y-103357142D02*
X158785714Y-103404761D01*
X158642857Y-103452380D01*
X158547619Y-103452380D01*
X158404761Y-103404761D01*
X158309523Y-103309523D01*
X158261904Y-103214285D01*
X158214285Y-103023809D01*
X158214285Y-102880952D01*
X158261904Y-102690476D01*
X158309523Y-102595238D01*
X158404761Y-102500000D01*
X158547619Y-102452380D01*
X158642857Y-102452380D01*
X158785714Y-102500000D01*
X158833333Y-102547619D01*
X159785714Y-103452380D02*
X159214285Y-103452380D01*
X159500000Y-103452380D02*
X159500000Y-102452380D01*
X159404761Y-102595238D01*
X159309523Y-102690476D01*
X159214285Y-102738095D01*
X158833333Y-83357142D02*
X158785714Y-83404761D01*
X158642857Y-83452380D01*
X158547619Y-83452380D01*
X158404761Y-83404761D01*
X158309523Y-83309523D01*
X158261904Y-83214285D01*
X158214285Y-83023809D01*
X158214285Y-82880952D01*
X158261904Y-82690476D01*
X158309523Y-82595238D01*
X158404761Y-82500000D01*
X158547619Y-82452380D01*
X158642857Y-82452380D01*
X158785714Y-82500000D01*
X158833333Y-82547619D01*
X159690476Y-82785714D02*
X159690476Y-83452380D01*
X159452380Y-82404761D02*
X159214285Y-83119047D01*
X159833333Y-83119047D01*
X158833333Y-95857142D02*
X158785714Y-95904761D01*
X158642857Y-95952380D01*
X158547619Y-95952380D01*
X158404761Y-95904761D01*
X158309523Y-95809523D01*
X158261904Y-95714285D01*
X158214285Y-95523809D01*
X158214285Y-95380952D01*
X158261904Y-95190476D01*
X158309523Y-95095238D01*
X158404761Y-95000000D01*
X158547619Y-94952380D01*
X158642857Y-94952380D01*
X158785714Y-95000000D01*
X158833333Y-95047619D01*
X159738095Y-94952380D02*
X159261904Y-94952380D01*
X159214285Y-95428571D01*
X159261904Y-95380952D01*
X159357142Y-95333333D01*
X159595238Y-95333333D01*
X159690476Y-95380952D01*
X159738095Y-95428571D01*
X159785714Y-95523809D01*
X159785714Y-95761904D01*
X159738095Y-95857142D01*
X159690476Y-95904761D01*
X159595238Y-95952380D01*
X159357142Y-95952380D01*
X159261904Y-95904761D01*
X159214285Y-95857142D01*
X158833333Y-105857142D02*
X158785714Y-105904761D01*
X158642857Y-105952380D01*
X158547619Y-105952380D01*
X158404761Y-105904761D01*
X158309523Y-105809523D01*
X158261904Y-105714285D01*
X158214285Y-105523809D01*
X158214285Y-105380952D01*
X158261904Y-105190476D01*
X158309523Y-105095238D01*
X158404761Y-105000000D01*
X158547619Y-104952380D01*
X158642857Y-104952380D01*
X158785714Y-105000000D01*
X158833333Y-105047619D01*
X159214285Y-105047619D02*
X159261904Y-105000000D01*
X159357142Y-104952380D01*
X159595238Y-104952380D01*
X159690476Y-105000000D01*
X159738095Y-105047619D01*
X159785714Y-105142857D01*
X159785714Y-105238095D01*
X159738095Y-105380952D01*
X159166666Y-105952380D01*
X159785714Y-105952380D01*
X158833333Y-81107142D02*
X158785714Y-81154761D01*
X158642857Y-81202380D01*
X158547619Y-81202380D01*
X158404761Y-81154761D01*
X158309523Y-81059523D01*
X158261904Y-80964285D01*
X158214285Y-80773809D01*
X158214285Y-80630952D01*
X158261904Y-80440476D01*
X158309523Y-80345238D01*
X158404761Y-80250000D01*
X158547619Y-80202380D01*
X158642857Y-80202380D01*
X158785714Y-80250000D01*
X158833333Y-80297619D01*
X159166666Y-80202380D02*
X159785714Y-80202380D01*
X159452380Y-80583333D01*
X159595238Y-80583333D01*
X159690476Y-80630952D01*
X159738095Y-80678571D01*
X159785714Y-80773809D01*
X159785714Y-81011904D01*
X159738095Y-81107142D01*
X159690476Y-81154761D01*
X159595238Y-81202380D01*
X159309523Y-81202380D01*
X159214285Y-81154761D01*
X159166666Y-81107142D01*
X172488095Y-102452380D02*
X172488095Y-103261904D01*
X172535714Y-103357142D01*
X172583333Y-103404761D01*
X172678571Y-103452380D01*
X172869047Y-103452380D01*
X172964285Y-103404761D01*
X173011904Y-103357142D01*
X173059523Y-103261904D01*
X173059523Y-102452380D01*
X173488095Y-102547619D02*
X173535714Y-102500000D01*
X173630952Y-102452380D01*
X173869047Y-102452380D01*
X173964285Y-102500000D01*
X174011904Y-102547619D01*
X174059523Y-102642857D01*
X174059523Y-102738095D01*
X174011904Y-102880952D01*
X173440476Y-103452380D01*
X174059523Y-103452380D01*
X172488095Y-92652380D02*
X172488095Y-93461904D01*
X172535714Y-93557142D01*
X172583333Y-93604761D01*
X172678571Y-93652380D01*
X172869047Y-93652380D01*
X172964285Y-93604761D01*
X173011904Y-93557142D01*
X173059523Y-93461904D01*
X173059523Y-92652380D01*
X173440476Y-92652380D02*
X174059523Y-92652380D01*
X173726190Y-93033333D01*
X173869047Y-93033333D01*
X173964285Y-93080952D01*
X174011904Y-93128571D01*
X174059523Y-93223809D01*
X174059523Y-93461904D01*
X174011904Y-93557142D01*
X173964285Y-93604761D01*
X173869047Y-93652380D01*
X173583333Y-93652380D01*
X173488095Y-93604761D01*
X173440476Y-93557142D01*
X172738095Y-82702380D02*
X172738095Y-83511904D01*
X172785714Y-83607142D01*
X172833333Y-83654761D01*
X172928571Y-83702380D01*
X173119047Y-83702380D01*
X173214285Y-83654761D01*
X173261904Y-83607142D01*
X173309523Y-83511904D01*
X173309523Y-82702380D01*
X174214285Y-83035714D02*
X174214285Y-83702380D01*
X173976190Y-82654761D02*
X173738095Y-83369047D01*
X174357142Y-83369047D01*
X145916666Y-92452380D02*
X145916666Y-93166666D01*
X145869047Y-93309523D01*
X145773809Y-93404761D01*
X145630952Y-93452380D01*
X145535714Y-93452380D01*
X146916666Y-93452380D02*
X146345238Y-93452380D01*
X146630952Y-93452380D02*
X146630952Y-92452380D01*
X146535714Y-92595238D01*
X146440476Y-92690476D01*
X146345238Y-92738095D01*
X170666666Y-63452380D02*
X170666666Y-64166666D01*
X170619047Y-64309523D01*
X170523809Y-64404761D01*
X170380952Y-64452380D01*
X170285714Y-64452380D01*
X171095238Y-63547619D02*
X171142857Y-63500000D01*
X171238095Y-63452380D01*
X171476190Y-63452380D01*
X171571428Y-63500000D01*
X171619047Y-63547619D01*
X171666666Y-63642857D01*
X171666666Y-63738095D01*
X171619047Y-63880952D01*
X171047619Y-64452380D01*
X171666666Y-64452380D01*
X167976190Y-66452380D02*
X167976190Y-65452380D01*
X168452380Y-65785714D02*
X168452380Y-66452380D01*
X168452380Y-65880952D02*
X168500000Y-65833333D01*
X168595238Y-65785714D01*
X168738095Y-65785714D01*
X168833333Y-65833333D01*
X168880952Y-65928571D01*
X168880952Y-66452380D01*
X169214285Y-65785714D02*
X169595238Y-65785714D01*
X169357142Y-65452380D02*
X169357142Y-66309523D01*
X169404761Y-66404761D01*
X169500000Y-66452380D01*
X169595238Y-66452380D01*
X170309523Y-66404761D02*
X170214285Y-66452380D01*
X170023809Y-66452380D01*
X169928571Y-66404761D01*
X169880952Y-66309523D01*
X169880952Y-65928571D01*
X169928571Y-65833333D01*
X170023809Y-65785714D01*
X170214285Y-65785714D01*
X170309523Y-65833333D01*
X170357142Y-65928571D01*
X170357142Y-66023809D01*
X169880952Y-66119047D01*
X170785714Y-66452380D02*
X170785714Y-65785714D01*
X170785714Y-65976190D02*
X170833333Y-65880952D01*
X170880952Y-65833333D01*
X170976190Y-65785714D01*
X171071428Y-65785714D01*
X171547619Y-66452380D02*
X171452380Y-66404761D01*
X171404761Y-66309523D01*
X171404761Y-65452380D01*
X172071428Y-66452380D02*
X171976190Y-66404761D01*
X171928571Y-66357142D01*
X171880952Y-66261904D01*
X171880952Y-65976190D01*
X171928571Y-65880952D01*
X171976190Y-65833333D01*
X172071428Y-65785714D01*
X172214285Y-65785714D01*
X172309523Y-65833333D01*
X172357142Y-65880952D01*
X172404761Y-65976190D01*
X172404761Y-66261904D01*
X172357142Y-66357142D01*
X172309523Y-66404761D01*
X172214285Y-66452380D01*
X172071428Y-66452380D01*
X173261904Y-66404761D02*
X173166666Y-66452380D01*
X172976190Y-66452380D01*
X172880952Y-66404761D01*
X172833333Y-66357142D01*
X172785714Y-66261904D01*
X172785714Y-65976190D01*
X172833333Y-65880952D01*
X172880952Y-65833333D01*
X172976190Y-65785714D01*
X173166666Y-65785714D01*
X173261904Y-65833333D01*
X173690476Y-66452380D02*
X173690476Y-65452380D01*
X173785714Y-66071428D02*
X174071428Y-66452380D01*
X174071428Y-65785714D02*
X173690476Y-66166666D01*
X191666666Y-63452380D02*
X191666666Y-64166666D01*
X191619047Y-64309523D01*
X191523809Y-64404761D01*
X191380952Y-64452380D01*
X191285714Y-64452380D01*
X192047619Y-63452380D02*
X192666666Y-63452380D01*
X192333333Y-63833333D01*
X192476190Y-63833333D01*
X192571428Y-63880952D01*
X192619047Y-63928571D01*
X192666666Y-64023809D01*
X192666666Y-64261904D01*
X192619047Y-64357142D01*
X192571428Y-64404761D01*
X192476190Y-64452380D01*
X192190476Y-64452380D01*
X192095238Y-64404761D01*
X192047619Y-64357142D01*
X189761904Y-66452380D02*
X189761904Y-65452380D01*
X190095238Y-66166666D01*
X190428571Y-65452380D01*
X190428571Y-66452380D01*
X191047619Y-66452380D02*
X190952380Y-66404761D01*
X190904761Y-66357142D01*
X190857142Y-66261904D01*
X190857142Y-65976190D01*
X190904761Y-65880952D01*
X190952380Y-65833333D01*
X191047619Y-65785714D01*
X191190476Y-65785714D01*
X191285714Y-65833333D01*
X191333333Y-65880952D01*
X191380952Y-65976190D01*
X191380952Y-66261904D01*
X191333333Y-66357142D01*
X191285714Y-66404761D01*
X191190476Y-66452380D01*
X191047619Y-66452380D01*
X191666666Y-65785714D02*
X192047619Y-65785714D01*
X191809523Y-65452380D02*
X191809523Y-66309523D01*
X191857142Y-66404761D01*
X191952380Y-66452380D01*
X192047619Y-66452380D01*
X192523809Y-66452380D02*
X192428571Y-66404761D01*
X192380952Y-66357142D01*
X192333333Y-66261904D01*
X192333333Y-65976190D01*
X192380952Y-65880952D01*
X192428571Y-65833333D01*
X192523809Y-65785714D01*
X192666666Y-65785714D01*
X192761904Y-65833333D01*
X192809523Y-65880952D01*
X192857142Y-65976190D01*
X192857142Y-66261904D01*
X192809523Y-66357142D01*
X192761904Y-66404761D01*
X192666666Y-66452380D01*
X192523809Y-66452380D01*
X193285714Y-66452380D02*
X193285714Y-65785714D01*
X193285714Y-65976190D02*
X193333333Y-65880952D01*
X193380952Y-65833333D01*
X193476190Y-65785714D01*
X193571428Y-65785714D01*
X193857142Y-66404761D02*
X193952380Y-66452380D01*
X194142857Y-66452380D01*
X194238095Y-66404761D01*
X194285714Y-66309523D01*
X194285714Y-66261904D01*
X194238095Y-66166666D01*
X194142857Y-66119047D01*
X194000000Y-66119047D01*
X193904761Y-66071428D01*
X193857142Y-65976190D01*
X193857142Y-65928571D01*
X193904761Y-65833333D01*
X194000000Y-65785714D01*
X194142857Y-65785714D01*
X194238095Y-65833333D01*
X114138095Y-51252380D02*
X114138095Y-50252380D01*
X114138095Y-50728571D02*
X114709523Y-50728571D01*
X114709523Y-51252380D02*
X114709523Y-50252380D01*
X115709523Y-51252380D02*
X115138095Y-51252380D01*
X115423809Y-51252380D02*
X115423809Y-50252380D01*
X115328571Y-50395238D01*
X115233333Y-50490476D01*
X115138095Y-50538095D01*
X204138095Y-51252380D02*
X204138095Y-50252380D01*
X204138095Y-50728571D02*
X204709523Y-50728571D01*
X204709523Y-51252380D02*
X204709523Y-50252380D01*
X205138095Y-50347619D02*
X205185714Y-50300000D01*
X205280952Y-50252380D01*
X205519047Y-50252380D01*
X205614285Y-50300000D01*
X205661904Y-50347619D01*
X205709523Y-50442857D01*
X205709523Y-50538095D01*
X205661904Y-50680952D01*
X205090476Y-51252380D01*
X205709523Y-51252380D01*
X114238095Y-141252380D02*
X114238095Y-140252380D01*
X114238095Y-140728571D02*
X114809523Y-140728571D01*
X114809523Y-141252380D02*
X114809523Y-140252380D01*
X115190476Y-140252380D02*
X115809523Y-140252380D01*
X115476190Y-140633333D01*
X115619047Y-140633333D01*
X115714285Y-140680952D01*
X115761904Y-140728571D01*
X115809523Y-140823809D01*
X115809523Y-141061904D01*
X115761904Y-141157142D01*
X115714285Y-141204761D01*
X115619047Y-141252380D01*
X115333333Y-141252380D01*
X115238095Y-141204761D01*
X115190476Y-141157142D01*
X204238095Y-141252380D02*
X204238095Y-140252380D01*
X204238095Y-140728571D02*
X204809523Y-140728571D01*
X204809523Y-141252380D02*
X204809523Y-140252380D01*
X205714285Y-140585714D02*
X205714285Y-141252380D01*
X205476190Y-140204761D02*
X205238095Y-140919047D01*
X205857142Y-140919047D01*
X210452380Y-94714285D02*
X209452380Y-94714285D01*
X210166666Y-94380952D01*
X209452380Y-94047619D01*
X210452380Y-94047619D01*
X210452380Y-93571428D02*
X209452380Y-93571428D01*
X210452380Y-93000000D01*
X209452380Y-93000000D01*
X209452380Y-92666666D02*
X209452380Y-92095238D01*
X210452380Y-92380952D02*
X209452380Y-92380952D01*
X210452380Y-91238095D02*
X210452380Y-91809523D01*
X210452380Y-91523809D02*
X209452380Y-91523809D01*
X209595238Y-91619047D01*
X209690476Y-91714285D01*
X209738095Y-91809523D01*
X125738095Y-131452380D02*
X125738095Y-132261904D01*
X125785714Y-132357142D01*
X125833333Y-132404761D01*
X125928571Y-132452380D01*
X126119047Y-132452380D01*
X126214285Y-132404761D01*
X126261904Y-132357142D01*
X126309523Y-132261904D01*
X126309523Y-131452380D01*
X127309523Y-132452380D02*
X126738095Y-132452380D01*
X127023809Y-132452380D02*
X127023809Y-131452380D01*
X126928571Y-131595238D01*
X126833333Y-131690476D01*
X126738095Y-131738095D01*
X118690476Y-133928571D02*
X119023809Y-133928571D01*
X119166666Y-134452380D02*
X118690476Y-134452380D01*
X118690476Y-133452380D01*
X119166666Y-133452380D01*
X119547619Y-134404761D02*
X119690476Y-134452380D01*
X119928571Y-134452380D01*
X120023809Y-134404761D01*
X120071428Y-134357142D01*
X120119047Y-134261904D01*
X120119047Y-134166666D01*
X120071428Y-134071428D01*
X120023809Y-134023809D01*
X119928571Y-133976190D01*
X119738095Y-133928571D01*
X119642857Y-133880952D01*
X119595238Y-133833333D01*
X119547619Y-133738095D01*
X119547619Y-133642857D01*
X119595238Y-133547619D01*
X119642857Y-133500000D01*
X119738095Y-133452380D01*
X119976190Y-133452380D01*
X120119047Y-133500000D01*
X120547619Y-134452380D02*
X120547619Y-133452380D01*
X120928571Y-133452380D01*
X121023809Y-133500000D01*
X121071428Y-133547619D01*
X121119047Y-133642857D01*
X121119047Y-133785714D01*
X121071428Y-133880952D01*
X121023809Y-133928571D01*
X120928571Y-133976190D01*
X120547619Y-133976190D01*
X121452380Y-133452380D02*
X122071428Y-133452380D01*
X121738095Y-133833333D01*
X121880952Y-133833333D01*
X121976190Y-133880952D01*
X122023809Y-133928571D01*
X122071428Y-134023809D01*
X122071428Y-134261904D01*
X122023809Y-134357142D01*
X121976190Y-134404761D01*
X121880952Y-134452380D01*
X121595238Y-134452380D01*
X121500000Y-134404761D01*
X121452380Y-134357142D01*
X122452380Y-133547619D02*
X122500000Y-133500000D01*
X122595238Y-133452380D01*
X122833333Y-133452380D01*
X122928571Y-133500000D01*
X122976190Y-133547619D01*
X123023809Y-133642857D01*
X123023809Y-133738095D01*
X122976190Y-133880952D01*
X122404761Y-134452380D01*
X123023809Y-134452380D01*
X123214285Y-134547619D02*
X123976190Y-134547619D01*
X124071428Y-133452380D02*
X124642857Y-133452380D01*
X124357142Y-134452380D02*
X124357142Y-133452380D01*
X124833333Y-133452380D02*
X125404761Y-133452380D01*
X125119047Y-134452380D02*
X125119047Y-133452380D01*
X126261904Y-133500000D02*
X126166666Y-133452380D01*
X126023809Y-133452380D01*
X125880952Y-133500000D01*
X125785714Y-133595238D01*
X125738095Y-133690476D01*
X125690476Y-133880952D01*
X125690476Y-134023809D01*
X125738095Y-134214285D01*
X125785714Y-134309523D01*
X125880952Y-134404761D01*
X126023809Y-134452380D01*
X126119047Y-134452380D01*
X126261904Y-134404761D01*
X126309523Y-134357142D01*
X126309523Y-134023809D01*
X126119047Y-134023809D01*
X126928571Y-133452380D02*
X127119047Y-133452380D01*
X127214285Y-133500000D01*
X127309523Y-133595238D01*
X127357142Y-133785714D01*
X127357142Y-134119047D01*
X127309523Y-134309523D01*
X127214285Y-134404761D01*
X127119047Y-134452380D01*
X126928571Y-134452380D01*
X126833333Y-134404761D01*
X126738095Y-134309523D01*
X126690476Y-134119047D01*
X126690476Y-133785714D01*
X126738095Y-133595238D01*
X126833333Y-133500000D01*
X126928571Y-133452380D01*
X139666666Y-63452380D02*
X139666666Y-64166666D01*
X139619047Y-64309523D01*
X139523809Y-64404761D01*
X139380952Y-64452380D01*
X139285714Y-64452380D01*
X140571428Y-63785714D02*
X140571428Y-64452380D01*
X140333333Y-63404761D02*
X140095238Y-64119047D01*
X140714285Y-64119047D01*
X138714285Y-66071428D02*
X139476190Y-66071428D01*
X139095238Y-66452380D02*
X139095238Y-65690476D01*
X140428571Y-65452380D02*
X139952380Y-65452380D01*
X139904761Y-65928571D01*
X139952380Y-65880952D01*
X140047619Y-65833333D01*
X140285714Y-65833333D01*
X140380952Y-65880952D01*
X140428571Y-65928571D01*
X140476190Y-66023809D01*
X140476190Y-66261904D01*
X140428571Y-66357142D01*
X140380952Y-66404761D01*
X140285714Y-66452380D01*
X140047619Y-66452380D01*
X139952380Y-66404761D01*
X139904761Y-66357142D01*
X140761904Y-65452380D02*
X141095238Y-66452380D01*
X141428571Y-65452380D01*
X158833333Y-100952380D02*
X158500000Y-100476190D01*
X158261904Y-100952380D02*
X158261904Y-99952380D01*
X158642857Y-99952380D01*
X158738095Y-100000000D01*
X158785714Y-100047619D01*
X158833333Y-100142857D01*
X158833333Y-100285714D01*
X158785714Y-100380952D01*
X158738095Y-100428571D01*
X158642857Y-100476190D01*
X158261904Y-100476190D01*
X159785714Y-100952380D02*
X159214285Y-100952380D01*
X159500000Y-100952380D02*
X159500000Y-99952380D01*
X159404761Y-100095238D01*
X159309523Y-100190476D01*
X159214285Y-100238095D01*
X158833333Y-98452380D02*
X158500000Y-97976190D01*
X158261904Y-98452380D02*
X158261904Y-97452380D01*
X158642857Y-97452380D01*
X158738095Y-97500000D01*
X158785714Y-97547619D01*
X158833333Y-97642857D01*
X158833333Y-97785714D01*
X158785714Y-97880952D01*
X158738095Y-97928571D01*
X158642857Y-97976190D01*
X158261904Y-97976190D01*
X159214285Y-97547619D02*
X159261904Y-97500000D01*
X159357142Y-97452380D01*
X159595238Y-97452380D01*
X159690476Y-97500000D01*
X159738095Y-97547619D01*
X159785714Y-97642857D01*
X159785714Y-97738095D01*
X159738095Y-97880952D01*
X159166666Y-98452380D01*
X159785714Y-98452380D01*
X158833333Y-85952380D02*
X158500000Y-85476190D01*
X158261904Y-85952380D02*
X158261904Y-84952380D01*
X158642857Y-84952380D01*
X158738095Y-85000000D01*
X158785714Y-85047619D01*
X158833333Y-85142857D01*
X158833333Y-85285714D01*
X158785714Y-85380952D01*
X158738095Y-85428571D01*
X158642857Y-85476190D01*
X158261904Y-85476190D01*
X159166666Y-84952380D02*
X159785714Y-84952380D01*
X159452380Y-85333333D01*
X159595238Y-85333333D01*
X159690476Y-85380952D01*
X159738095Y-85428571D01*
X159785714Y-85523809D01*
X159785714Y-85761904D01*
X159738095Y-85857142D01*
X159690476Y-85904761D01*
X159595238Y-85952380D01*
X159309523Y-85952380D01*
X159214285Y-85904761D01*
X159166666Y-85857142D01*
X158833333Y-90952380D02*
X158500000Y-90476190D01*
X158261904Y-90952380D02*
X158261904Y-89952380D01*
X158642857Y-89952380D01*
X158738095Y-90000000D01*
X158785714Y-90047619D01*
X158833333Y-90142857D01*
X158833333Y-90285714D01*
X158785714Y-90380952D01*
X158738095Y-90428571D01*
X158642857Y-90476190D01*
X158261904Y-90476190D01*
X159690476Y-90285714D02*
X159690476Y-90952380D01*
X159452380Y-89904761D02*
X159214285Y-90619047D01*
X159833333Y-90619047D01*
X158833333Y-88452380D02*
X158500000Y-87976190D01*
X158261904Y-88452380D02*
X158261904Y-87452380D01*
X158642857Y-87452380D01*
X158738095Y-87500000D01*
X158785714Y-87547619D01*
X158833333Y-87642857D01*
X158833333Y-87785714D01*
X158785714Y-87880952D01*
X158738095Y-87928571D01*
X158642857Y-87976190D01*
X158261904Y-87976190D01*
X159738095Y-87452380D02*
X159261904Y-87452380D01*
X159214285Y-87928571D01*
X159261904Y-87880952D01*
X159357142Y-87833333D01*
X159595238Y-87833333D01*
X159690476Y-87880952D01*
X159738095Y-87928571D01*
X159785714Y-88023809D01*
X159785714Y-88261904D01*
X159738095Y-88357142D01*
X159690476Y-88404761D01*
X159595238Y-88452380D01*
X159357142Y-88452380D01*
X159261904Y-88404761D01*
X159214285Y-88357142D01*
X158833333Y-93452380D02*
X158500000Y-92976190D01*
X158261904Y-93452380D02*
X158261904Y-92452380D01*
X158642857Y-92452380D01*
X158738095Y-92500000D01*
X158785714Y-92547619D01*
X158833333Y-92642857D01*
X158833333Y-92785714D01*
X158785714Y-92880952D01*
X158738095Y-92928571D01*
X158642857Y-92976190D01*
X158261904Y-92976190D01*
X159690476Y-92452380D02*
X159500000Y-92452380D01*
X159404761Y-92500000D01*
X159357142Y-92547619D01*
X159261904Y-92690476D01*
X159214285Y-92880952D01*
X159214285Y-93261904D01*
X159261904Y-93357142D01*
X159309523Y-93404761D01*
X159404761Y-93452380D01*
X159595238Y-93452380D01*
X159690476Y-93404761D01*
X159738095Y-93357142D01*
X159785714Y-93261904D01*
X159785714Y-93023809D01*
X159738095Y-92928571D01*
X159690476Y-92880952D01*
X159595238Y-92833333D01*
X159404761Y-92833333D01*
X159309523Y-92880952D01*
X159261904Y-92928571D01*
X159214285Y-93023809D01*
X150421309Y-63352380D02*
X150421309Y-64066666D01*
X150373690Y-64209523D01*
X150278452Y-64304761D01*
X150135595Y-64352380D01*
X150040357Y-64352380D01*
X151373690Y-63352380D02*
X150897500Y-63352380D01*
X150849880Y-63828571D01*
X150897500Y-63780952D01*
X150992738Y-63733333D01*
X151230833Y-63733333D01*
X151326071Y-63780952D01*
X151373690Y-63828571D01*
X151421309Y-63923809D01*
X151421309Y-64161904D01*
X151373690Y-64257142D01*
X151326071Y-64304761D01*
X151230833Y-64352380D01*
X150992738Y-64352380D01*
X150897500Y-64304761D01*
X150849880Y-64257142D01*
X149785714Y-66452380D02*
X149452380Y-65976190D01*
X149214285Y-66452380D02*
X149214285Y-65452380D01*
X149595238Y-65452380D01*
X149690476Y-65500000D01*
X149738095Y-65547619D01*
X149785714Y-65642857D01*
X149785714Y-65785714D01*
X149738095Y-65880952D01*
X149690476Y-65928571D01*
X149595238Y-65976190D01*
X149214285Y-65976190D01*
X150595238Y-66404761D02*
X150500000Y-66452380D01*
X150309523Y-66452380D01*
X150214285Y-66404761D01*
X150166666Y-66309523D01*
X150166666Y-65928571D01*
X150214285Y-65833333D01*
X150309523Y-65785714D01*
X150500000Y-65785714D01*
X150595238Y-65833333D01*
X150642857Y-65928571D01*
X150642857Y-66023809D01*
X150166666Y-66119047D01*
X151214285Y-66452380D02*
X151119047Y-66404761D01*
X151071428Y-66309523D01*
X151071428Y-65452380D01*
X152023809Y-66452380D02*
X152023809Y-65928571D01*
X151976190Y-65833333D01*
X151880952Y-65785714D01*
X151690476Y-65785714D01*
X151595238Y-65833333D01*
X152023809Y-66404761D02*
X151928571Y-66452380D01*
X151690476Y-66452380D01*
X151595238Y-66404761D01*
X151547619Y-66309523D01*
X151547619Y-66214285D01*
X151595238Y-66119047D01*
X151690476Y-66071428D01*
X151928571Y-66071428D01*
X152023809Y-66023809D01*
X152404761Y-65785714D02*
X152642857Y-66452380D01*
X152880952Y-65785714D02*
X152642857Y-66452380D01*
X152547619Y-66690476D01*
X152500000Y-66738095D01*
X152404761Y-66785714D01*
M02*
