%TF.GenerationSoftware,KiCad,Pcbnew,(5.0.0-rc2-dev)*%
%TF.CreationDate,2018-05-14T12:38:31-07:00*%
%TF.ProjectId,makerlabs-acm-reader-lock_v1.0.0,6D616B65726C6162732D61636D2D7265,rev?*%
%TF.SameCoordinates,Original*%
%TF.FileFunction,Soldermask,Bot*%
%TF.FilePolarity,Negative*%
%FSLAX46Y46*%
G04 Gerber Fmt 4.6, Leading zero omitted, Abs format (unit mm)*
G04 Created by KiCad (PCBNEW (5.0.0-rc2-dev)) date Monday, May 14, 2018 at 12:38:31 PM*
%MOMM*%
%LPD*%
G01*
G04 APERTURE LIST*
%ADD10C,1.400000*%
%ADD11C,3.600000*%
%ADD12C,3.900000*%
%ADD13O,2.100000X2.100000*%
%ADD14C,2.100000*%
%ADD15R,2.100000X2.100000*%
%ADD16C,2.400000*%
G04 APERTURE END LIST*
D10*
%TO.C,J1*%
X150950000Y-103150000D03*
X150950000Y-82850000D03*
%TD*%
%TO.C,J2*%
X173650000Y-58050000D03*
X168350000Y-58050000D03*
%TD*%
%TO.C,J3*%
X186850000Y-58050000D03*
X197150000Y-58050000D03*
%TD*%
D11*
%TO.C,H1*%
X114900000Y-55000000D03*
%TD*%
%TO.C,H2*%
X204900000Y-55000000D03*
%TD*%
%TO.C,H3*%
X115000000Y-145000000D03*
%TD*%
%TO.C,H4*%
X205000000Y-145000000D03*
%TD*%
D12*
%TO.C,MNT1*%
X192000000Y-93000000D03*
X128000000Y-93000000D03*
%TD*%
D13*
%TO.C,U1*%
X174980000Y-121750000D03*
X172440000Y-121750000D03*
X169900000Y-121750000D03*
X167360000Y-121750000D03*
X164820000Y-121750000D03*
X162280000Y-121750000D03*
X159740000Y-121750000D03*
X157200000Y-121750000D03*
X154660000Y-121750000D03*
X152120000Y-121750000D03*
X149580000Y-121750000D03*
X147040000Y-121750000D03*
X144500000Y-121750000D03*
X141960000Y-121750000D03*
X139420000Y-121750000D03*
X136880000Y-121750000D03*
X134340000Y-121750000D03*
D14*
X131800000Y-121750000D03*
D15*
X131800000Y-144250000D03*
D13*
X134340000Y-144250000D03*
X136880000Y-144250000D03*
X139420000Y-144250000D03*
X141960000Y-144250000D03*
X144500000Y-144250000D03*
X147040000Y-144250000D03*
X149580000Y-144250000D03*
X152120000Y-144250000D03*
X154660000Y-144250000D03*
X157200000Y-144250000D03*
X159740000Y-144250000D03*
X162280000Y-144250000D03*
X164820000Y-144250000D03*
X167360000Y-144250000D03*
X169900000Y-144250000D03*
X172440000Y-144250000D03*
X174980000Y-144250000D03*
%TD*%
D16*
%TO.C,J4*%
X129800000Y-53500000D03*
%TD*%
D10*
%TO.C,J5*%
X147300000Y-58150000D03*
X155100000Y-58150000D03*
%TD*%
M02*
