%TF.GenerationSoftware,KiCad,Pcbnew,(5.0.0-rc2-dev)*%
%TF.CreationDate,2018-05-14T12:38:31-07:00*%
%TF.ProjectId,makerlabs-acm-reader-lock_v1.0.0,6D616B65726C6162732D61636D2D7265,rev?*%
%TF.SameCoordinates,Original*%
%TF.FileFunction,Copper,L1,Top,Signal*%
%TF.FilePolarity,Positive*%
%FSLAX46Y46*%
G04 Gerber Fmt 4.6, Leading zero omitted, Abs format (unit mm)*
G04 Created by KiCad (PCBNEW (5.0.0-rc2-dev)) date Monday, May 14, 2018 at 12:38:31 PM*
%MOMM*%
%LPD*%
G01*
G04 APERTURE LIST*
%TA.AperFunction,SMDPad,CuDef*%
%ADD10R,0.800000X0.750000*%
%TD*%
%TA.AperFunction,SMDPad,CuDef*%
%ADD11R,1.000000X1.600000*%
%TD*%
%TA.AperFunction,SMDPad,CuDef*%
%ADD12R,0.800000X1.200000*%
%TD*%
%TA.AperFunction,SMDPad,CuDef*%
%ADD13R,0.600000X1.550000*%
%TD*%
%TA.AperFunction,SMDPad,CuDef*%
%ADD14R,4.400000X1.200000*%
%TD*%
%TA.AperFunction,SMDPad,CuDef*%
%ADD15R,5.600000X2.200000*%
%TD*%
%TA.AperFunction,SMDPad,CuDef*%
%ADD16R,1.200000X4.400000*%
%TD*%
%TA.AperFunction,SMDPad,CuDef*%
%ADD17R,2.200000X5.600000*%
%TD*%
%TA.AperFunction,ComponentPad*%
%ADD18O,1.700000X1.700000*%
%TD*%
%TA.AperFunction,ComponentPad*%
%ADD19C,1.700000*%
%TD*%
%TA.AperFunction,ComponentPad*%
%ADD20R,1.700000X1.700000*%
%TD*%
%TA.AperFunction,SMDPad,CuDef*%
%ADD21R,3.900000X6.200000*%
%TD*%
%TA.AperFunction,SMDPad,CuDef*%
%ADD22R,3.300000X4.400000*%
%TD*%
%TA.AperFunction,SMDPad,CuDef*%
%ADD23R,0.500000X0.900000*%
%TD*%
%TA.AperFunction,ViaPad*%
%ADD24C,0.800000*%
%TD*%
%TA.AperFunction,Conductor*%
%ADD25C,1.000000*%
%TD*%
%TA.AperFunction,Conductor*%
%ADD26C,2.000000*%
%TD*%
%TA.AperFunction,Conductor*%
%ADD27C,0.254000*%
%TD*%
G04 APERTURE END LIST*
D10*
%TO.P,C1,2*%
%TO.N,GND*%
X162700000Y-103100000D03*
%TO.P,C1,1*%
%TO.N,+3V3*%
X164200000Y-103100000D03*
%TD*%
%TO.P,C4,2*%
%TO.N,GND*%
X162700000Y-82900000D03*
%TO.P,C4,1*%
%TO.N,+5V*%
X164200000Y-82900000D03*
%TD*%
%TO.P,C5,2*%
%TO.N,+3V3*%
X164250000Y-95500000D03*
%TO.P,C5,1*%
%TO.N,GND*%
X162750000Y-95500000D03*
%TD*%
D11*
%TO.P,C2,1*%
%TO.N,+3V3*%
X164100000Y-105300000D03*
%TO.P,C2,2*%
%TO.N,GND*%
X161100000Y-105300000D03*
%TD*%
%TO.P,C3,1*%
%TO.N,+5V*%
X164100000Y-80700000D03*
%TO.P,C3,2*%
%TO.N,GND*%
X161100000Y-80700000D03*
%TD*%
D12*
%TO.P,U2,3*%
%TO.N,/Interlock_H*%
X170770000Y-100000000D03*
%TO.P,U2,2*%
%TO.N,GND*%
X170770000Y-106000000D03*
%TO.P,U2,1*%
%TO.N,Net-(R1-Pad2)*%
X168230000Y-106000000D03*
%TO.P,U2,4*%
%TO.N,/Interlock_L*%
X168230000Y-100000000D03*
%TD*%
D13*
%TO.P,U3,8*%
%TO.N,+3V3*%
X171405000Y-95900000D03*
%TO.P,U3,7*%
%TO.N,/MotorY_Safe*%
X170135000Y-95900000D03*
%TO.P,U3,6*%
%TO.N,/MotorX_Safe*%
X168865000Y-95900000D03*
%TO.P,U3,5*%
%TO.N,GND*%
X167595000Y-95900000D03*
%TO.P,U3,4*%
%TO.N,Net-(R3-Pad2)*%
X167595000Y-90500000D03*
%TO.P,U3,3*%
%TO.N,/MotorX_L*%
X168865000Y-90500000D03*
%TO.P,U3,2*%
%TO.N,/MotorY_L*%
X170135000Y-90500000D03*
%TO.P,U3,1*%
%TO.N,Net-(R4-Pad1)*%
X171405000Y-90500000D03*
%TD*%
%TO.P,U4,1*%
%TO.N,/MotorX_L*%
X167595000Y-86000000D03*
%TO.P,U4,2*%
%TO.N,/MotorX_H*%
X168865000Y-86000000D03*
%TO.P,U4,3*%
%TO.N,/MotorY_L*%
X170135000Y-86000000D03*
%TO.P,U4,4*%
%TO.N,/MotorY_H*%
X171405000Y-86000000D03*
%TO.P,U4,5*%
%TO.N,/Interlock_H*%
X171405000Y-80600000D03*
%TO.P,U4,6*%
%TO.N,GND*%
X170135000Y-80600000D03*
%TO.P,U4,7*%
X168865000Y-80600000D03*
%TO.P,U4,8*%
%TO.N,/Interlock_L*%
X167595000Y-80600000D03*
%TD*%
D14*
%TO.P,J1,4*%
%TO.N,/Green_LED*%
X150350000Y-91750000D03*
%TO.P,J1,3*%
%TO.N,/Red_LED*%
X150350000Y-89250000D03*
%TO.P,J1,2*%
%TO.N,/Beeper*%
X150350000Y-86750000D03*
%TO.P,J1,5*%
%TO.N,/Read_Hold*%
X150350000Y-94250000D03*
%TO.P,J1,6*%
%TO.N,/DATA0*%
X150350000Y-96750000D03*
%TO.P,J1,7*%
%TO.N,/DATA1*%
X150350000Y-99250000D03*
%TO.P,J1,8*%
%TO.N,GND*%
X150350000Y-101750000D03*
%TO.P,J1,1*%
%TO.N,+5V*%
X150350000Y-84250000D03*
D15*
%TO.P,J1,*%
%TO.N,*%
X153050000Y-105050000D03*
X153050000Y-80950000D03*
%TD*%
D16*
%TO.P,J2,2*%
%TO.N,/Interlock_H*%
X172250000Y-58650000D03*
%TO.P,J2,1*%
%TO.N,/Interlock_L*%
X169750000Y-58650000D03*
D17*
%TO.P,J2,*%
%TO.N,*%
X175550000Y-55950000D03*
X166450000Y-55950000D03*
%TD*%
%TO.P,J3,*%
%TO.N,*%
X184950000Y-55950000D03*
X199050000Y-55950000D03*
D16*
%TO.P,J3,1*%
%TO.N,/MotorX_L*%
X188250000Y-58650000D03*
%TO.P,J3,2*%
%TO.N,/MotorX_H*%
X190750000Y-58650000D03*
%TO.P,J3,3*%
%TO.N,/MotorY_L*%
X193250000Y-58650000D03*
%TO.P,J3,4*%
%TO.N,/MotorY_H*%
X195750000Y-58650000D03*
%TD*%
D18*
%TO.P,U1,19*%
%TO.N,/Interlock_Safe*%
X174980000Y-121750000D03*
%TO.P,U1,20*%
%TO.N,/MotorX_Safe*%
X172440000Y-121750000D03*
%TO.P,U1,21*%
%TO.N,/MotorY_Safe*%
X169900000Y-121750000D03*
%TO.P,U1,22*%
%TO.N,Net-(U1-Pad22)*%
X167360000Y-121750000D03*
%TO.P,U1,23*%
%TO.N,Net-(U1-Pad23)*%
X164820000Y-121750000D03*
%TO.P,U1,24*%
%TO.N,Net-(U1-Pad24)*%
X162280000Y-121750000D03*
%TO.P,U1,25*%
%TO.N,/Relay*%
X159740000Y-121750000D03*
%TO.P,U1,26*%
%TO.N,/DATA1*%
X157200000Y-121750000D03*
%TO.P,U1,27*%
%TO.N,/DATA0*%
X154660000Y-121750000D03*
%TO.P,U1,28*%
%TO.N,Net-(U1-Pad28)*%
X152120000Y-121750000D03*
%TO.P,U1,29*%
%TO.N,Net-(U1-Pad29)*%
X149580000Y-121750000D03*
%TO.P,U1,30*%
%TO.N,Net-(U1-Pad30)*%
X147040000Y-121750000D03*
%TO.P,U1,31*%
%TO.N,Net-(U1-Pad31)*%
X144500000Y-121750000D03*
%TO.P,U1,32*%
%TO.N,Net-(U1-Pad32)*%
X141960000Y-121750000D03*
%TO.P,U1,33*%
%TO.N,Net-(U1-Pad33)*%
X139420000Y-121750000D03*
%TO.P,U1,34*%
%TO.N,+3V3*%
X136880000Y-121750000D03*
%TO.P,U1,35*%
%TO.N,+5V*%
X134340000Y-121750000D03*
D19*
%TO.P,U1,36*%
%TO.N,GND*%
X131800000Y-121750000D03*
D20*
%TO.P,U1,1*%
X131800000Y-144250000D03*
D18*
%TO.P,U1,2*%
%TO.N,+5V*%
X134340000Y-144250000D03*
%TO.P,U1,3*%
%TO.N,+3V3*%
X136880000Y-144250000D03*
%TO.P,U1,4*%
%TO.N,GND*%
X139420000Y-144250000D03*
%TO.P,U1,5*%
%TO.N,Net-(U1-Pad5)*%
X141960000Y-144250000D03*
%TO.P,U1,6*%
%TO.N,Net-(U1-Pad6)*%
X144500000Y-144250000D03*
%TO.P,U1,7*%
%TO.N,Net-(U1-Pad7)*%
X147040000Y-144250000D03*
%TO.P,U1,8*%
%TO.N,Net-(U1-Pad8)*%
X149580000Y-144250000D03*
%TO.P,U1,9*%
%TO.N,/Read_Hold*%
X152120000Y-144250000D03*
%TO.P,U1,10*%
%TO.N,Net-(U1-Pad10)*%
X154660000Y-144250000D03*
%TO.P,U1,11*%
%TO.N,/Beeper*%
X157200000Y-144250000D03*
%TO.P,U1,12*%
%TO.N,Net-(U1-Pad12)*%
X159740000Y-144250000D03*
%TO.P,U1,13*%
%TO.N,Net-(U1-Pad13)*%
X162280000Y-144250000D03*
%TO.P,U1,14*%
%TO.N,Net-(U1-Pad14)*%
X164820000Y-144250000D03*
%TO.P,U1,15*%
%TO.N,/Green_LED*%
X167360000Y-144250000D03*
%TO.P,U1,16*%
%TO.N,Net-(U1-Pad16)*%
X169900000Y-144250000D03*
%TO.P,U1,17*%
%TO.N,/Red_LED*%
X172440000Y-144250000D03*
%TO.P,U1,18*%
%TO.N,Net-(U1-Pad18)*%
X174980000Y-144250000D03*
%TD*%
D21*
%TO.P,J4,3*%
%TO.N,GND*%
X123350000Y-57300000D03*
%TO.P,J4,2*%
X136250000Y-57300000D03*
D22*
%TO.P,J4,1*%
%TO.N,+5V*%
X129100000Y-66300000D03*
%TD*%
D23*
%TO.P,R1,1*%
%TO.N,/Interlock_Safe*%
X164250000Y-100500000D03*
%TO.P,R1,2*%
%TO.N,Net-(R1-Pad2)*%
X162750000Y-100500000D03*
%TD*%
%TO.P,R2,2*%
%TO.N,GND*%
X164250000Y-98000000D03*
%TO.P,R2,1*%
%TO.N,Net-(R1-Pad2)*%
X162750000Y-98000000D03*
%TD*%
%TO.P,R3,1*%
%TO.N,/MotorX_L*%
X164250000Y-85500000D03*
%TO.P,R3,2*%
%TO.N,Net-(R3-Pad2)*%
X162750000Y-85500000D03*
%TD*%
%TO.P,R4,2*%
%TO.N,/MotorY_L*%
X164250000Y-90500000D03*
%TO.P,R4,1*%
%TO.N,Net-(R4-Pad1)*%
X162750000Y-90500000D03*
%TD*%
%TO.P,R5,2*%
%TO.N,Net-(R3-Pad2)*%
X162750000Y-88000000D03*
%TO.P,R5,1*%
%TO.N,/MotorX_H*%
X164250000Y-88000000D03*
%TD*%
%TO.P,R6,1*%
%TO.N,Net-(R4-Pad1)*%
X162750000Y-93000000D03*
%TO.P,R6,2*%
%TO.N,/MotorY_H*%
X164250000Y-93000000D03*
%TD*%
D17*
%TO.P,J5,*%
%TO.N,*%
X145400000Y-56050000D03*
X157000000Y-56050000D03*
D16*
%TO.P,J5,1*%
%TO.N,/Relay*%
X148700000Y-58750000D03*
%TO.P,J5,2*%
%TO.N,GND*%
X151200000Y-58750000D03*
%TO.P,J5,3*%
X153700000Y-58750000D03*
%TD*%
D24*
%TO.N,+3V3*%
X165400000Y-103100000D03*
X165002930Y-96700000D03*
X171400000Y-94300000D03*
%TO.N,GND*%
X161250000Y-93550008D03*
X165900000Y-99400000D03*
X165900000Y-101800000D03*
X161100000Y-79000000D03*
X167600000Y-97700000D03*
X172400000Y-106000000D03*
X136200000Y-101800000D03*
X131800000Y-101800000D03*
X169500000Y-79000000D03*
%TO.N,/DATA1*%
X157200000Y-99300004D03*
%TO.N,/DATA0*%
X154650000Y-96800000D03*
%TO.N,/Read_Hold*%
X158400000Y-118199998D03*
X158400000Y-99300000D03*
%TO.N,/Beeper*%
X162000000Y-114550000D03*
X162000000Y-96799992D03*
%TO.N,/Red_LED*%
X160800000Y-115750000D03*
X160800000Y-99300000D03*
%TO.N,/Green_LED*%
X159600000Y-116999992D03*
X159600000Y-99300000D03*
%TO.N,/Interlock_H*%
X172700000Y-87300000D03*
X172250000Y-79755000D03*
%TO.N,/Interlock_L*%
X166300000Y-95600000D03*
X167500000Y-79249998D03*
%TO.N,/MotorX_L*%
X168900000Y-89100000D03*
X168900000Y-82399986D03*
%TO.N,/Interlock_Safe*%
X175000000Y-108800000D03*
%TO.N,/MotorY_Safe*%
X170100002Y-97500000D03*
%TO.N,/MotorX_Safe*%
X172400000Y-107600000D03*
%TO.N,/MotorY_H*%
X168200000Y-93200000D03*
X171400000Y-88800000D03*
%TO.N,Net-(R1-Pad2)*%
X163300000Y-99100000D03*
X168250000Y-104500000D03*
%TO.N,/Relay*%
X148700000Y-61800000D03*
X148700000Y-119750000D03*
%TD*%
D25*
%TO.N,+3V3*%
X164100000Y-105300000D02*
X164100000Y-108300000D01*
X139150000Y-118300000D02*
X136900000Y-120550000D01*
X164100000Y-108300000D02*
X154100000Y-118300000D01*
X154100000Y-118300000D02*
X139150000Y-118300000D01*
X136900000Y-120550000D02*
X136900000Y-121730000D01*
X136900000Y-121730000D02*
X136880000Y-121750000D01*
X164200000Y-103100000D02*
X165400000Y-103100000D01*
X164602931Y-96300001D02*
X165002930Y-96700000D01*
X164400011Y-96097081D02*
X164602931Y-96300001D01*
X164400011Y-95650011D02*
X164400011Y-96097081D01*
X164250000Y-95500000D02*
X164400011Y-95650011D01*
X171405000Y-95900000D02*
X171405000Y-94305000D01*
X171405000Y-94305000D02*
X171400000Y-94300000D01*
X164275000Y-95500000D02*
X164250000Y-95500000D01*
X136880000Y-121750000D02*
X136880000Y-144250000D01*
X164100000Y-105300000D02*
X164100000Y-103200000D01*
X164100000Y-103200000D02*
X164200000Y-103100000D01*
%TO.N,GND*%
X151200000Y-69100000D02*
X153700000Y-71600000D01*
X153700000Y-58750000D02*
X153700000Y-71600000D01*
X153700000Y-71600000D02*
X160700001Y-78600001D01*
X139400000Y-57300000D02*
X151200000Y-69100000D01*
X151200000Y-58750000D02*
X151200000Y-69100000D01*
X163200013Y-96302940D02*
X162700000Y-95802927D01*
X162700000Y-95802927D02*
X162700000Y-95550000D01*
X163200013Y-96750013D02*
X163200013Y-96302940D01*
X164250000Y-98000000D02*
X164250000Y-97800000D01*
X164250000Y-97800000D02*
X163200013Y-96750013D01*
X161649999Y-93950007D02*
X161250000Y-93550008D01*
X162700000Y-95000008D02*
X161649999Y-93950007D01*
X162700000Y-95550000D02*
X162700000Y-95000008D01*
X163852929Y-101799999D02*
X165300000Y-101799999D01*
X162700000Y-102564998D02*
X163464999Y-101799999D01*
X163464999Y-101799999D02*
X163852929Y-101799999D01*
X165300000Y-101799999D02*
X165899999Y-101799999D01*
X162700000Y-103100000D02*
X162700000Y-102564998D01*
X165899999Y-101799999D02*
X165900000Y-101800000D01*
X136250000Y-57300000D02*
X139400000Y-57300000D01*
X160700001Y-78600001D02*
X161100000Y-79000000D01*
X161100000Y-80700000D02*
X161100000Y-79000000D01*
X164250000Y-98000000D02*
X164500000Y-98000000D01*
X164500000Y-98000000D02*
X165799990Y-99299990D01*
X165799990Y-99299990D02*
X165802920Y-99299990D01*
X167595000Y-97695000D02*
X167600000Y-97700000D01*
X167595000Y-95900000D02*
X167595000Y-97695000D01*
X162700000Y-95550000D02*
X162750000Y-95500000D01*
X172400000Y-106000000D02*
X170770000Y-106000000D01*
X136200000Y-101800000D02*
X150300000Y-101800000D01*
X150300000Y-101800000D02*
X150350000Y-101750000D01*
X131800000Y-121750000D02*
X131800000Y-101800000D01*
X131800000Y-144250000D02*
X131850000Y-144250000D01*
X131850000Y-144250000D02*
X133700000Y-146100000D01*
X133700000Y-146100000D02*
X137570000Y-146100000D01*
X138570001Y-145099999D02*
X139420000Y-144250000D01*
X137570000Y-146100000D02*
X138570001Y-145099999D01*
X131800000Y-121750000D02*
X131800000Y-144250000D01*
X169300000Y-79000000D02*
X169500000Y-79000000D01*
X168865000Y-80600000D02*
X168865000Y-79435000D01*
X168865000Y-79435000D02*
X169300000Y-79000000D01*
X169300000Y-79000000D02*
X169800000Y-79000000D01*
X169800000Y-79000000D02*
X170135000Y-79335000D01*
X170135000Y-79335000D02*
X170135000Y-80600000D01*
X136250000Y-57300000D02*
X123350000Y-57300000D01*
X150350000Y-101750000D02*
X158950000Y-101750000D01*
X158950000Y-101750000D02*
X161100000Y-103900000D01*
X161100000Y-105300000D02*
X161100000Y-103900000D01*
X161100000Y-103900000D02*
X161900000Y-103100000D01*
X161900000Y-103100000D02*
X162700000Y-103100000D01*
X162700000Y-82900000D02*
X162000000Y-82900000D01*
X162000000Y-82900000D02*
X161100000Y-82000000D01*
X161100000Y-82000000D02*
X161100000Y-80700000D01*
D26*
%TO.N,+5V*%
X134590000Y-84250000D02*
X149833998Y-84250000D01*
X134340000Y-121750000D02*
X134340000Y-144250000D01*
X134340000Y-75740000D02*
X134340000Y-121750000D01*
D25*
X134340000Y-84000000D02*
X134340000Y-76000000D01*
D26*
X129100000Y-66300000D02*
X129100000Y-70500000D01*
X129100000Y-70500000D02*
X134340000Y-75740000D01*
X134340000Y-75740000D02*
X134340000Y-76000000D01*
D25*
X164200000Y-82900000D02*
X164200000Y-83435002D01*
X164200000Y-83435002D02*
X163385002Y-84250000D01*
X163385002Y-84250000D02*
X153550000Y-84250000D01*
X153550000Y-84250000D02*
X150350000Y-84250000D01*
X134340000Y-121750000D02*
X134340000Y-84000000D01*
X150350000Y-84250000D02*
X134590000Y-84250000D01*
X134590000Y-84250000D02*
X134340000Y-84000000D01*
X164200000Y-82900000D02*
X164200000Y-80800000D01*
X164200000Y-80800000D02*
X164100000Y-80700000D01*
%TO.N,/DATA1*%
X150350000Y-99250000D02*
X157149996Y-99250000D01*
X157149996Y-99250000D02*
X157200000Y-99300004D01*
%TO.N,/DATA0*%
X154600000Y-96750000D02*
X154650000Y-96800000D01*
X150350000Y-96750000D02*
X154600000Y-96750000D01*
%TO.N,/Read_Hold*%
X158965685Y-118199998D02*
X158400000Y-118199998D01*
X177000000Y-132800000D02*
X177000000Y-121100000D01*
X177000000Y-121100000D02*
X174099998Y-118199998D01*
X167400000Y-142400000D02*
X177000000Y-132800000D01*
X153970000Y-142400000D02*
X167400000Y-142400000D01*
X152120000Y-144250000D02*
X153970000Y-142400000D01*
X174099998Y-118199998D02*
X158965685Y-118199998D01*
X153852930Y-94250000D02*
X158400000Y-98797070D01*
X158400000Y-98797070D02*
X158400000Y-99300000D01*
X150350000Y-94250000D02*
X153852930Y-94250000D01*
%TO.N,/Beeper*%
X180600033Y-119608820D02*
X175541213Y-114550000D01*
X176100000Y-146100000D02*
X180600033Y-141599967D01*
X157200000Y-144250000D02*
X159050000Y-146100000D01*
X162565685Y-114550000D02*
X162000000Y-114550000D01*
X159050000Y-146100000D02*
X176100000Y-146100000D01*
X175541213Y-114550000D02*
X162565685Y-114550000D01*
X180600033Y-141599967D02*
X180600033Y-119608820D01*
X151950000Y-86750000D02*
X161999992Y-96799992D01*
X150350000Y-86750000D02*
X151950000Y-86750000D01*
X161999992Y-96799992D02*
X162000000Y-96799992D01*
%TO.N,/Red_LED*%
X161365685Y-115750000D02*
X160800000Y-115750000D01*
X179400022Y-120105880D02*
X175044142Y-115750000D01*
X179400022Y-137289978D02*
X179400022Y-120105880D01*
X175044142Y-115750000D02*
X161365685Y-115750000D01*
X172440000Y-144250000D02*
X179400022Y-137289978D01*
X150350000Y-89250000D02*
X152250000Y-89250000D01*
X160800000Y-97800000D02*
X160800000Y-98734315D01*
X152250000Y-89250000D02*
X160800000Y-97800000D01*
X160800000Y-98734315D02*
X160800000Y-99300000D01*
%TO.N,/Green_LED*%
X160165685Y-116999992D02*
X159600000Y-116999992D01*
X174597063Y-116999992D02*
X160165685Y-116999992D01*
X178200011Y-133409989D02*
X178200011Y-120602940D01*
X178200011Y-120602940D02*
X174597063Y-116999992D01*
X167360000Y-144250000D02*
X178200011Y-133409989D01*
X159600000Y-98300000D02*
X159600000Y-98734315D01*
X153050000Y-91750000D02*
X159600000Y-98300000D01*
X150350000Y-91750000D02*
X153050000Y-91750000D01*
X159600000Y-98734315D02*
X159600000Y-99300000D01*
%TO.N,/Interlock_H*%
X170770000Y-100000000D02*
X171550000Y-100000000D01*
X171550000Y-100000000D02*
X172700000Y-98850000D01*
X172700000Y-98850000D02*
X172700000Y-87865685D01*
X172700000Y-87865685D02*
X172700000Y-87300000D01*
X172250000Y-58650000D02*
X172250000Y-79755000D01*
X172250000Y-79755000D02*
X171405000Y-80600000D01*
%TO.N,/Interlock_L*%
X168230000Y-100000000D02*
X168200000Y-100000000D01*
X168200000Y-100000000D02*
X166300000Y-98100000D01*
X166300000Y-98100000D02*
X166300000Y-96165685D01*
X166300000Y-96165685D02*
X166300000Y-95600000D01*
X167500000Y-79815683D02*
X167500000Y-79249998D01*
X167500000Y-80505000D02*
X167500000Y-79815683D01*
X167595000Y-80600000D02*
X167500000Y-80505000D01*
X167595000Y-80600000D02*
X167595000Y-78105000D01*
X167595000Y-78105000D02*
X169750000Y-75950000D01*
X169750000Y-75950000D02*
X169750000Y-58650000D01*
%TO.N,/MotorX_L*%
X172200011Y-82099989D02*
X188250000Y-66050000D01*
X188250000Y-61850000D02*
X188250000Y-58650000D01*
X168900011Y-82099989D02*
X172200011Y-82099989D01*
X167595000Y-83405000D02*
X168900011Y-82099989D01*
X188250000Y-66050000D02*
X188250000Y-61850000D01*
X168799987Y-82499999D02*
X168900000Y-82399986D01*
X168499999Y-82499999D02*
X168799987Y-82499999D01*
X167595000Y-86000000D02*
X167595000Y-83405000D01*
X167595000Y-86000000D02*
X167595000Y-85500000D01*
X167595000Y-85500000D02*
X167595000Y-85000000D01*
X164250000Y-85500000D02*
X167595000Y-85500000D01*
X167595000Y-85000000D02*
X167595000Y-83405000D01*
X168865000Y-90500000D02*
X168865000Y-89152070D01*
%TO.N,/MotorX_H*%
X164250000Y-88000000D02*
X168200000Y-88000000D01*
X168200000Y-88000000D02*
X168865000Y-87335000D01*
X168865000Y-87335000D02*
X168865000Y-86000000D01*
X190750000Y-65247071D02*
X190750000Y-61850000D01*
X168865000Y-84582071D02*
X170147071Y-83300000D01*
X168865000Y-86000000D02*
X168865000Y-84582071D01*
X190750000Y-61850000D02*
X190750000Y-58650000D01*
X170147071Y-83300000D02*
X172697071Y-83300000D01*
X172697071Y-83300000D02*
X190750000Y-65247071D01*
%TO.N,/Interlock_Safe*%
X168769998Y-108800000D02*
X174434315Y-108800000D01*
X167100009Y-102297061D02*
X167000000Y-102397070D01*
X164250000Y-100500000D02*
X166297071Y-100500000D01*
X174434315Y-108800000D02*
X175000000Y-108800000D01*
X167000000Y-102397070D02*
X167000000Y-107030002D01*
X167100010Y-101302939D02*
X167100009Y-102297061D01*
X166297071Y-100500000D02*
X167100010Y-101302939D01*
X167000000Y-107030002D02*
X168769998Y-108800000D01*
%TO.N,/MotorY_Safe*%
X170100002Y-96934315D02*
X170100002Y-97500000D01*
X170135000Y-95900000D02*
X170100002Y-95934998D01*
X170100002Y-95934998D02*
X170100002Y-96934315D01*
%TO.N,/MotorX_Safe*%
X170100000Y-107600000D02*
X171834315Y-107600000D01*
X168865000Y-95900000D02*
X168865000Y-97962071D01*
X171834315Y-107600000D02*
X172400000Y-107600000D01*
X169500000Y-107000000D02*
X170100000Y-107600000D01*
X169500000Y-98597071D02*
X169500000Y-107000000D01*
X168865000Y-97962071D02*
X169500000Y-98597071D01*
%TO.N,/MotorY_L*%
X170644131Y-84500011D02*
X173194131Y-84500011D01*
X173194131Y-84500011D02*
X193250000Y-64444142D01*
X193250000Y-64444142D02*
X193250000Y-61850000D01*
X193250000Y-61850000D02*
X193250000Y-58650000D01*
X170135000Y-85009142D02*
X170644131Y-84500011D01*
X170135000Y-86000000D02*
X170135000Y-85009142D01*
X164250000Y-90500000D02*
X165000000Y-90500000D01*
X165000000Y-90500000D02*
X166475001Y-91975001D01*
X166475001Y-91975001D02*
X169725001Y-91975001D01*
X169725001Y-91975001D02*
X170135000Y-91565002D01*
X170135000Y-91565002D02*
X170135000Y-90500000D01*
X170135000Y-86000000D02*
X170135000Y-89693004D01*
X170135000Y-89693004D02*
X170135000Y-90500000D01*
%TO.N,/MotorY_H*%
X167634315Y-93200000D02*
X168200000Y-93200000D01*
X164250000Y-93000000D02*
X165500000Y-93000000D01*
X165699978Y-93199978D02*
X167634293Y-93199978D01*
X167634293Y-93199978D02*
X167634315Y-93200000D01*
X165500000Y-93000000D02*
X165699978Y-93199978D01*
X171405000Y-88795000D02*
X171400000Y-88800000D01*
X171405000Y-86000000D02*
X171405000Y-88795000D01*
X195750000Y-61850000D02*
X195750000Y-58650000D01*
X171405000Y-86000000D02*
X173391213Y-86000000D01*
X173391213Y-86000000D02*
X195750000Y-63641213D01*
X195750000Y-63641213D02*
X195750000Y-61850000D01*
%TO.N,Net-(R1-Pad2)*%
X162700000Y-100450000D02*
X162700000Y-99100000D01*
X162700000Y-99100000D02*
X162700000Y-98050000D01*
X162734315Y-99100000D02*
X162700000Y-99100000D01*
X163300000Y-99100000D02*
X162734315Y-99100000D01*
X162700000Y-98050000D02*
X162750000Y-98000000D01*
X168250000Y-104500000D02*
X168250000Y-105980000D01*
X168250000Y-105980000D02*
X168230000Y-106000000D01*
%TO.N,Net-(R3-Pad2)*%
X162750000Y-88000000D02*
X162750000Y-88460002D01*
X163589988Y-89299990D02*
X167399990Y-89299990D01*
X167595000Y-89495000D02*
X167595000Y-90500000D01*
X162750000Y-88460002D02*
X163589988Y-89299990D01*
X167399990Y-89299990D02*
X167595000Y-89495000D01*
X162750000Y-85500000D02*
X162750000Y-88000000D01*
%TO.N,Net-(R4-Pad1)*%
X162750000Y-93000000D02*
X162750000Y-93197071D01*
X163752940Y-94200011D02*
X165002940Y-94200011D01*
X169279989Y-94400011D02*
X171405000Y-92275000D01*
X166697082Y-94400011D02*
X169279989Y-94400011D01*
X162750000Y-93197071D02*
X163752940Y-94200011D01*
X166697060Y-94399989D02*
X166697082Y-94400011D01*
X165002940Y-94200011D02*
X165202918Y-94399989D01*
X165202918Y-94399989D02*
X166697060Y-94399989D01*
X171405000Y-92275000D02*
X171405000Y-90500000D01*
X162750000Y-93000000D02*
X162750000Y-90500000D01*
%TO.N,/Relay*%
X148700000Y-61800000D02*
X148700000Y-58750000D01*
X159740000Y-121750000D02*
X157740000Y-119750000D01*
X157740000Y-119750000D02*
X148700000Y-119750000D01*
%TD*%
D27*
%TO.N,GND*%
G36*
X209265001Y-149265000D02*
X110735000Y-149265000D01*
X110735000Y-144555431D01*
X112765000Y-144555431D01*
X112765000Y-145444569D01*
X113105259Y-146266026D01*
X113733974Y-146894741D01*
X114555431Y-147235000D01*
X115444569Y-147235000D01*
X116266026Y-146894741D01*
X116894741Y-146266026D01*
X117235000Y-145444569D01*
X117235000Y-144555431D01*
X117226848Y-144535750D01*
X130315000Y-144535750D01*
X130315000Y-145226309D01*
X130411673Y-145459698D01*
X130590301Y-145638327D01*
X130823690Y-145735000D01*
X131514250Y-145735000D01*
X131673000Y-145576250D01*
X131673000Y-144377000D01*
X130473750Y-144377000D01*
X130315000Y-144535750D01*
X117226848Y-144535750D01*
X116894741Y-143733974D01*
X116434458Y-143273691D01*
X130315000Y-143273691D01*
X130315000Y-143964250D01*
X130473750Y-144123000D01*
X131673000Y-144123000D01*
X131673000Y-142923750D01*
X131514250Y-142765000D01*
X130823690Y-142765000D01*
X130590301Y-142861673D01*
X130411673Y-143040302D01*
X130315000Y-143273691D01*
X116434458Y-143273691D01*
X116266026Y-143105259D01*
X115444569Y-142765000D01*
X114555431Y-142765000D01*
X113733974Y-143105259D01*
X113105259Y-143733974D01*
X112765000Y-144555431D01*
X110735000Y-144555431D01*
X110735000Y-121521279D01*
X130303282Y-121521279D01*
X130329685Y-122111458D01*
X130504741Y-122534080D01*
X130756042Y-122614353D01*
X131620395Y-121750000D01*
X130756042Y-120885647D01*
X130504741Y-120965920D01*
X130303282Y-121521279D01*
X110735000Y-121521279D01*
X110735000Y-92525594D01*
X125615000Y-92525594D01*
X125615000Y-93474406D01*
X125978095Y-94350994D01*
X126649006Y-95021905D01*
X127525594Y-95385000D01*
X128474406Y-95385000D01*
X129350994Y-95021905D01*
X130021905Y-94350994D01*
X130385000Y-93474406D01*
X130385000Y-92525594D01*
X130021905Y-91649006D01*
X129350994Y-90978095D01*
X128474406Y-90615000D01*
X127525594Y-90615000D01*
X126649006Y-90978095D01*
X125978095Y-91649006D01*
X125615000Y-92525594D01*
X110735000Y-92525594D01*
X110735000Y-64100000D01*
X126802560Y-64100000D01*
X126802560Y-68500000D01*
X126851843Y-68747765D01*
X126992191Y-68957809D01*
X127202235Y-69098157D01*
X127450000Y-69147440D01*
X127465001Y-69147440D01*
X127465001Y-70338966D01*
X127432969Y-70500000D01*
X127559865Y-71137945D01*
X127921232Y-71678769D01*
X128057748Y-71769986D01*
X132705000Y-76417239D01*
X132705001Y-120665391D01*
X132664352Y-120706040D01*
X132584080Y-120454741D01*
X132028721Y-120253282D01*
X131438542Y-120279685D01*
X131015920Y-120454741D01*
X130935647Y-120706042D01*
X131800000Y-121570395D01*
X131814143Y-121556253D01*
X131993748Y-121735858D01*
X131979605Y-121750000D01*
X131993748Y-121764143D01*
X131814143Y-121943748D01*
X131800000Y-121929605D01*
X130935647Y-122793958D01*
X131015920Y-123045259D01*
X131571279Y-123246718D01*
X132161458Y-123220315D01*
X132584080Y-123045259D01*
X132664352Y-122793960D01*
X132705000Y-122834608D01*
X132705001Y-142765000D01*
X132085750Y-142765000D01*
X131927000Y-142923750D01*
X131927000Y-144123000D01*
X131947000Y-144123000D01*
X131947000Y-144377000D01*
X131927000Y-144377000D01*
X131927000Y-145576250D01*
X132085750Y-145735000D01*
X132776310Y-145735000D01*
X133009699Y-145638327D01*
X133188327Y-145459698D01*
X133192488Y-145449653D01*
X133702056Y-145790136D01*
X134340000Y-145917031D01*
X134977945Y-145790136D01*
X135518769Y-145428769D01*
X135700202Y-145157236D01*
X135809375Y-145320625D01*
X136300582Y-145648839D01*
X136733744Y-145735000D01*
X137026256Y-145735000D01*
X137459418Y-145648839D01*
X137950625Y-145320625D01*
X138163843Y-145001522D01*
X138224817Y-145131358D01*
X138653076Y-145521645D01*
X139063110Y-145691476D01*
X139293000Y-145570155D01*
X139293000Y-144377000D01*
X139273000Y-144377000D01*
X139273000Y-144123000D01*
X139293000Y-144123000D01*
X139293000Y-142929845D01*
X139063110Y-142808524D01*
X138653076Y-142978355D01*
X138224817Y-143368642D01*
X138163843Y-143498478D01*
X138015000Y-143275719D01*
X138015000Y-122724281D01*
X138150000Y-122522239D01*
X138349375Y-122820625D01*
X138840582Y-123148839D01*
X139273744Y-123235000D01*
X139566256Y-123235000D01*
X139999418Y-123148839D01*
X140490625Y-122820625D01*
X140690000Y-122522239D01*
X140889375Y-122820625D01*
X141380582Y-123148839D01*
X141813744Y-123235000D01*
X142106256Y-123235000D01*
X142539418Y-123148839D01*
X143030625Y-122820625D01*
X143230000Y-122522239D01*
X143429375Y-122820625D01*
X143920582Y-123148839D01*
X144353744Y-123235000D01*
X144646256Y-123235000D01*
X145079418Y-123148839D01*
X145570625Y-122820625D01*
X145770000Y-122522239D01*
X145969375Y-122820625D01*
X146460582Y-123148839D01*
X146893744Y-123235000D01*
X147186256Y-123235000D01*
X147619418Y-123148839D01*
X148110625Y-122820625D01*
X148310000Y-122522239D01*
X148509375Y-122820625D01*
X149000582Y-123148839D01*
X149433744Y-123235000D01*
X149726256Y-123235000D01*
X150159418Y-123148839D01*
X150650625Y-122820625D01*
X150850000Y-122522239D01*
X151049375Y-122820625D01*
X151540582Y-123148839D01*
X151973744Y-123235000D01*
X152266256Y-123235000D01*
X152699418Y-123148839D01*
X153190625Y-122820625D01*
X153390000Y-122522239D01*
X153589375Y-122820625D01*
X154080582Y-123148839D01*
X154513744Y-123235000D01*
X154806256Y-123235000D01*
X155239418Y-123148839D01*
X155730625Y-122820625D01*
X155930000Y-122522239D01*
X156129375Y-122820625D01*
X156620582Y-123148839D01*
X157053744Y-123235000D01*
X157346256Y-123235000D01*
X157779418Y-123148839D01*
X158270625Y-122820625D01*
X158470000Y-122522239D01*
X158669375Y-122820625D01*
X159160582Y-123148839D01*
X159593744Y-123235000D01*
X159886256Y-123235000D01*
X160319418Y-123148839D01*
X160810625Y-122820625D01*
X161010000Y-122522239D01*
X161209375Y-122820625D01*
X161700582Y-123148839D01*
X162133744Y-123235000D01*
X162426256Y-123235000D01*
X162859418Y-123148839D01*
X163350625Y-122820625D01*
X163550000Y-122522239D01*
X163749375Y-122820625D01*
X164240582Y-123148839D01*
X164673744Y-123235000D01*
X164966256Y-123235000D01*
X165399418Y-123148839D01*
X165890625Y-122820625D01*
X166090000Y-122522239D01*
X166289375Y-122820625D01*
X166780582Y-123148839D01*
X167213744Y-123235000D01*
X167506256Y-123235000D01*
X167939418Y-123148839D01*
X168430625Y-122820625D01*
X168630000Y-122522239D01*
X168829375Y-122820625D01*
X169320582Y-123148839D01*
X169753744Y-123235000D01*
X170046256Y-123235000D01*
X170479418Y-123148839D01*
X170970625Y-122820625D01*
X171170000Y-122522239D01*
X171369375Y-122820625D01*
X171860582Y-123148839D01*
X172293744Y-123235000D01*
X172586256Y-123235000D01*
X173019418Y-123148839D01*
X173510625Y-122820625D01*
X173710000Y-122522239D01*
X173909375Y-122820625D01*
X174400582Y-123148839D01*
X174833744Y-123235000D01*
X175126256Y-123235000D01*
X175559418Y-123148839D01*
X175865001Y-122944655D01*
X175865000Y-132329868D01*
X166929869Y-141265000D01*
X154081782Y-141265000D01*
X153969999Y-141242765D01*
X153527145Y-141330854D01*
X153151711Y-141581711D01*
X153088389Y-141676479D01*
X151999869Y-142765000D01*
X151973744Y-142765000D01*
X151540582Y-142851161D01*
X151049375Y-143179375D01*
X150850000Y-143477761D01*
X150650625Y-143179375D01*
X150159418Y-142851161D01*
X149726256Y-142765000D01*
X149433744Y-142765000D01*
X149000582Y-142851161D01*
X148509375Y-143179375D01*
X148310000Y-143477761D01*
X148110625Y-143179375D01*
X147619418Y-142851161D01*
X147186256Y-142765000D01*
X146893744Y-142765000D01*
X146460582Y-142851161D01*
X145969375Y-143179375D01*
X145770000Y-143477761D01*
X145570625Y-143179375D01*
X145079418Y-142851161D01*
X144646256Y-142765000D01*
X144353744Y-142765000D01*
X143920582Y-142851161D01*
X143429375Y-143179375D01*
X143230000Y-143477761D01*
X143030625Y-143179375D01*
X142539418Y-142851161D01*
X142106256Y-142765000D01*
X141813744Y-142765000D01*
X141380582Y-142851161D01*
X140889375Y-143179375D01*
X140676157Y-143498478D01*
X140615183Y-143368642D01*
X140186924Y-142978355D01*
X139776890Y-142808524D01*
X139547000Y-142929845D01*
X139547000Y-144123000D01*
X139567000Y-144123000D01*
X139567000Y-144377000D01*
X139547000Y-144377000D01*
X139547000Y-145570155D01*
X139776890Y-145691476D01*
X140186924Y-145521645D01*
X140615183Y-145131358D01*
X140676157Y-145001522D01*
X140889375Y-145320625D01*
X141380582Y-145648839D01*
X141813744Y-145735000D01*
X142106256Y-145735000D01*
X142539418Y-145648839D01*
X143030625Y-145320625D01*
X143230000Y-145022239D01*
X143429375Y-145320625D01*
X143920582Y-145648839D01*
X144353744Y-145735000D01*
X144646256Y-145735000D01*
X145079418Y-145648839D01*
X145570625Y-145320625D01*
X145770000Y-145022239D01*
X145969375Y-145320625D01*
X146460582Y-145648839D01*
X146893744Y-145735000D01*
X147186256Y-145735000D01*
X147619418Y-145648839D01*
X148110625Y-145320625D01*
X148310000Y-145022239D01*
X148509375Y-145320625D01*
X149000582Y-145648839D01*
X149433744Y-145735000D01*
X149726256Y-145735000D01*
X150159418Y-145648839D01*
X150650625Y-145320625D01*
X150850000Y-145022239D01*
X151049375Y-145320625D01*
X151540582Y-145648839D01*
X151973744Y-145735000D01*
X152266256Y-145735000D01*
X152699418Y-145648839D01*
X153190625Y-145320625D01*
X153390000Y-145022239D01*
X153589375Y-145320625D01*
X154080582Y-145648839D01*
X154513744Y-145735000D01*
X154806256Y-145735000D01*
X155239418Y-145648839D01*
X155730625Y-145320625D01*
X155930000Y-145022239D01*
X156129375Y-145320625D01*
X156620582Y-145648839D01*
X157053744Y-145735000D01*
X157079869Y-145735000D01*
X158168389Y-146823521D01*
X158231711Y-146918289D01*
X158607145Y-147169146D01*
X159049999Y-147257235D01*
X159161782Y-147235000D01*
X175988217Y-147235000D01*
X176100000Y-147257235D01*
X176211783Y-147235000D01*
X176542855Y-147169146D01*
X176918289Y-146918289D01*
X176981613Y-146823518D01*
X179249700Y-144555431D01*
X202765000Y-144555431D01*
X202765000Y-145444569D01*
X203105259Y-146266026D01*
X203733974Y-146894741D01*
X204555431Y-147235000D01*
X205444569Y-147235000D01*
X206266026Y-146894741D01*
X206894741Y-146266026D01*
X207235000Y-145444569D01*
X207235000Y-144555431D01*
X206894741Y-143733974D01*
X206266026Y-143105259D01*
X205444569Y-142765000D01*
X204555431Y-142765000D01*
X203733974Y-143105259D01*
X203105259Y-143733974D01*
X202765000Y-144555431D01*
X179249700Y-144555431D01*
X181323555Y-142481577D01*
X181418322Y-142418256D01*
X181669179Y-142042822D01*
X181735033Y-141711750D01*
X181735033Y-141711749D01*
X181757268Y-141599967D01*
X181735033Y-141488184D01*
X181735033Y-119720603D01*
X181757268Y-119608820D01*
X181669179Y-119165965D01*
X181610021Y-119077429D01*
X181418322Y-118790531D01*
X181323554Y-118727209D01*
X176422826Y-113826482D01*
X176359502Y-113731711D01*
X175984068Y-113480854D01*
X175652996Y-113415000D01*
X175541213Y-113392765D01*
X175429430Y-113415000D01*
X161888217Y-113415000D01*
X161557145Y-113480854D01*
X161181711Y-113731711D01*
X160930854Y-114107145D01*
X160842765Y-114550000D01*
X160855694Y-114615000D01*
X160688217Y-114615000D01*
X160357145Y-114680854D01*
X159981711Y-114931711D01*
X159730854Y-115307145D01*
X159642765Y-115750000D01*
X159665638Y-115864992D01*
X159488217Y-115864992D01*
X159157145Y-115930846D01*
X158781711Y-116181703D01*
X158530854Y-116557137D01*
X158442765Y-116999992D01*
X158455695Y-117064998D01*
X158288217Y-117064998D01*
X157957145Y-117130852D01*
X157581711Y-117381709D01*
X157330854Y-117757143D01*
X157242765Y-118199998D01*
X157325314Y-118615000D01*
X155390131Y-118615000D01*
X164823521Y-109181611D01*
X164918289Y-109118289D01*
X165169146Y-108742855D01*
X165235000Y-108411783D01*
X165257235Y-108300000D01*
X165235000Y-108188217D01*
X165235000Y-106162541D01*
X165247440Y-106100000D01*
X165247440Y-104500000D01*
X165235000Y-104437459D01*
X165235000Y-104235000D01*
X165511783Y-104235000D01*
X165842855Y-104169146D01*
X165865000Y-104154349D01*
X165865001Y-106918214D01*
X165842765Y-107030002D01*
X165930854Y-107472856D01*
X165996085Y-107570480D01*
X166181712Y-107848291D01*
X166276480Y-107911613D01*
X167888387Y-109523521D01*
X167951709Y-109618289D01*
X168276040Y-109835000D01*
X168327143Y-109869146D01*
X168769997Y-109957235D01*
X168881780Y-109935000D01*
X175111783Y-109935000D01*
X175442855Y-109869146D01*
X175818289Y-109618289D01*
X176069146Y-109242855D01*
X176157235Y-108800000D01*
X176069146Y-108357145D01*
X175818289Y-107981711D01*
X175442855Y-107730854D01*
X175111783Y-107665000D01*
X173544306Y-107665000D01*
X173557235Y-107600000D01*
X173469146Y-107157145D01*
X173218289Y-106781711D01*
X172842855Y-106530854D01*
X172511783Y-106465000D01*
X171805000Y-106465000D01*
X171805000Y-106285750D01*
X171646250Y-106127000D01*
X170897000Y-106127000D01*
X170897000Y-106147000D01*
X170643000Y-106147000D01*
X170643000Y-106127000D01*
X170635000Y-106127000D01*
X170635000Y-105873000D01*
X170643000Y-105873000D01*
X170643000Y-104923750D01*
X170897000Y-104923750D01*
X170897000Y-105873000D01*
X171646250Y-105873000D01*
X171805000Y-105714250D01*
X171805000Y-105273690D01*
X171708327Y-105040301D01*
X171529698Y-104861673D01*
X171296309Y-104765000D01*
X171055750Y-104765000D01*
X170897000Y-104923750D01*
X170643000Y-104923750D01*
X170635000Y-104915750D01*
X170635000Y-101247440D01*
X171170000Y-101247440D01*
X171417765Y-101198157D01*
X171495294Y-101146353D01*
X171550000Y-101157235D01*
X171661783Y-101135000D01*
X171992855Y-101069146D01*
X172368289Y-100818289D01*
X172431613Y-100723518D01*
X173423521Y-99731611D01*
X173518289Y-99668289D01*
X173769146Y-99292855D01*
X173808675Y-99094130D01*
X173857235Y-98850000D01*
X173835000Y-98738217D01*
X173835000Y-92525594D01*
X189615000Y-92525594D01*
X189615000Y-93474406D01*
X189978095Y-94350994D01*
X190649006Y-95021905D01*
X191525594Y-95385000D01*
X192474406Y-95385000D01*
X193350994Y-95021905D01*
X194021905Y-94350994D01*
X194385000Y-93474406D01*
X194385000Y-92525594D01*
X194021905Y-91649006D01*
X193350994Y-90978095D01*
X192474406Y-90615000D01*
X191525594Y-90615000D01*
X190649006Y-90978095D01*
X189978095Y-91649006D01*
X189615000Y-92525594D01*
X173835000Y-92525594D01*
X173835000Y-87188218D01*
X173812181Y-87073500D01*
X173834068Y-87069146D01*
X174209502Y-86818289D01*
X174272826Y-86723518D01*
X196473522Y-64522823D01*
X196568289Y-64459502D01*
X196819146Y-64084068D01*
X196885000Y-63752996D01*
X196885000Y-63752995D01*
X196907235Y-63641213D01*
X196885000Y-63529430D01*
X196885000Y-61192285D01*
X196948157Y-61097765D01*
X196997440Y-60850000D01*
X196997440Y-59185000D01*
X197375766Y-59185000D01*
X197455016Y-59152174D01*
X197492191Y-59207809D01*
X197702235Y-59348157D01*
X197950000Y-59397440D01*
X200150000Y-59397440D01*
X200397765Y-59348157D01*
X200607809Y-59207809D01*
X200748157Y-58997765D01*
X200797440Y-58750000D01*
X200797440Y-54555431D01*
X202665000Y-54555431D01*
X202665000Y-55444569D01*
X203005259Y-56266026D01*
X203633974Y-56894741D01*
X204455431Y-57235000D01*
X205344569Y-57235000D01*
X206166026Y-56894741D01*
X206794741Y-56266026D01*
X207135000Y-55444569D01*
X207135000Y-54555431D01*
X206794741Y-53733974D01*
X206166026Y-53105259D01*
X205344569Y-52765000D01*
X204455431Y-52765000D01*
X203633974Y-53105259D01*
X203005259Y-53733974D01*
X202665000Y-54555431D01*
X200797440Y-54555431D01*
X200797440Y-53150000D01*
X200748157Y-52902235D01*
X200607809Y-52692191D01*
X200397765Y-52551843D01*
X200150000Y-52502560D01*
X197950000Y-52502560D01*
X197702235Y-52551843D01*
X197492191Y-52692191D01*
X197351843Y-52902235D01*
X197302560Y-53150000D01*
X197302560Y-56915000D01*
X196997440Y-56915000D01*
X196997440Y-56450000D01*
X196948157Y-56202235D01*
X196807809Y-55992191D01*
X196597765Y-55851843D01*
X196350000Y-55802560D01*
X195150000Y-55802560D01*
X194902235Y-55851843D01*
X194692191Y-55992191D01*
X194551843Y-56202235D01*
X194502560Y-56450000D01*
X194502560Y-60850000D01*
X194551843Y-61097765D01*
X194615000Y-61192286D01*
X194615000Y-61961782D01*
X194615001Y-61961786D01*
X194615000Y-63171081D01*
X194385000Y-63401081D01*
X194385000Y-61192285D01*
X194448157Y-61097765D01*
X194497440Y-60850000D01*
X194497440Y-56450000D01*
X194448157Y-56202235D01*
X194307809Y-55992191D01*
X194097765Y-55851843D01*
X193850000Y-55802560D01*
X192650000Y-55802560D01*
X192402235Y-55851843D01*
X192192191Y-55992191D01*
X192051843Y-56202235D01*
X192002560Y-56450000D01*
X192002560Y-60850000D01*
X192051843Y-61097765D01*
X192115000Y-61192286D01*
X192115000Y-61961782D01*
X192115001Y-61961787D01*
X192115000Y-63974010D01*
X191885000Y-64204010D01*
X191885000Y-61192285D01*
X191948157Y-61097765D01*
X191997440Y-60850000D01*
X191997440Y-56450000D01*
X191948157Y-56202235D01*
X191807809Y-55992191D01*
X191597765Y-55851843D01*
X191350000Y-55802560D01*
X190150000Y-55802560D01*
X189902235Y-55851843D01*
X189692191Y-55992191D01*
X189551843Y-56202235D01*
X189502560Y-56450000D01*
X189502560Y-60850000D01*
X189551843Y-61097765D01*
X189615000Y-61192286D01*
X189615000Y-61961782D01*
X189615001Y-61961787D01*
X189615000Y-64776939D01*
X189385000Y-65006939D01*
X189385000Y-61192285D01*
X189448157Y-61097765D01*
X189497440Y-60850000D01*
X189497440Y-56450000D01*
X189448157Y-56202235D01*
X189307809Y-55992191D01*
X189097765Y-55851843D01*
X188850000Y-55802560D01*
X187650000Y-55802560D01*
X187402235Y-55851843D01*
X187192191Y-55992191D01*
X187051843Y-56202235D01*
X187002560Y-56450000D01*
X187002560Y-56915000D01*
X186697440Y-56915000D01*
X186697440Y-53150000D01*
X186648157Y-52902235D01*
X186507809Y-52692191D01*
X186297765Y-52551843D01*
X186050000Y-52502560D01*
X183850000Y-52502560D01*
X183602235Y-52551843D01*
X183392191Y-52692191D01*
X183251843Y-52902235D01*
X183202560Y-53150000D01*
X183202560Y-58750000D01*
X183251843Y-58997765D01*
X183392191Y-59207809D01*
X183602235Y-59348157D01*
X183850000Y-59397440D01*
X186050000Y-59397440D01*
X186297765Y-59348157D01*
X186507809Y-59207809D01*
X186544984Y-59152174D01*
X186624234Y-59185000D01*
X187002560Y-59185000D01*
X187002560Y-60850000D01*
X187051843Y-61097765D01*
X187115000Y-61192286D01*
X187115000Y-61961782D01*
X187115001Y-61961787D01*
X187115000Y-65579868D01*
X173385000Y-79309869D01*
X173385000Y-61192285D01*
X173448157Y-61097765D01*
X173497440Y-60850000D01*
X173497440Y-59185000D01*
X173875766Y-59185000D01*
X173955016Y-59152174D01*
X173992191Y-59207809D01*
X174202235Y-59348157D01*
X174450000Y-59397440D01*
X176650000Y-59397440D01*
X176897765Y-59348157D01*
X177107809Y-59207809D01*
X177248157Y-58997765D01*
X177297440Y-58750000D01*
X177297440Y-53150000D01*
X177248157Y-52902235D01*
X177107809Y-52692191D01*
X176897765Y-52551843D01*
X176650000Y-52502560D01*
X174450000Y-52502560D01*
X174202235Y-52551843D01*
X173992191Y-52692191D01*
X173851843Y-52902235D01*
X173802560Y-53150000D01*
X173802560Y-56915000D01*
X173497440Y-56915000D01*
X173497440Y-56450000D01*
X173448157Y-56202235D01*
X173307809Y-55992191D01*
X173097765Y-55851843D01*
X172850000Y-55802560D01*
X171650000Y-55802560D01*
X171402235Y-55851843D01*
X171192191Y-55992191D01*
X171051843Y-56202235D01*
X171002560Y-56450000D01*
X171002560Y-60850000D01*
X171051843Y-61097765D01*
X171115000Y-61192286D01*
X171115001Y-79177560D01*
X171105000Y-79177560D01*
X170857235Y-79226843D01*
X170778028Y-79279768D01*
X170561310Y-79190000D01*
X170420750Y-79190000D01*
X170262000Y-79348750D01*
X170262000Y-80473000D01*
X170273027Y-80473000D01*
X170247765Y-80600000D01*
X170273027Y-80727000D01*
X170262000Y-80727000D01*
X170262000Y-80747000D01*
X170008000Y-80747000D01*
X170008000Y-80727000D01*
X168992000Y-80727000D01*
X168992000Y-80747000D01*
X168738000Y-80747000D01*
X168738000Y-80727000D01*
X168726973Y-80727000D01*
X168730000Y-80711783D01*
X168730000Y-80711781D01*
X168752235Y-80599999D01*
X168730000Y-80488217D01*
X168730000Y-80473000D01*
X168738000Y-80473000D01*
X168738000Y-79348750D01*
X168992000Y-79348750D01*
X168992000Y-80473000D01*
X170008000Y-80473000D01*
X170008000Y-79348750D01*
X169849250Y-79190000D01*
X169708690Y-79190000D01*
X169500000Y-79276442D01*
X169291310Y-79190000D01*
X169150750Y-79190000D01*
X168992000Y-79348750D01*
X168738000Y-79348750D01*
X168730000Y-79340750D01*
X168730000Y-78575131D01*
X170473521Y-76831611D01*
X170568289Y-76768289D01*
X170819146Y-76392855D01*
X170885000Y-76061783D01*
X170885000Y-76061782D01*
X170907235Y-75950001D01*
X170885000Y-75838219D01*
X170885000Y-61192285D01*
X170948157Y-61097765D01*
X170997440Y-60850000D01*
X170997440Y-56450000D01*
X170948157Y-56202235D01*
X170807809Y-55992191D01*
X170597765Y-55851843D01*
X170350000Y-55802560D01*
X169150000Y-55802560D01*
X168902235Y-55851843D01*
X168692191Y-55992191D01*
X168551843Y-56202235D01*
X168502560Y-56450000D01*
X168502560Y-56915000D01*
X168197440Y-56915000D01*
X168197440Y-53150000D01*
X168148157Y-52902235D01*
X168007809Y-52692191D01*
X167797765Y-52551843D01*
X167550000Y-52502560D01*
X165350000Y-52502560D01*
X165102235Y-52551843D01*
X164892191Y-52692191D01*
X164751843Y-52902235D01*
X164702560Y-53150000D01*
X164702560Y-58750000D01*
X164751843Y-58997765D01*
X164892191Y-59207809D01*
X165102235Y-59348157D01*
X165350000Y-59397440D01*
X167550000Y-59397440D01*
X167797765Y-59348157D01*
X168007809Y-59207809D01*
X168044984Y-59152174D01*
X168124234Y-59185000D01*
X168502560Y-59185000D01*
X168502560Y-60850000D01*
X168551843Y-61097765D01*
X168615001Y-61192287D01*
X168615000Y-75479868D01*
X166871480Y-77223389D01*
X166776712Y-77286711D01*
X166696317Y-77407031D01*
X166525854Y-77662146D01*
X166437765Y-78105000D01*
X166460001Y-78216788D01*
X166460001Y-78763522D01*
X166430854Y-78807143D01*
X166365000Y-79138215D01*
X166365000Y-80393217D01*
X166342765Y-80505000D01*
X166399455Y-80790000D01*
X166430854Y-80947854D01*
X166647560Y-81272178D01*
X166647560Y-81375000D01*
X166696843Y-81622765D01*
X166837191Y-81832809D01*
X167047235Y-81973157D01*
X167295000Y-82022440D01*
X167372429Y-82022440D01*
X166871480Y-82523389D01*
X166776712Y-82586711D01*
X166618486Y-82823513D01*
X166525854Y-82962146D01*
X166437765Y-83405000D01*
X166460000Y-83516783D01*
X166460000Y-84365000D01*
X164875134Y-84365000D01*
X164923521Y-84316613D01*
X165018289Y-84253291D01*
X165208148Y-83969146D01*
X165269146Y-83877857D01*
X165357235Y-83435003D01*
X165335000Y-83323220D01*
X165335000Y-80911781D01*
X165357235Y-80799999D01*
X165324210Y-80633972D01*
X165269146Y-80357145D01*
X165247440Y-80324660D01*
X165247440Y-79900000D01*
X165198157Y-79652235D01*
X165057809Y-79442191D01*
X164847765Y-79301843D01*
X164600000Y-79252560D01*
X163600000Y-79252560D01*
X163352235Y-79301843D01*
X163142191Y-79442191D01*
X163001843Y-79652235D01*
X162952560Y-79900000D01*
X162952560Y-80650757D01*
X162942765Y-80700000D01*
X162952560Y-80749243D01*
X162952560Y-81500000D01*
X163001843Y-81747765D01*
X163065001Y-81842286D01*
X163065000Y-81890000D01*
X162985750Y-81890000D01*
X162827000Y-82048750D01*
X162827000Y-82773000D01*
X162847000Y-82773000D01*
X162847000Y-83027000D01*
X162827000Y-83027000D01*
X162827000Y-83047000D01*
X162573000Y-83047000D01*
X162573000Y-83027000D01*
X161823750Y-83027000D01*
X161735750Y-83115000D01*
X152892285Y-83115000D01*
X152797765Y-83051843D01*
X152550000Y-83002560D01*
X152085000Y-83002560D01*
X152085000Y-82697440D01*
X155850000Y-82697440D01*
X156097765Y-82648157D01*
X156307809Y-82507809D01*
X156448157Y-82297765D01*
X156497440Y-82050000D01*
X156497440Y-80985750D01*
X159965000Y-80985750D01*
X159965000Y-81626310D01*
X160061673Y-81859699D01*
X160240302Y-82038327D01*
X160473691Y-82135000D01*
X160814250Y-82135000D01*
X160973000Y-81976250D01*
X160973000Y-80827000D01*
X161227000Y-80827000D01*
X161227000Y-81976250D01*
X161385750Y-82135000D01*
X161726309Y-82135000D01*
X161838407Y-82088567D01*
X161761673Y-82165301D01*
X161665000Y-82398690D01*
X161665000Y-82614250D01*
X161823750Y-82773000D01*
X162573000Y-82773000D01*
X162573000Y-82048750D01*
X162414250Y-81890000D01*
X162173691Y-81890000D01*
X162061593Y-81936433D01*
X162138327Y-81859699D01*
X162235000Y-81626310D01*
X162235000Y-80985750D01*
X162076250Y-80827000D01*
X161227000Y-80827000D01*
X160973000Y-80827000D01*
X160123750Y-80827000D01*
X159965000Y-80985750D01*
X156497440Y-80985750D01*
X156497440Y-79850000D01*
X156482262Y-79773690D01*
X159965000Y-79773690D01*
X159965000Y-80414250D01*
X160123750Y-80573000D01*
X160973000Y-80573000D01*
X160973000Y-79423750D01*
X161227000Y-79423750D01*
X161227000Y-80573000D01*
X162076250Y-80573000D01*
X162235000Y-80414250D01*
X162235000Y-79773690D01*
X162138327Y-79540301D01*
X161959698Y-79361673D01*
X161726309Y-79265000D01*
X161385750Y-79265000D01*
X161227000Y-79423750D01*
X160973000Y-79423750D01*
X160814250Y-79265000D01*
X160473691Y-79265000D01*
X160240302Y-79361673D01*
X160061673Y-79540301D01*
X159965000Y-79773690D01*
X156482262Y-79773690D01*
X156448157Y-79602235D01*
X156307809Y-79392191D01*
X156097765Y-79251843D01*
X155850000Y-79202560D01*
X150250000Y-79202560D01*
X150002235Y-79251843D01*
X149792191Y-79392191D01*
X149651843Y-79602235D01*
X149602560Y-79850000D01*
X149602560Y-82050000D01*
X149651843Y-82297765D01*
X149792191Y-82507809D01*
X149847826Y-82544984D01*
X149818825Y-82615000D01*
X135975000Y-82615000D01*
X135975000Y-75901029D01*
X136007031Y-75739999D01*
X135970659Y-75557145D01*
X135880136Y-75102055D01*
X135518769Y-74561231D01*
X135382253Y-74470014D01*
X130735000Y-69822762D01*
X130735000Y-69147440D01*
X130750000Y-69147440D01*
X130997765Y-69098157D01*
X131207809Y-68957809D01*
X131348157Y-68747765D01*
X131397440Y-68500000D01*
X131397440Y-64100000D01*
X131348157Y-63852235D01*
X131207809Y-63642191D01*
X130997765Y-63501843D01*
X130750000Y-63452560D01*
X127450000Y-63452560D01*
X127202235Y-63501843D01*
X126992191Y-63642191D01*
X126851843Y-63852235D01*
X126802560Y-64100000D01*
X110735000Y-64100000D01*
X110735000Y-57585750D01*
X120765000Y-57585750D01*
X120765000Y-60526310D01*
X120861673Y-60759699D01*
X121040302Y-60938327D01*
X121273691Y-61035000D01*
X123064250Y-61035000D01*
X123223000Y-60876250D01*
X123223000Y-57427000D01*
X123477000Y-57427000D01*
X123477000Y-60876250D01*
X123635750Y-61035000D01*
X125426309Y-61035000D01*
X125659698Y-60938327D01*
X125838327Y-60759699D01*
X125935000Y-60526310D01*
X125935000Y-57585750D01*
X133665000Y-57585750D01*
X133665000Y-60526310D01*
X133761673Y-60759699D01*
X133940302Y-60938327D01*
X134173691Y-61035000D01*
X135964250Y-61035000D01*
X136123000Y-60876250D01*
X136123000Y-57427000D01*
X136377000Y-57427000D01*
X136377000Y-60876250D01*
X136535750Y-61035000D01*
X138326309Y-61035000D01*
X138559698Y-60938327D01*
X138738327Y-60759699D01*
X138835000Y-60526310D01*
X138835000Y-57585750D01*
X138676250Y-57427000D01*
X136377000Y-57427000D01*
X136123000Y-57427000D01*
X133823750Y-57427000D01*
X133665000Y-57585750D01*
X125935000Y-57585750D01*
X125776250Y-57427000D01*
X123477000Y-57427000D01*
X123223000Y-57427000D01*
X120923750Y-57427000D01*
X120765000Y-57585750D01*
X110735000Y-57585750D01*
X110735000Y-54555431D01*
X112665000Y-54555431D01*
X112665000Y-55444569D01*
X113005259Y-56266026D01*
X113633974Y-56894741D01*
X114455431Y-57235000D01*
X115344569Y-57235000D01*
X116166026Y-56894741D01*
X116794741Y-56266026D01*
X117135000Y-55444569D01*
X117135000Y-54555431D01*
X116935457Y-54073690D01*
X120765000Y-54073690D01*
X120765000Y-57014250D01*
X120923750Y-57173000D01*
X123223000Y-57173000D01*
X123223000Y-53723750D01*
X123477000Y-53723750D01*
X123477000Y-57173000D01*
X125776250Y-57173000D01*
X125935000Y-57014250D01*
X125935000Y-54073690D01*
X125838327Y-53840301D01*
X125659698Y-53661673D01*
X125426309Y-53565000D01*
X123635750Y-53565000D01*
X123477000Y-53723750D01*
X123223000Y-53723750D01*
X123064250Y-53565000D01*
X121273691Y-53565000D01*
X121040302Y-53661673D01*
X120861673Y-53840301D01*
X120765000Y-54073690D01*
X116935457Y-54073690D01*
X116794741Y-53733974D01*
X116235545Y-53174778D01*
X128165000Y-53174778D01*
X128165000Y-53825222D01*
X128413914Y-54426153D01*
X128873847Y-54886086D01*
X129474778Y-55135000D01*
X130125222Y-55135000D01*
X130726153Y-54886086D01*
X131186086Y-54426153D01*
X131332081Y-54073690D01*
X133665000Y-54073690D01*
X133665000Y-57014250D01*
X133823750Y-57173000D01*
X136123000Y-57173000D01*
X136123000Y-53723750D01*
X136377000Y-53723750D01*
X136377000Y-57173000D01*
X138676250Y-57173000D01*
X138835000Y-57014250D01*
X138835000Y-54073690D01*
X138738327Y-53840301D01*
X138559698Y-53661673D01*
X138326309Y-53565000D01*
X136535750Y-53565000D01*
X136377000Y-53723750D01*
X136123000Y-53723750D01*
X135964250Y-53565000D01*
X134173691Y-53565000D01*
X133940302Y-53661673D01*
X133761673Y-53840301D01*
X133665000Y-54073690D01*
X131332081Y-54073690D01*
X131435000Y-53825222D01*
X131435000Y-53250000D01*
X143652560Y-53250000D01*
X143652560Y-58850000D01*
X143701843Y-59097765D01*
X143842191Y-59307809D01*
X144052235Y-59448157D01*
X144300000Y-59497440D01*
X146500000Y-59497440D01*
X146747765Y-59448157D01*
X146957809Y-59307809D01*
X146994984Y-59252174D01*
X147074234Y-59285000D01*
X147452560Y-59285000D01*
X147452560Y-60950000D01*
X147501843Y-61197765D01*
X147565000Y-61292286D01*
X147565000Y-61911782D01*
X147630854Y-62242854D01*
X147881711Y-62618289D01*
X148257145Y-62869146D01*
X148700000Y-62957235D01*
X149142854Y-62869146D01*
X149518289Y-62618289D01*
X149769146Y-62242855D01*
X149835000Y-61911783D01*
X149835000Y-61292285D01*
X149898157Y-61197765D01*
X149947440Y-60950000D01*
X149947440Y-59035750D01*
X149965000Y-59035750D01*
X149965000Y-61076310D01*
X150061673Y-61309699D01*
X150240302Y-61488327D01*
X150473691Y-61585000D01*
X150914250Y-61585000D01*
X151073000Y-61426250D01*
X151073000Y-58877000D01*
X151327000Y-58877000D01*
X151327000Y-61426250D01*
X151485750Y-61585000D01*
X151926309Y-61585000D01*
X152159698Y-61488327D01*
X152338327Y-61309699D01*
X152435000Y-61076310D01*
X152435000Y-59035750D01*
X152465000Y-59035750D01*
X152465000Y-61076310D01*
X152561673Y-61309699D01*
X152740302Y-61488327D01*
X152973691Y-61585000D01*
X153414250Y-61585000D01*
X153573000Y-61426250D01*
X153573000Y-58877000D01*
X152623750Y-58877000D01*
X152465000Y-59035750D01*
X152435000Y-59035750D01*
X152276250Y-58877000D01*
X151327000Y-58877000D01*
X151073000Y-58877000D01*
X150123750Y-58877000D01*
X149965000Y-59035750D01*
X149947440Y-59035750D01*
X149947440Y-56550000D01*
X149922316Y-56423690D01*
X149965000Y-56423690D01*
X149965000Y-58464250D01*
X150123750Y-58623000D01*
X151073000Y-58623000D01*
X151073000Y-56073750D01*
X151327000Y-56073750D01*
X151327000Y-58623000D01*
X152276250Y-58623000D01*
X152435000Y-58464250D01*
X152435000Y-56423690D01*
X152465000Y-56423690D01*
X152465000Y-58464250D01*
X152623750Y-58623000D01*
X153573000Y-58623000D01*
X153573000Y-56073750D01*
X153827000Y-56073750D01*
X153827000Y-58623000D01*
X153847000Y-58623000D01*
X153847000Y-58877000D01*
X153827000Y-58877000D01*
X153827000Y-61426250D01*
X153985750Y-61585000D01*
X154426309Y-61585000D01*
X154659698Y-61488327D01*
X154838327Y-61309699D01*
X154935000Y-61076310D01*
X154935000Y-59285000D01*
X155325766Y-59285000D01*
X155405016Y-59252174D01*
X155442191Y-59307809D01*
X155652235Y-59448157D01*
X155900000Y-59497440D01*
X158100000Y-59497440D01*
X158347765Y-59448157D01*
X158557809Y-59307809D01*
X158698157Y-59097765D01*
X158747440Y-58850000D01*
X158747440Y-53250000D01*
X158698157Y-53002235D01*
X158557809Y-52792191D01*
X158347765Y-52651843D01*
X158100000Y-52602560D01*
X155900000Y-52602560D01*
X155652235Y-52651843D01*
X155442191Y-52792191D01*
X155301843Y-53002235D01*
X155252560Y-53250000D01*
X155252560Y-57015000D01*
X154935000Y-57015000D01*
X154935000Y-56423690D01*
X154838327Y-56190301D01*
X154659698Y-56011673D01*
X154426309Y-55915000D01*
X153985750Y-55915000D01*
X153827000Y-56073750D01*
X153573000Y-56073750D01*
X153414250Y-55915000D01*
X152973691Y-55915000D01*
X152740302Y-56011673D01*
X152561673Y-56190301D01*
X152465000Y-56423690D01*
X152435000Y-56423690D01*
X152338327Y-56190301D01*
X152159698Y-56011673D01*
X151926309Y-55915000D01*
X151485750Y-55915000D01*
X151327000Y-56073750D01*
X151073000Y-56073750D01*
X150914250Y-55915000D01*
X150473691Y-55915000D01*
X150240302Y-56011673D01*
X150061673Y-56190301D01*
X149965000Y-56423690D01*
X149922316Y-56423690D01*
X149898157Y-56302235D01*
X149757809Y-56092191D01*
X149547765Y-55951843D01*
X149300000Y-55902560D01*
X148100000Y-55902560D01*
X147852235Y-55951843D01*
X147642191Y-56092191D01*
X147501843Y-56302235D01*
X147452560Y-56550000D01*
X147452560Y-57015000D01*
X147147440Y-57015000D01*
X147147440Y-53250000D01*
X147098157Y-53002235D01*
X146957809Y-52792191D01*
X146747765Y-52651843D01*
X146500000Y-52602560D01*
X144300000Y-52602560D01*
X144052235Y-52651843D01*
X143842191Y-52792191D01*
X143701843Y-53002235D01*
X143652560Y-53250000D01*
X131435000Y-53250000D01*
X131435000Y-53174778D01*
X131186086Y-52573847D01*
X130726153Y-52113914D01*
X130125222Y-51865000D01*
X129474778Y-51865000D01*
X128873847Y-52113914D01*
X128413914Y-52573847D01*
X128165000Y-53174778D01*
X116235545Y-53174778D01*
X116166026Y-53105259D01*
X115344569Y-52765000D01*
X114455431Y-52765000D01*
X113633974Y-53105259D01*
X113005259Y-53733974D01*
X112665000Y-54555431D01*
X110735000Y-54555431D01*
X110735000Y-50735000D01*
X209265000Y-50735000D01*
X209265001Y-149265000D01*
X209265001Y-149265000D01*
G37*
X209265001Y-149265000D02*
X110735000Y-149265000D01*
X110735000Y-144555431D01*
X112765000Y-144555431D01*
X112765000Y-145444569D01*
X113105259Y-146266026D01*
X113733974Y-146894741D01*
X114555431Y-147235000D01*
X115444569Y-147235000D01*
X116266026Y-146894741D01*
X116894741Y-146266026D01*
X117235000Y-145444569D01*
X117235000Y-144555431D01*
X117226848Y-144535750D01*
X130315000Y-144535750D01*
X130315000Y-145226309D01*
X130411673Y-145459698D01*
X130590301Y-145638327D01*
X130823690Y-145735000D01*
X131514250Y-145735000D01*
X131673000Y-145576250D01*
X131673000Y-144377000D01*
X130473750Y-144377000D01*
X130315000Y-144535750D01*
X117226848Y-144535750D01*
X116894741Y-143733974D01*
X116434458Y-143273691D01*
X130315000Y-143273691D01*
X130315000Y-143964250D01*
X130473750Y-144123000D01*
X131673000Y-144123000D01*
X131673000Y-142923750D01*
X131514250Y-142765000D01*
X130823690Y-142765000D01*
X130590301Y-142861673D01*
X130411673Y-143040302D01*
X130315000Y-143273691D01*
X116434458Y-143273691D01*
X116266026Y-143105259D01*
X115444569Y-142765000D01*
X114555431Y-142765000D01*
X113733974Y-143105259D01*
X113105259Y-143733974D01*
X112765000Y-144555431D01*
X110735000Y-144555431D01*
X110735000Y-121521279D01*
X130303282Y-121521279D01*
X130329685Y-122111458D01*
X130504741Y-122534080D01*
X130756042Y-122614353D01*
X131620395Y-121750000D01*
X130756042Y-120885647D01*
X130504741Y-120965920D01*
X130303282Y-121521279D01*
X110735000Y-121521279D01*
X110735000Y-92525594D01*
X125615000Y-92525594D01*
X125615000Y-93474406D01*
X125978095Y-94350994D01*
X126649006Y-95021905D01*
X127525594Y-95385000D01*
X128474406Y-95385000D01*
X129350994Y-95021905D01*
X130021905Y-94350994D01*
X130385000Y-93474406D01*
X130385000Y-92525594D01*
X130021905Y-91649006D01*
X129350994Y-90978095D01*
X128474406Y-90615000D01*
X127525594Y-90615000D01*
X126649006Y-90978095D01*
X125978095Y-91649006D01*
X125615000Y-92525594D01*
X110735000Y-92525594D01*
X110735000Y-64100000D01*
X126802560Y-64100000D01*
X126802560Y-68500000D01*
X126851843Y-68747765D01*
X126992191Y-68957809D01*
X127202235Y-69098157D01*
X127450000Y-69147440D01*
X127465001Y-69147440D01*
X127465001Y-70338966D01*
X127432969Y-70500000D01*
X127559865Y-71137945D01*
X127921232Y-71678769D01*
X128057748Y-71769986D01*
X132705000Y-76417239D01*
X132705001Y-120665391D01*
X132664352Y-120706040D01*
X132584080Y-120454741D01*
X132028721Y-120253282D01*
X131438542Y-120279685D01*
X131015920Y-120454741D01*
X130935647Y-120706042D01*
X131800000Y-121570395D01*
X131814143Y-121556253D01*
X131993748Y-121735858D01*
X131979605Y-121750000D01*
X131993748Y-121764143D01*
X131814143Y-121943748D01*
X131800000Y-121929605D01*
X130935647Y-122793958D01*
X131015920Y-123045259D01*
X131571279Y-123246718D01*
X132161458Y-123220315D01*
X132584080Y-123045259D01*
X132664352Y-122793960D01*
X132705000Y-122834608D01*
X132705001Y-142765000D01*
X132085750Y-142765000D01*
X131927000Y-142923750D01*
X131927000Y-144123000D01*
X131947000Y-144123000D01*
X131947000Y-144377000D01*
X131927000Y-144377000D01*
X131927000Y-145576250D01*
X132085750Y-145735000D01*
X132776310Y-145735000D01*
X133009699Y-145638327D01*
X133188327Y-145459698D01*
X133192488Y-145449653D01*
X133702056Y-145790136D01*
X134340000Y-145917031D01*
X134977945Y-145790136D01*
X135518769Y-145428769D01*
X135700202Y-145157236D01*
X135809375Y-145320625D01*
X136300582Y-145648839D01*
X136733744Y-145735000D01*
X137026256Y-145735000D01*
X137459418Y-145648839D01*
X137950625Y-145320625D01*
X138163843Y-145001522D01*
X138224817Y-145131358D01*
X138653076Y-145521645D01*
X139063110Y-145691476D01*
X139293000Y-145570155D01*
X139293000Y-144377000D01*
X139273000Y-144377000D01*
X139273000Y-144123000D01*
X139293000Y-144123000D01*
X139293000Y-142929845D01*
X139063110Y-142808524D01*
X138653076Y-142978355D01*
X138224817Y-143368642D01*
X138163843Y-143498478D01*
X138015000Y-143275719D01*
X138015000Y-122724281D01*
X138150000Y-122522239D01*
X138349375Y-122820625D01*
X138840582Y-123148839D01*
X139273744Y-123235000D01*
X139566256Y-123235000D01*
X139999418Y-123148839D01*
X140490625Y-122820625D01*
X140690000Y-122522239D01*
X140889375Y-122820625D01*
X141380582Y-123148839D01*
X141813744Y-123235000D01*
X142106256Y-123235000D01*
X142539418Y-123148839D01*
X143030625Y-122820625D01*
X143230000Y-122522239D01*
X143429375Y-122820625D01*
X143920582Y-123148839D01*
X144353744Y-123235000D01*
X144646256Y-123235000D01*
X145079418Y-123148839D01*
X145570625Y-122820625D01*
X145770000Y-122522239D01*
X145969375Y-122820625D01*
X146460582Y-123148839D01*
X146893744Y-123235000D01*
X147186256Y-123235000D01*
X147619418Y-123148839D01*
X148110625Y-122820625D01*
X148310000Y-122522239D01*
X148509375Y-122820625D01*
X149000582Y-123148839D01*
X149433744Y-123235000D01*
X149726256Y-123235000D01*
X150159418Y-123148839D01*
X150650625Y-122820625D01*
X150850000Y-122522239D01*
X151049375Y-122820625D01*
X151540582Y-123148839D01*
X151973744Y-123235000D01*
X152266256Y-123235000D01*
X152699418Y-123148839D01*
X153190625Y-122820625D01*
X153390000Y-122522239D01*
X153589375Y-122820625D01*
X154080582Y-123148839D01*
X154513744Y-123235000D01*
X154806256Y-123235000D01*
X155239418Y-123148839D01*
X155730625Y-122820625D01*
X155930000Y-122522239D01*
X156129375Y-122820625D01*
X156620582Y-123148839D01*
X157053744Y-123235000D01*
X157346256Y-123235000D01*
X157779418Y-123148839D01*
X158270625Y-122820625D01*
X158470000Y-122522239D01*
X158669375Y-122820625D01*
X159160582Y-123148839D01*
X159593744Y-123235000D01*
X159886256Y-123235000D01*
X160319418Y-123148839D01*
X160810625Y-122820625D01*
X161010000Y-122522239D01*
X161209375Y-122820625D01*
X161700582Y-123148839D01*
X162133744Y-123235000D01*
X162426256Y-123235000D01*
X162859418Y-123148839D01*
X163350625Y-122820625D01*
X163550000Y-122522239D01*
X163749375Y-122820625D01*
X164240582Y-123148839D01*
X164673744Y-123235000D01*
X164966256Y-123235000D01*
X165399418Y-123148839D01*
X165890625Y-122820625D01*
X166090000Y-122522239D01*
X166289375Y-122820625D01*
X166780582Y-123148839D01*
X167213744Y-123235000D01*
X167506256Y-123235000D01*
X167939418Y-123148839D01*
X168430625Y-122820625D01*
X168630000Y-122522239D01*
X168829375Y-122820625D01*
X169320582Y-123148839D01*
X169753744Y-123235000D01*
X170046256Y-123235000D01*
X170479418Y-123148839D01*
X170970625Y-122820625D01*
X171170000Y-122522239D01*
X171369375Y-122820625D01*
X171860582Y-123148839D01*
X172293744Y-123235000D01*
X172586256Y-123235000D01*
X173019418Y-123148839D01*
X173510625Y-122820625D01*
X173710000Y-122522239D01*
X173909375Y-122820625D01*
X174400582Y-123148839D01*
X174833744Y-123235000D01*
X175126256Y-123235000D01*
X175559418Y-123148839D01*
X175865001Y-122944655D01*
X175865000Y-132329868D01*
X166929869Y-141265000D01*
X154081782Y-141265000D01*
X153969999Y-141242765D01*
X153527145Y-141330854D01*
X153151711Y-141581711D01*
X153088389Y-141676479D01*
X151999869Y-142765000D01*
X151973744Y-142765000D01*
X151540582Y-142851161D01*
X151049375Y-143179375D01*
X150850000Y-143477761D01*
X150650625Y-143179375D01*
X150159418Y-142851161D01*
X149726256Y-142765000D01*
X149433744Y-142765000D01*
X149000582Y-142851161D01*
X148509375Y-143179375D01*
X148310000Y-143477761D01*
X148110625Y-143179375D01*
X147619418Y-142851161D01*
X147186256Y-142765000D01*
X146893744Y-142765000D01*
X146460582Y-142851161D01*
X145969375Y-143179375D01*
X145770000Y-143477761D01*
X145570625Y-143179375D01*
X145079418Y-142851161D01*
X144646256Y-142765000D01*
X144353744Y-142765000D01*
X143920582Y-142851161D01*
X143429375Y-143179375D01*
X143230000Y-143477761D01*
X143030625Y-143179375D01*
X142539418Y-142851161D01*
X142106256Y-142765000D01*
X141813744Y-142765000D01*
X141380582Y-142851161D01*
X140889375Y-143179375D01*
X140676157Y-143498478D01*
X140615183Y-143368642D01*
X140186924Y-142978355D01*
X139776890Y-142808524D01*
X139547000Y-142929845D01*
X139547000Y-144123000D01*
X139567000Y-144123000D01*
X139567000Y-144377000D01*
X139547000Y-144377000D01*
X139547000Y-145570155D01*
X139776890Y-145691476D01*
X140186924Y-145521645D01*
X140615183Y-145131358D01*
X140676157Y-145001522D01*
X140889375Y-145320625D01*
X141380582Y-145648839D01*
X141813744Y-145735000D01*
X142106256Y-145735000D01*
X142539418Y-145648839D01*
X143030625Y-145320625D01*
X143230000Y-145022239D01*
X143429375Y-145320625D01*
X143920582Y-145648839D01*
X144353744Y-145735000D01*
X144646256Y-145735000D01*
X145079418Y-145648839D01*
X145570625Y-145320625D01*
X145770000Y-145022239D01*
X145969375Y-145320625D01*
X146460582Y-145648839D01*
X146893744Y-145735000D01*
X147186256Y-145735000D01*
X147619418Y-145648839D01*
X148110625Y-145320625D01*
X148310000Y-145022239D01*
X148509375Y-145320625D01*
X149000582Y-145648839D01*
X149433744Y-145735000D01*
X149726256Y-145735000D01*
X150159418Y-145648839D01*
X150650625Y-145320625D01*
X150850000Y-145022239D01*
X151049375Y-145320625D01*
X151540582Y-145648839D01*
X151973744Y-145735000D01*
X152266256Y-145735000D01*
X152699418Y-145648839D01*
X153190625Y-145320625D01*
X153390000Y-145022239D01*
X153589375Y-145320625D01*
X154080582Y-145648839D01*
X154513744Y-145735000D01*
X154806256Y-145735000D01*
X155239418Y-145648839D01*
X155730625Y-145320625D01*
X155930000Y-145022239D01*
X156129375Y-145320625D01*
X156620582Y-145648839D01*
X157053744Y-145735000D01*
X157079869Y-145735000D01*
X158168389Y-146823521D01*
X158231711Y-146918289D01*
X158607145Y-147169146D01*
X159049999Y-147257235D01*
X159161782Y-147235000D01*
X175988217Y-147235000D01*
X176100000Y-147257235D01*
X176211783Y-147235000D01*
X176542855Y-147169146D01*
X176918289Y-146918289D01*
X176981613Y-146823518D01*
X179249700Y-144555431D01*
X202765000Y-144555431D01*
X202765000Y-145444569D01*
X203105259Y-146266026D01*
X203733974Y-146894741D01*
X204555431Y-147235000D01*
X205444569Y-147235000D01*
X206266026Y-146894741D01*
X206894741Y-146266026D01*
X207235000Y-145444569D01*
X207235000Y-144555431D01*
X206894741Y-143733974D01*
X206266026Y-143105259D01*
X205444569Y-142765000D01*
X204555431Y-142765000D01*
X203733974Y-143105259D01*
X203105259Y-143733974D01*
X202765000Y-144555431D01*
X179249700Y-144555431D01*
X181323555Y-142481577D01*
X181418322Y-142418256D01*
X181669179Y-142042822D01*
X181735033Y-141711750D01*
X181735033Y-141711749D01*
X181757268Y-141599967D01*
X181735033Y-141488184D01*
X181735033Y-119720603D01*
X181757268Y-119608820D01*
X181669179Y-119165965D01*
X181610021Y-119077429D01*
X181418322Y-118790531D01*
X181323554Y-118727209D01*
X176422826Y-113826482D01*
X176359502Y-113731711D01*
X175984068Y-113480854D01*
X175652996Y-113415000D01*
X175541213Y-113392765D01*
X175429430Y-113415000D01*
X161888217Y-113415000D01*
X161557145Y-113480854D01*
X161181711Y-113731711D01*
X160930854Y-114107145D01*
X160842765Y-114550000D01*
X160855694Y-114615000D01*
X160688217Y-114615000D01*
X160357145Y-114680854D01*
X159981711Y-114931711D01*
X159730854Y-115307145D01*
X159642765Y-115750000D01*
X159665638Y-115864992D01*
X159488217Y-115864992D01*
X159157145Y-115930846D01*
X158781711Y-116181703D01*
X158530854Y-116557137D01*
X158442765Y-116999992D01*
X158455695Y-117064998D01*
X158288217Y-117064998D01*
X157957145Y-117130852D01*
X157581711Y-117381709D01*
X157330854Y-117757143D01*
X157242765Y-118199998D01*
X157325314Y-118615000D01*
X155390131Y-118615000D01*
X164823521Y-109181611D01*
X164918289Y-109118289D01*
X165169146Y-108742855D01*
X165235000Y-108411783D01*
X165257235Y-108300000D01*
X165235000Y-108188217D01*
X165235000Y-106162541D01*
X165247440Y-106100000D01*
X165247440Y-104500000D01*
X165235000Y-104437459D01*
X165235000Y-104235000D01*
X165511783Y-104235000D01*
X165842855Y-104169146D01*
X165865000Y-104154349D01*
X165865001Y-106918214D01*
X165842765Y-107030002D01*
X165930854Y-107472856D01*
X165996085Y-107570480D01*
X166181712Y-107848291D01*
X166276480Y-107911613D01*
X167888387Y-109523521D01*
X167951709Y-109618289D01*
X168276040Y-109835000D01*
X168327143Y-109869146D01*
X168769997Y-109957235D01*
X168881780Y-109935000D01*
X175111783Y-109935000D01*
X175442855Y-109869146D01*
X175818289Y-109618289D01*
X176069146Y-109242855D01*
X176157235Y-108800000D01*
X176069146Y-108357145D01*
X175818289Y-107981711D01*
X175442855Y-107730854D01*
X175111783Y-107665000D01*
X173544306Y-107665000D01*
X173557235Y-107600000D01*
X173469146Y-107157145D01*
X173218289Y-106781711D01*
X172842855Y-106530854D01*
X172511783Y-106465000D01*
X171805000Y-106465000D01*
X171805000Y-106285750D01*
X171646250Y-106127000D01*
X170897000Y-106127000D01*
X170897000Y-106147000D01*
X170643000Y-106147000D01*
X170643000Y-106127000D01*
X170635000Y-106127000D01*
X170635000Y-105873000D01*
X170643000Y-105873000D01*
X170643000Y-104923750D01*
X170897000Y-104923750D01*
X170897000Y-105873000D01*
X171646250Y-105873000D01*
X171805000Y-105714250D01*
X171805000Y-105273690D01*
X171708327Y-105040301D01*
X171529698Y-104861673D01*
X171296309Y-104765000D01*
X171055750Y-104765000D01*
X170897000Y-104923750D01*
X170643000Y-104923750D01*
X170635000Y-104915750D01*
X170635000Y-101247440D01*
X171170000Y-101247440D01*
X171417765Y-101198157D01*
X171495294Y-101146353D01*
X171550000Y-101157235D01*
X171661783Y-101135000D01*
X171992855Y-101069146D01*
X172368289Y-100818289D01*
X172431613Y-100723518D01*
X173423521Y-99731611D01*
X173518289Y-99668289D01*
X173769146Y-99292855D01*
X173808675Y-99094130D01*
X173857235Y-98850000D01*
X173835000Y-98738217D01*
X173835000Y-92525594D01*
X189615000Y-92525594D01*
X189615000Y-93474406D01*
X189978095Y-94350994D01*
X190649006Y-95021905D01*
X191525594Y-95385000D01*
X192474406Y-95385000D01*
X193350994Y-95021905D01*
X194021905Y-94350994D01*
X194385000Y-93474406D01*
X194385000Y-92525594D01*
X194021905Y-91649006D01*
X193350994Y-90978095D01*
X192474406Y-90615000D01*
X191525594Y-90615000D01*
X190649006Y-90978095D01*
X189978095Y-91649006D01*
X189615000Y-92525594D01*
X173835000Y-92525594D01*
X173835000Y-87188218D01*
X173812181Y-87073500D01*
X173834068Y-87069146D01*
X174209502Y-86818289D01*
X174272826Y-86723518D01*
X196473522Y-64522823D01*
X196568289Y-64459502D01*
X196819146Y-64084068D01*
X196885000Y-63752996D01*
X196885000Y-63752995D01*
X196907235Y-63641213D01*
X196885000Y-63529430D01*
X196885000Y-61192285D01*
X196948157Y-61097765D01*
X196997440Y-60850000D01*
X196997440Y-59185000D01*
X197375766Y-59185000D01*
X197455016Y-59152174D01*
X197492191Y-59207809D01*
X197702235Y-59348157D01*
X197950000Y-59397440D01*
X200150000Y-59397440D01*
X200397765Y-59348157D01*
X200607809Y-59207809D01*
X200748157Y-58997765D01*
X200797440Y-58750000D01*
X200797440Y-54555431D01*
X202665000Y-54555431D01*
X202665000Y-55444569D01*
X203005259Y-56266026D01*
X203633974Y-56894741D01*
X204455431Y-57235000D01*
X205344569Y-57235000D01*
X206166026Y-56894741D01*
X206794741Y-56266026D01*
X207135000Y-55444569D01*
X207135000Y-54555431D01*
X206794741Y-53733974D01*
X206166026Y-53105259D01*
X205344569Y-52765000D01*
X204455431Y-52765000D01*
X203633974Y-53105259D01*
X203005259Y-53733974D01*
X202665000Y-54555431D01*
X200797440Y-54555431D01*
X200797440Y-53150000D01*
X200748157Y-52902235D01*
X200607809Y-52692191D01*
X200397765Y-52551843D01*
X200150000Y-52502560D01*
X197950000Y-52502560D01*
X197702235Y-52551843D01*
X197492191Y-52692191D01*
X197351843Y-52902235D01*
X197302560Y-53150000D01*
X197302560Y-56915000D01*
X196997440Y-56915000D01*
X196997440Y-56450000D01*
X196948157Y-56202235D01*
X196807809Y-55992191D01*
X196597765Y-55851843D01*
X196350000Y-55802560D01*
X195150000Y-55802560D01*
X194902235Y-55851843D01*
X194692191Y-55992191D01*
X194551843Y-56202235D01*
X194502560Y-56450000D01*
X194502560Y-60850000D01*
X194551843Y-61097765D01*
X194615000Y-61192286D01*
X194615000Y-61961782D01*
X194615001Y-61961786D01*
X194615000Y-63171081D01*
X194385000Y-63401081D01*
X194385000Y-61192285D01*
X194448157Y-61097765D01*
X194497440Y-60850000D01*
X194497440Y-56450000D01*
X194448157Y-56202235D01*
X194307809Y-55992191D01*
X194097765Y-55851843D01*
X193850000Y-55802560D01*
X192650000Y-55802560D01*
X192402235Y-55851843D01*
X192192191Y-55992191D01*
X192051843Y-56202235D01*
X192002560Y-56450000D01*
X192002560Y-60850000D01*
X192051843Y-61097765D01*
X192115000Y-61192286D01*
X192115000Y-61961782D01*
X192115001Y-61961787D01*
X192115000Y-63974010D01*
X191885000Y-64204010D01*
X191885000Y-61192285D01*
X191948157Y-61097765D01*
X191997440Y-60850000D01*
X191997440Y-56450000D01*
X191948157Y-56202235D01*
X191807809Y-55992191D01*
X191597765Y-55851843D01*
X191350000Y-55802560D01*
X190150000Y-55802560D01*
X189902235Y-55851843D01*
X189692191Y-55992191D01*
X189551843Y-56202235D01*
X189502560Y-56450000D01*
X189502560Y-60850000D01*
X189551843Y-61097765D01*
X189615000Y-61192286D01*
X189615000Y-61961782D01*
X189615001Y-61961787D01*
X189615000Y-64776939D01*
X189385000Y-65006939D01*
X189385000Y-61192285D01*
X189448157Y-61097765D01*
X189497440Y-60850000D01*
X189497440Y-56450000D01*
X189448157Y-56202235D01*
X189307809Y-55992191D01*
X189097765Y-55851843D01*
X188850000Y-55802560D01*
X187650000Y-55802560D01*
X187402235Y-55851843D01*
X187192191Y-55992191D01*
X187051843Y-56202235D01*
X187002560Y-56450000D01*
X187002560Y-56915000D01*
X186697440Y-56915000D01*
X186697440Y-53150000D01*
X186648157Y-52902235D01*
X186507809Y-52692191D01*
X186297765Y-52551843D01*
X186050000Y-52502560D01*
X183850000Y-52502560D01*
X183602235Y-52551843D01*
X183392191Y-52692191D01*
X183251843Y-52902235D01*
X183202560Y-53150000D01*
X183202560Y-58750000D01*
X183251843Y-58997765D01*
X183392191Y-59207809D01*
X183602235Y-59348157D01*
X183850000Y-59397440D01*
X186050000Y-59397440D01*
X186297765Y-59348157D01*
X186507809Y-59207809D01*
X186544984Y-59152174D01*
X186624234Y-59185000D01*
X187002560Y-59185000D01*
X187002560Y-60850000D01*
X187051843Y-61097765D01*
X187115000Y-61192286D01*
X187115000Y-61961782D01*
X187115001Y-61961787D01*
X187115000Y-65579868D01*
X173385000Y-79309869D01*
X173385000Y-61192285D01*
X173448157Y-61097765D01*
X173497440Y-60850000D01*
X173497440Y-59185000D01*
X173875766Y-59185000D01*
X173955016Y-59152174D01*
X173992191Y-59207809D01*
X174202235Y-59348157D01*
X174450000Y-59397440D01*
X176650000Y-59397440D01*
X176897765Y-59348157D01*
X177107809Y-59207809D01*
X177248157Y-58997765D01*
X177297440Y-58750000D01*
X177297440Y-53150000D01*
X177248157Y-52902235D01*
X177107809Y-52692191D01*
X176897765Y-52551843D01*
X176650000Y-52502560D01*
X174450000Y-52502560D01*
X174202235Y-52551843D01*
X173992191Y-52692191D01*
X173851843Y-52902235D01*
X173802560Y-53150000D01*
X173802560Y-56915000D01*
X173497440Y-56915000D01*
X173497440Y-56450000D01*
X173448157Y-56202235D01*
X173307809Y-55992191D01*
X173097765Y-55851843D01*
X172850000Y-55802560D01*
X171650000Y-55802560D01*
X171402235Y-55851843D01*
X171192191Y-55992191D01*
X171051843Y-56202235D01*
X171002560Y-56450000D01*
X171002560Y-60850000D01*
X171051843Y-61097765D01*
X171115000Y-61192286D01*
X171115001Y-79177560D01*
X171105000Y-79177560D01*
X170857235Y-79226843D01*
X170778028Y-79279768D01*
X170561310Y-79190000D01*
X170420750Y-79190000D01*
X170262000Y-79348750D01*
X170262000Y-80473000D01*
X170273027Y-80473000D01*
X170247765Y-80600000D01*
X170273027Y-80727000D01*
X170262000Y-80727000D01*
X170262000Y-80747000D01*
X170008000Y-80747000D01*
X170008000Y-80727000D01*
X168992000Y-80727000D01*
X168992000Y-80747000D01*
X168738000Y-80747000D01*
X168738000Y-80727000D01*
X168726973Y-80727000D01*
X168730000Y-80711783D01*
X168730000Y-80711781D01*
X168752235Y-80599999D01*
X168730000Y-80488217D01*
X168730000Y-80473000D01*
X168738000Y-80473000D01*
X168738000Y-79348750D01*
X168992000Y-79348750D01*
X168992000Y-80473000D01*
X170008000Y-80473000D01*
X170008000Y-79348750D01*
X169849250Y-79190000D01*
X169708690Y-79190000D01*
X169500000Y-79276442D01*
X169291310Y-79190000D01*
X169150750Y-79190000D01*
X168992000Y-79348750D01*
X168738000Y-79348750D01*
X168730000Y-79340750D01*
X168730000Y-78575131D01*
X170473521Y-76831611D01*
X170568289Y-76768289D01*
X170819146Y-76392855D01*
X170885000Y-76061783D01*
X170885000Y-76061782D01*
X170907235Y-75950001D01*
X170885000Y-75838219D01*
X170885000Y-61192285D01*
X170948157Y-61097765D01*
X170997440Y-60850000D01*
X170997440Y-56450000D01*
X170948157Y-56202235D01*
X170807809Y-55992191D01*
X170597765Y-55851843D01*
X170350000Y-55802560D01*
X169150000Y-55802560D01*
X168902235Y-55851843D01*
X168692191Y-55992191D01*
X168551843Y-56202235D01*
X168502560Y-56450000D01*
X168502560Y-56915000D01*
X168197440Y-56915000D01*
X168197440Y-53150000D01*
X168148157Y-52902235D01*
X168007809Y-52692191D01*
X167797765Y-52551843D01*
X167550000Y-52502560D01*
X165350000Y-52502560D01*
X165102235Y-52551843D01*
X164892191Y-52692191D01*
X164751843Y-52902235D01*
X164702560Y-53150000D01*
X164702560Y-58750000D01*
X164751843Y-58997765D01*
X164892191Y-59207809D01*
X165102235Y-59348157D01*
X165350000Y-59397440D01*
X167550000Y-59397440D01*
X167797765Y-59348157D01*
X168007809Y-59207809D01*
X168044984Y-59152174D01*
X168124234Y-59185000D01*
X168502560Y-59185000D01*
X168502560Y-60850000D01*
X168551843Y-61097765D01*
X168615001Y-61192287D01*
X168615000Y-75479868D01*
X166871480Y-77223389D01*
X166776712Y-77286711D01*
X166696317Y-77407031D01*
X166525854Y-77662146D01*
X166437765Y-78105000D01*
X166460001Y-78216788D01*
X166460001Y-78763522D01*
X166430854Y-78807143D01*
X166365000Y-79138215D01*
X166365000Y-80393217D01*
X166342765Y-80505000D01*
X166399455Y-80790000D01*
X166430854Y-80947854D01*
X166647560Y-81272178D01*
X166647560Y-81375000D01*
X166696843Y-81622765D01*
X166837191Y-81832809D01*
X167047235Y-81973157D01*
X167295000Y-82022440D01*
X167372429Y-82022440D01*
X166871480Y-82523389D01*
X166776712Y-82586711D01*
X166618486Y-82823513D01*
X166525854Y-82962146D01*
X166437765Y-83405000D01*
X166460000Y-83516783D01*
X166460000Y-84365000D01*
X164875134Y-84365000D01*
X164923521Y-84316613D01*
X165018289Y-84253291D01*
X165208148Y-83969146D01*
X165269146Y-83877857D01*
X165357235Y-83435003D01*
X165335000Y-83323220D01*
X165335000Y-80911781D01*
X165357235Y-80799999D01*
X165324210Y-80633972D01*
X165269146Y-80357145D01*
X165247440Y-80324660D01*
X165247440Y-79900000D01*
X165198157Y-79652235D01*
X165057809Y-79442191D01*
X164847765Y-79301843D01*
X164600000Y-79252560D01*
X163600000Y-79252560D01*
X163352235Y-79301843D01*
X163142191Y-79442191D01*
X163001843Y-79652235D01*
X162952560Y-79900000D01*
X162952560Y-80650757D01*
X162942765Y-80700000D01*
X162952560Y-80749243D01*
X162952560Y-81500000D01*
X163001843Y-81747765D01*
X163065001Y-81842286D01*
X163065000Y-81890000D01*
X162985750Y-81890000D01*
X162827000Y-82048750D01*
X162827000Y-82773000D01*
X162847000Y-82773000D01*
X162847000Y-83027000D01*
X162827000Y-83027000D01*
X162827000Y-83047000D01*
X162573000Y-83047000D01*
X162573000Y-83027000D01*
X161823750Y-83027000D01*
X161735750Y-83115000D01*
X152892285Y-83115000D01*
X152797765Y-83051843D01*
X152550000Y-83002560D01*
X152085000Y-83002560D01*
X152085000Y-82697440D01*
X155850000Y-82697440D01*
X156097765Y-82648157D01*
X156307809Y-82507809D01*
X156448157Y-82297765D01*
X156497440Y-82050000D01*
X156497440Y-80985750D01*
X159965000Y-80985750D01*
X159965000Y-81626310D01*
X160061673Y-81859699D01*
X160240302Y-82038327D01*
X160473691Y-82135000D01*
X160814250Y-82135000D01*
X160973000Y-81976250D01*
X160973000Y-80827000D01*
X161227000Y-80827000D01*
X161227000Y-81976250D01*
X161385750Y-82135000D01*
X161726309Y-82135000D01*
X161838407Y-82088567D01*
X161761673Y-82165301D01*
X161665000Y-82398690D01*
X161665000Y-82614250D01*
X161823750Y-82773000D01*
X162573000Y-82773000D01*
X162573000Y-82048750D01*
X162414250Y-81890000D01*
X162173691Y-81890000D01*
X162061593Y-81936433D01*
X162138327Y-81859699D01*
X162235000Y-81626310D01*
X162235000Y-80985750D01*
X162076250Y-80827000D01*
X161227000Y-80827000D01*
X160973000Y-80827000D01*
X160123750Y-80827000D01*
X159965000Y-80985750D01*
X156497440Y-80985750D01*
X156497440Y-79850000D01*
X156482262Y-79773690D01*
X159965000Y-79773690D01*
X159965000Y-80414250D01*
X160123750Y-80573000D01*
X160973000Y-80573000D01*
X160973000Y-79423750D01*
X161227000Y-79423750D01*
X161227000Y-80573000D01*
X162076250Y-80573000D01*
X162235000Y-80414250D01*
X162235000Y-79773690D01*
X162138327Y-79540301D01*
X161959698Y-79361673D01*
X161726309Y-79265000D01*
X161385750Y-79265000D01*
X161227000Y-79423750D01*
X160973000Y-79423750D01*
X160814250Y-79265000D01*
X160473691Y-79265000D01*
X160240302Y-79361673D01*
X160061673Y-79540301D01*
X159965000Y-79773690D01*
X156482262Y-79773690D01*
X156448157Y-79602235D01*
X156307809Y-79392191D01*
X156097765Y-79251843D01*
X155850000Y-79202560D01*
X150250000Y-79202560D01*
X150002235Y-79251843D01*
X149792191Y-79392191D01*
X149651843Y-79602235D01*
X149602560Y-79850000D01*
X149602560Y-82050000D01*
X149651843Y-82297765D01*
X149792191Y-82507809D01*
X149847826Y-82544984D01*
X149818825Y-82615000D01*
X135975000Y-82615000D01*
X135975000Y-75901029D01*
X136007031Y-75739999D01*
X135970659Y-75557145D01*
X135880136Y-75102055D01*
X135518769Y-74561231D01*
X135382253Y-74470014D01*
X130735000Y-69822762D01*
X130735000Y-69147440D01*
X130750000Y-69147440D01*
X130997765Y-69098157D01*
X131207809Y-68957809D01*
X131348157Y-68747765D01*
X131397440Y-68500000D01*
X131397440Y-64100000D01*
X131348157Y-63852235D01*
X131207809Y-63642191D01*
X130997765Y-63501843D01*
X130750000Y-63452560D01*
X127450000Y-63452560D01*
X127202235Y-63501843D01*
X126992191Y-63642191D01*
X126851843Y-63852235D01*
X126802560Y-64100000D01*
X110735000Y-64100000D01*
X110735000Y-57585750D01*
X120765000Y-57585750D01*
X120765000Y-60526310D01*
X120861673Y-60759699D01*
X121040302Y-60938327D01*
X121273691Y-61035000D01*
X123064250Y-61035000D01*
X123223000Y-60876250D01*
X123223000Y-57427000D01*
X123477000Y-57427000D01*
X123477000Y-60876250D01*
X123635750Y-61035000D01*
X125426309Y-61035000D01*
X125659698Y-60938327D01*
X125838327Y-60759699D01*
X125935000Y-60526310D01*
X125935000Y-57585750D01*
X133665000Y-57585750D01*
X133665000Y-60526310D01*
X133761673Y-60759699D01*
X133940302Y-60938327D01*
X134173691Y-61035000D01*
X135964250Y-61035000D01*
X136123000Y-60876250D01*
X136123000Y-57427000D01*
X136377000Y-57427000D01*
X136377000Y-60876250D01*
X136535750Y-61035000D01*
X138326309Y-61035000D01*
X138559698Y-60938327D01*
X138738327Y-60759699D01*
X138835000Y-60526310D01*
X138835000Y-57585750D01*
X138676250Y-57427000D01*
X136377000Y-57427000D01*
X136123000Y-57427000D01*
X133823750Y-57427000D01*
X133665000Y-57585750D01*
X125935000Y-57585750D01*
X125776250Y-57427000D01*
X123477000Y-57427000D01*
X123223000Y-57427000D01*
X120923750Y-57427000D01*
X120765000Y-57585750D01*
X110735000Y-57585750D01*
X110735000Y-54555431D01*
X112665000Y-54555431D01*
X112665000Y-55444569D01*
X113005259Y-56266026D01*
X113633974Y-56894741D01*
X114455431Y-57235000D01*
X115344569Y-57235000D01*
X116166026Y-56894741D01*
X116794741Y-56266026D01*
X117135000Y-55444569D01*
X117135000Y-54555431D01*
X116935457Y-54073690D01*
X120765000Y-54073690D01*
X120765000Y-57014250D01*
X120923750Y-57173000D01*
X123223000Y-57173000D01*
X123223000Y-53723750D01*
X123477000Y-53723750D01*
X123477000Y-57173000D01*
X125776250Y-57173000D01*
X125935000Y-57014250D01*
X125935000Y-54073690D01*
X125838327Y-53840301D01*
X125659698Y-53661673D01*
X125426309Y-53565000D01*
X123635750Y-53565000D01*
X123477000Y-53723750D01*
X123223000Y-53723750D01*
X123064250Y-53565000D01*
X121273691Y-53565000D01*
X121040302Y-53661673D01*
X120861673Y-53840301D01*
X120765000Y-54073690D01*
X116935457Y-54073690D01*
X116794741Y-53733974D01*
X116235545Y-53174778D01*
X128165000Y-53174778D01*
X128165000Y-53825222D01*
X128413914Y-54426153D01*
X128873847Y-54886086D01*
X129474778Y-55135000D01*
X130125222Y-55135000D01*
X130726153Y-54886086D01*
X131186086Y-54426153D01*
X131332081Y-54073690D01*
X133665000Y-54073690D01*
X133665000Y-57014250D01*
X133823750Y-57173000D01*
X136123000Y-57173000D01*
X136123000Y-53723750D01*
X136377000Y-53723750D01*
X136377000Y-57173000D01*
X138676250Y-57173000D01*
X138835000Y-57014250D01*
X138835000Y-54073690D01*
X138738327Y-53840301D01*
X138559698Y-53661673D01*
X138326309Y-53565000D01*
X136535750Y-53565000D01*
X136377000Y-53723750D01*
X136123000Y-53723750D01*
X135964250Y-53565000D01*
X134173691Y-53565000D01*
X133940302Y-53661673D01*
X133761673Y-53840301D01*
X133665000Y-54073690D01*
X131332081Y-54073690D01*
X131435000Y-53825222D01*
X131435000Y-53250000D01*
X143652560Y-53250000D01*
X143652560Y-58850000D01*
X143701843Y-59097765D01*
X143842191Y-59307809D01*
X144052235Y-59448157D01*
X144300000Y-59497440D01*
X146500000Y-59497440D01*
X146747765Y-59448157D01*
X146957809Y-59307809D01*
X146994984Y-59252174D01*
X147074234Y-59285000D01*
X147452560Y-59285000D01*
X147452560Y-60950000D01*
X147501843Y-61197765D01*
X147565000Y-61292286D01*
X147565000Y-61911782D01*
X147630854Y-62242854D01*
X147881711Y-62618289D01*
X148257145Y-62869146D01*
X148700000Y-62957235D01*
X149142854Y-62869146D01*
X149518289Y-62618289D01*
X149769146Y-62242855D01*
X149835000Y-61911783D01*
X149835000Y-61292285D01*
X149898157Y-61197765D01*
X149947440Y-60950000D01*
X149947440Y-59035750D01*
X149965000Y-59035750D01*
X149965000Y-61076310D01*
X150061673Y-61309699D01*
X150240302Y-61488327D01*
X150473691Y-61585000D01*
X150914250Y-61585000D01*
X151073000Y-61426250D01*
X151073000Y-58877000D01*
X151327000Y-58877000D01*
X151327000Y-61426250D01*
X151485750Y-61585000D01*
X151926309Y-61585000D01*
X152159698Y-61488327D01*
X152338327Y-61309699D01*
X152435000Y-61076310D01*
X152435000Y-59035750D01*
X152465000Y-59035750D01*
X152465000Y-61076310D01*
X152561673Y-61309699D01*
X152740302Y-61488327D01*
X152973691Y-61585000D01*
X153414250Y-61585000D01*
X153573000Y-61426250D01*
X153573000Y-58877000D01*
X152623750Y-58877000D01*
X152465000Y-59035750D01*
X152435000Y-59035750D01*
X152276250Y-58877000D01*
X151327000Y-58877000D01*
X151073000Y-58877000D01*
X150123750Y-58877000D01*
X149965000Y-59035750D01*
X149947440Y-59035750D01*
X149947440Y-56550000D01*
X149922316Y-56423690D01*
X149965000Y-56423690D01*
X149965000Y-58464250D01*
X150123750Y-58623000D01*
X151073000Y-58623000D01*
X151073000Y-56073750D01*
X151327000Y-56073750D01*
X151327000Y-58623000D01*
X152276250Y-58623000D01*
X152435000Y-58464250D01*
X152435000Y-56423690D01*
X152465000Y-56423690D01*
X152465000Y-58464250D01*
X152623750Y-58623000D01*
X153573000Y-58623000D01*
X153573000Y-56073750D01*
X153827000Y-56073750D01*
X153827000Y-58623000D01*
X153847000Y-58623000D01*
X153847000Y-58877000D01*
X153827000Y-58877000D01*
X153827000Y-61426250D01*
X153985750Y-61585000D01*
X154426309Y-61585000D01*
X154659698Y-61488327D01*
X154838327Y-61309699D01*
X154935000Y-61076310D01*
X154935000Y-59285000D01*
X155325766Y-59285000D01*
X155405016Y-59252174D01*
X155442191Y-59307809D01*
X155652235Y-59448157D01*
X155900000Y-59497440D01*
X158100000Y-59497440D01*
X158347765Y-59448157D01*
X158557809Y-59307809D01*
X158698157Y-59097765D01*
X158747440Y-58850000D01*
X158747440Y-53250000D01*
X158698157Y-53002235D01*
X158557809Y-52792191D01*
X158347765Y-52651843D01*
X158100000Y-52602560D01*
X155900000Y-52602560D01*
X155652235Y-52651843D01*
X155442191Y-52792191D01*
X155301843Y-53002235D01*
X155252560Y-53250000D01*
X155252560Y-57015000D01*
X154935000Y-57015000D01*
X154935000Y-56423690D01*
X154838327Y-56190301D01*
X154659698Y-56011673D01*
X154426309Y-55915000D01*
X153985750Y-55915000D01*
X153827000Y-56073750D01*
X153573000Y-56073750D01*
X153414250Y-55915000D01*
X152973691Y-55915000D01*
X152740302Y-56011673D01*
X152561673Y-56190301D01*
X152465000Y-56423690D01*
X152435000Y-56423690D01*
X152338327Y-56190301D01*
X152159698Y-56011673D01*
X151926309Y-55915000D01*
X151485750Y-55915000D01*
X151327000Y-56073750D01*
X151073000Y-56073750D01*
X150914250Y-55915000D01*
X150473691Y-55915000D01*
X150240302Y-56011673D01*
X150061673Y-56190301D01*
X149965000Y-56423690D01*
X149922316Y-56423690D01*
X149898157Y-56302235D01*
X149757809Y-56092191D01*
X149547765Y-55951843D01*
X149300000Y-55902560D01*
X148100000Y-55902560D01*
X147852235Y-55951843D01*
X147642191Y-56092191D01*
X147501843Y-56302235D01*
X147452560Y-56550000D01*
X147452560Y-57015000D01*
X147147440Y-57015000D01*
X147147440Y-53250000D01*
X147098157Y-53002235D01*
X146957809Y-52792191D01*
X146747765Y-52651843D01*
X146500000Y-52602560D01*
X144300000Y-52602560D01*
X144052235Y-52651843D01*
X143842191Y-52792191D01*
X143701843Y-53002235D01*
X143652560Y-53250000D01*
X131435000Y-53250000D01*
X131435000Y-53174778D01*
X131186086Y-52573847D01*
X130726153Y-52113914D01*
X130125222Y-51865000D01*
X129474778Y-51865000D01*
X128873847Y-52113914D01*
X128413914Y-52573847D01*
X128165000Y-53174778D01*
X116235545Y-53174778D01*
X116166026Y-53105259D01*
X115344569Y-52765000D01*
X114455431Y-52765000D01*
X113633974Y-53105259D01*
X113005259Y-53733974D01*
X112665000Y-54555431D01*
X110735000Y-54555431D01*
X110735000Y-50735000D01*
X209265000Y-50735000D01*
X209265001Y-149265000D01*
G36*
X147551843Y-85902235D02*
X147502560Y-86150000D01*
X147502560Y-87350000D01*
X147551843Y-87597765D01*
X147692191Y-87807809D01*
X147902235Y-87948157D01*
X148150000Y-87997440D01*
X151592309Y-87997440D01*
X151597429Y-88002560D01*
X148150000Y-88002560D01*
X147902235Y-88051843D01*
X147692191Y-88192191D01*
X147551843Y-88402235D01*
X147502560Y-88650000D01*
X147502560Y-89850000D01*
X147551843Y-90097765D01*
X147692191Y-90307809D01*
X147902235Y-90448157D01*
X148150000Y-90497440D01*
X151892309Y-90497440D01*
X151897429Y-90502560D01*
X148150000Y-90502560D01*
X147902235Y-90551843D01*
X147692191Y-90692191D01*
X147551843Y-90902235D01*
X147502560Y-91150000D01*
X147502560Y-92350000D01*
X147551843Y-92597765D01*
X147692191Y-92807809D01*
X147902235Y-92948157D01*
X148150000Y-92997440D01*
X152550000Y-92997440D01*
X152668699Y-92973830D01*
X152734035Y-93039167D01*
X152550000Y-93002560D01*
X148150000Y-93002560D01*
X147902235Y-93051843D01*
X147692191Y-93192191D01*
X147551843Y-93402235D01*
X147502560Y-93650000D01*
X147502560Y-94850000D01*
X147551843Y-95097765D01*
X147692191Y-95307809D01*
X147902235Y-95448157D01*
X148150000Y-95497440D01*
X152550000Y-95497440D01*
X152797765Y-95448157D01*
X152892285Y-95385000D01*
X153382799Y-95385000D01*
X153612799Y-95615000D01*
X152892285Y-95615000D01*
X152797765Y-95551843D01*
X152550000Y-95502560D01*
X148150000Y-95502560D01*
X147902235Y-95551843D01*
X147692191Y-95692191D01*
X147551843Y-95902235D01*
X147502560Y-96150000D01*
X147502560Y-97350000D01*
X147551843Y-97597765D01*
X147692191Y-97807809D01*
X147902235Y-97948157D01*
X148150000Y-97997440D01*
X152550000Y-97997440D01*
X152797765Y-97948157D01*
X152892285Y-97885000D01*
X154286850Y-97885000D01*
X154650000Y-97957235D01*
X155092854Y-97869146D01*
X155468288Y-97618288D01*
X155527488Y-97529689D01*
X156112798Y-98115000D01*
X152892285Y-98115000D01*
X152797765Y-98051843D01*
X152550000Y-98002560D01*
X148150000Y-98002560D01*
X147902235Y-98051843D01*
X147692191Y-98192191D01*
X147551843Y-98402235D01*
X147502560Y-98650000D01*
X147502560Y-99850000D01*
X147551843Y-100097765D01*
X147692191Y-100307809D01*
X147902235Y-100448157D01*
X148150000Y-100497440D01*
X152550000Y-100497440D01*
X152797765Y-100448157D01*
X152892285Y-100385000D01*
X156836833Y-100385000D01*
X157199999Y-100457239D01*
X157642854Y-100369149D01*
X157800002Y-100264146D01*
X157957146Y-100369146D01*
X158400000Y-100457235D01*
X158842855Y-100369146D01*
X159000000Y-100264145D01*
X159157146Y-100369146D01*
X159600000Y-100457235D01*
X160042855Y-100369146D01*
X160200000Y-100264145D01*
X160357146Y-100369146D01*
X160800000Y-100457235D01*
X161242855Y-100369146D01*
X161565000Y-100153896D01*
X161565000Y-100561782D01*
X161630854Y-100892854D01*
X161881711Y-101268289D01*
X162003212Y-101349473D01*
X162042191Y-101407809D01*
X162252235Y-101548157D01*
X162500000Y-101597440D01*
X162650757Y-101597440D01*
X162700000Y-101607235D01*
X162749243Y-101597440D01*
X163000000Y-101597440D01*
X163247765Y-101548157D01*
X163457809Y-101407809D01*
X163491107Y-101357976D01*
X163523240Y-101379446D01*
X163542191Y-101407809D01*
X163752235Y-101548157D01*
X163785693Y-101554812D01*
X163807145Y-101569146D01*
X164138217Y-101635000D01*
X165826940Y-101635000D01*
X165965010Y-101773071D01*
X165965010Y-101903098D01*
X165930854Y-101954216D01*
X165907074Y-102073764D01*
X165842855Y-102030854D01*
X165511783Y-101965000D01*
X164311781Y-101965000D01*
X164199999Y-101942765D01*
X164088217Y-101965000D01*
X163757145Y-102030854D01*
X163639451Y-102109495D01*
X163552235Y-102126843D01*
X163460898Y-102187873D01*
X163459698Y-102186673D01*
X163226309Y-102090000D01*
X162985750Y-102090000D01*
X162827000Y-102248750D01*
X162827000Y-102973000D01*
X162847000Y-102973000D01*
X162847000Y-103227000D01*
X162827000Y-103227000D01*
X162827000Y-103951250D01*
X162965001Y-104089251D01*
X162965000Y-104437457D01*
X162952560Y-104500000D01*
X162952560Y-106100000D01*
X162965000Y-106162542D01*
X162965001Y-107829867D01*
X153629869Y-117165000D01*
X139261783Y-117165000D01*
X139150000Y-117142765D01*
X139038217Y-117165000D01*
X138707145Y-117230854D01*
X138331711Y-117481711D01*
X138268391Y-117576476D01*
X136176481Y-119668387D01*
X136081711Y-119731711D01*
X135975000Y-119891416D01*
X135975000Y-102035750D01*
X147515000Y-102035750D01*
X147515000Y-102476309D01*
X147611673Y-102709698D01*
X147790301Y-102888327D01*
X148023690Y-102985000D01*
X149815000Y-102985000D01*
X149815000Y-103375766D01*
X149847826Y-103455016D01*
X149792191Y-103492191D01*
X149651843Y-103702235D01*
X149602560Y-103950000D01*
X149602560Y-106150000D01*
X149651843Y-106397765D01*
X149792191Y-106607809D01*
X150002235Y-106748157D01*
X150250000Y-106797440D01*
X155850000Y-106797440D01*
X156097765Y-106748157D01*
X156307809Y-106607809D01*
X156448157Y-106397765D01*
X156497440Y-106150000D01*
X156497440Y-105585750D01*
X159965000Y-105585750D01*
X159965000Y-106226310D01*
X160061673Y-106459699D01*
X160240302Y-106638327D01*
X160473691Y-106735000D01*
X160814250Y-106735000D01*
X160973000Y-106576250D01*
X160973000Y-105427000D01*
X161227000Y-105427000D01*
X161227000Y-106576250D01*
X161385750Y-106735000D01*
X161726309Y-106735000D01*
X161959698Y-106638327D01*
X162138327Y-106459699D01*
X162235000Y-106226310D01*
X162235000Y-105585750D01*
X162076250Y-105427000D01*
X161227000Y-105427000D01*
X160973000Y-105427000D01*
X160123750Y-105427000D01*
X159965000Y-105585750D01*
X156497440Y-105585750D01*
X156497440Y-104373690D01*
X159965000Y-104373690D01*
X159965000Y-105014250D01*
X160123750Y-105173000D01*
X160973000Y-105173000D01*
X160973000Y-104023750D01*
X161227000Y-104023750D01*
X161227000Y-105173000D01*
X162076250Y-105173000D01*
X162235000Y-105014250D01*
X162235000Y-104373690D01*
X162138327Y-104140301D01*
X162061593Y-104063567D01*
X162173691Y-104110000D01*
X162414250Y-104110000D01*
X162573000Y-103951250D01*
X162573000Y-103227000D01*
X161823750Y-103227000D01*
X161665000Y-103385750D01*
X161665000Y-103601310D01*
X161761673Y-103834699D01*
X161838407Y-103911433D01*
X161726309Y-103865000D01*
X161385750Y-103865000D01*
X161227000Y-104023750D01*
X160973000Y-104023750D01*
X160814250Y-103865000D01*
X160473691Y-103865000D01*
X160240302Y-103961673D01*
X160061673Y-104140301D01*
X159965000Y-104373690D01*
X156497440Y-104373690D01*
X156497440Y-103950000D01*
X156448157Y-103702235D01*
X156307809Y-103492191D01*
X156097765Y-103351843D01*
X155850000Y-103302560D01*
X152085000Y-103302560D01*
X152085000Y-102985000D01*
X152676310Y-102985000D01*
X152909699Y-102888327D01*
X153088327Y-102709698D01*
X153134308Y-102598690D01*
X161665000Y-102598690D01*
X161665000Y-102814250D01*
X161823750Y-102973000D01*
X162573000Y-102973000D01*
X162573000Y-102248750D01*
X162414250Y-102090000D01*
X162173691Y-102090000D01*
X161940302Y-102186673D01*
X161761673Y-102365301D01*
X161665000Y-102598690D01*
X153134308Y-102598690D01*
X153185000Y-102476309D01*
X153185000Y-102035750D01*
X153026250Y-101877000D01*
X150477000Y-101877000D01*
X150477000Y-101897000D01*
X150223000Y-101897000D01*
X150223000Y-101877000D01*
X147673750Y-101877000D01*
X147515000Y-102035750D01*
X135975000Y-102035750D01*
X135975000Y-101023691D01*
X147515000Y-101023691D01*
X147515000Y-101464250D01*
X147673750Y-101623000D01*
X150223000Y-101623000D01*
X150223000Y-100673750D01*
X150477000Y-100673750D01*
X150477000Y-101623000D01*
X153026250Y-101623000D01*
X153185000Y-101464250D01*
X153185000Y-101023691D01*
X153088327Y-100790302D01*
X152909699Y-100611673D01*
X152676310Y-100515000D01*
X150635750Y-100515000D01*
X150477000Y-100673750D01*
X150223000Y-100673750D01*
X150064250Y-100515000D01*
X148023690Y-100515000D01*
X147790301Y-100611673D01*
X147611673Y-100790302D01*
X147515000Y-101023691D01*
X135975000Y-101023691D01*
X135975000Y-85885000D01*
X147563359Y-85885000D01*
X147551843Y-85902235D01*
X147551843Y-85902235D01*
G37*
X147551843Y-85902235D02*
X147502560Y-86150000D01*
X147502560Y-87350000D01*
X147551843Y-87597765D01*
X147692191Y-87807809D01*
X147902235Y-87948157D01*
X148150000Y-87997440D01*
X151592309Y-87997440D01*
X151597429Y-88002560D01*
X148150000Y-88002560D01*
X147902235Y-88051843D01*
X147692191Y-88192191D01*
X147551843Y-88402235D01*
X147502560Y-88650000D01*
X147502560Y-89850000D01*
X147551843Y-90097765D01*
X147692191Y-90307809D01*
X147902235Y-90448157D01*
X148150000Y-90497440D01*
X151892309Y-90497440D01*
X151897429Y-90502560D01*
X148150000Y-90502560D01*
X147902235Y-90551843D01*
X147692191Y-90692191D01*
X147551843Y-90902235D01*
X147502560Y-91150000D01*
X147502560Y-92350000D01*
X147551843Y-92597765D01*
X147692191Y-92807809D01*
X147902235Y-92948157D01*
X148150000Y-92997440D01*
X152550000Y-92997440D01*
X152668699Y-92973830D01*
X152734035Y-93039167D01*
X152550000Y-93002560D01*
X148150000Y-93002560D01*
X147902235Y-93051843D01*
X147692191Y-93192191D01*
X147551843Y-93402235D01*
X147502560Y-93650000D01*
X147502560Y-94850000D01*
X147551843Y-95097765D01*
X147692191Y-95307809D01*
X147902235Y-95448157D01*
X148150000Y-95497440D01*
X152550000Y-95497440D01*
X152797765Y-95448157D01*
X152892285Y-95385000D01*
X153382799Y-95385000D01*
X153612799Y-95615000D01*
X152892285Y-95615000D01*
X152797765Y-95551843D01*
X152550000Y-95502560D01*
X148150000Y-95502560D01*
X147902235Y-95551843D01*
X147692191Y-95692191D01*
X147551843Y-95902235D01*
X147502560Y-96150000D01*
X147502560Y-97350000D01*
X147551843Y-97597765D01*
X147692191Y-97807809D01*
X147902235Y-97948157D01*
X148150000Y-97997440D01*
X152550000Y-97997440D01*
X152797765Y-97948157D01*
X152892285Y-97885000D01*
X154286850Y-97885000D01*
X154650000Y-97957235D01*
X155092854Y-97869146D01*
X155468288Y-97618288D01*
X155527488Y-97529689D01*
X156112798Y-98115000D01*
X152892285Y-98115000D01*
X152797765Y-98051843D01*
X152550000Y-98002560D01*
X148150000Y-98002560D01*
X147902235Y-98051843D01*
X147692191Y-98192191D01*
X147551843Y-98402235D01*
X147502560Y-98650000D01*
X147502560Y-99850000D01*
X147551843Y-100097765D01*
X147692191Y-100307809D01*
X147902235Y-100448157D01*
X148150000Y-100497440D01*
X152550000Y-100497440D01*
X152797765Y-100448157D01*
X152892285Y-100385000D01*
X156836833Y-100385000D01*
X157199999Y-100457239D01*
X157642854Y-100369149D01*
X157800002Y-100264146D01*
X157957146Y-100369146D01*
X158400000Y-100457235D01*
X158842855Y-100369146D01*
X159000000Y-100264145D01*
X159157146Y-100369146D01*
X159600000Y-100457235D01*
X160042855Y-100369146D01*
X160200000Y-100264145D01*
X160357146Y-100369146D01*
X160800000Y-100457235D01*
X161242855Y-100369146D01*
X161565000Y-100153896D01*
X161565000Y-100561782D01*
X161630854Y-100892854D01*
X161881711Y-101268289D01*
X162003212Y-101349473D01*
X162042191Y-101407809D01*
X162252235Y-101548157D01*
X162500000Y-101597440D01*
X162650757Y-101597440D01*
X162700000Y-101607235D01*
X162749243Y-101597440D01*
X163000000Y-101597440D01*
X163247765Y-101548157D01*
X163457809Y-101407809D01*
X163491107Y-101357976D01*
X163523240Y-101379446D01*
X163542191Y-101407809D01*
X163752235Y-101548157D01*
X163785693Y-101554812D01*
X163807145Y-101569146D01*
X164138217Y-101635000D01*
X165826940Y-101635000D01*
X165965010Y-101773071D01*
X165965010Y-101903098D01*
X165930854Y-101954216D01*
X165907074Y-102073764D01*
X165842855Y-102030854D01*
X165511783Y-101965000D01*
X164311781Y-101965000D01*
X164199999Y-101942765D01*
X164088217Y-101965000D01*
X163757145Y-102030854D01*
X163639451Y-102109495D01*
X163552235Y-102126843D01*
X163460898Y-102187873D01*
X163459698Y-102186673D01*
X163226309Y-102090000D01*
X162985750Y-102090000D01*
X162827000Y-102248750D01*
X162827000Y-102973000D01*
X162847000Y-102973000D01*
X162847000Y-103227000D01*
X162827000Y-103227000D01*
X162827000Y-103951250D01*
X162965001Y-104089251D01*
X162965000Y-104437457D01*
X162952560Y-104500000D01*
X162952560Y-106100000D01*
X162965000Y-106162542D01*
X162965001Y-107829867D01*
X153629869Y-117165000D01*
X139261783Y-117165000D01*
X139150000Y-117142765D01*
X139038217Y-117165000D01*
X138707145Y-117230854D01*
X138331711Y-117481711D01*
X138268391Y-117576476D01*
X136176481Y-119668387D01*
X136081711Y-119731711D01*
X135975000Y-119891416D01*
X135975000Y-102035750D01*
X147515000Y-102035750D01*
X147515000Y-102476309D01*
X147611673Y-102709698D01*
X147790301Y-102888327D01*
X148023690Y-102985000D01*
X149815000Y-102985000D01*
X149815000Y-103375766D01*
X149847826Y-103455016D01*
X149792191Y-103492191D01*
X149651843Y-103702235D01*
X149602560Y-103950000D01*
X149602560Y-106150000D01*
X149651843Y-106397765D01*
X149792191Y-106607809D01*
X150002235Y-106748157D01*
X150250000Y-106797440D01*
X155850000Y-106797440D01*
X156097765Y-106748157D01*
X156307809Y-106607809D01*
X156448157Y-106397765D01*
X156497440Y-106150000D01*
X156497440Y-105585750D01*
X159965000Y-105585750D01*
X159965000Y-106226310D01*
X160061673Y-106459699D01*
X160240302Y-106638327D01*
X160473691Y-106735000D01*
X160814250Y-106735000D01*
X160973000Y-106576250D01*
X160973000Y-105427000D01*
X161227000Y-105427000D01*
X161227000Y-106576250D01*
X161385750Y-106735000D01*
X161726309Y-106735000D01*
X161959698Y-106638327D01*
X162138327Y-106459699D01*
X162235000Y-106226310D01*
X162235000Y-105585750D01*
X162076250Y-105427000D01*
X161227000Y-105427000D01*
X160973000Y-105427000D01*
X160123750Y-105427000D01*
X159965000Y-105585750D01*
X156497440Y-105585750D01*
X156497440Y-104373690D01*
X159965000Y-104373690D01*
X159965000Y-105014250D01*
X160123750Y-105173000D01*
X160973000Y-105173000D01*
X160973000Y-104023750D01*
X161227000Y-104023750D01*
X161227000Y-105173000D01*
X162076250Y-105173000D01*
X162235000Y-105014250D01*
X162235000Y-104373690D01*
X162138327Y-104140301D01*
X162061593Y-104063567D01*
X162173691Y-104110000D01*
X162414250Y-104110000D01*
X162573000Y-103951250D01*
X162573000Y-103227000D01*
X161823750Y-103227000D01*
X161665000Y-103385750D01*
X161665000Y-103601310D01*
X161761673Y-103834699D01*
X161838407Y-103911433D01*
X161726309Y-103865000D01*
X161385750Y-103865000D01*
X161227000Y-104023750D01*
X160973000Y-104023750D01*
X160814250Y-103865000D01*
X160473691Y-103865000D01*
X160240302Y-103961673D01*
X160061673Y-104140301D01*
X159965000Y-104373690D01*
X156497440Y-104373690D01*
X156497440Y-103950000D01*
X156448157Y-103702235D01*
X156307809Y-103492191D01*
X156097765Y-103351843D01*
X155850000Y-103302560D01*
X152085000Y-103302560D01*
X152085000Y-102985000D01*
X152676310Y-102985000D01*
X152909699Y-102888327D01*
X153088327Y-102709698D01*
X153134308Y-102598690D01*
X161665000Y-102598690D01*
X161665000Y-102814250D01*
X161823750Y-102973000D01*
X162573000Y-102973000D01*
X162573000Y-102248750D01*
X162414250Y-102090000D01*
X162173691Y-102090000D01*
X161940302Y-102186673D01*
X161761673Y-102365301D01*
X161665000Y-102598690D01*
X153134308Y-102598690D01*
X153185000Y-102476309D01*
X153185000Y-102035750D01*
X153026250Y-101877000D01*
X150477000Y-101877000D01*
X150477000Y-101897000D01*
X150223000Y-101897000D01*
X150223000Y-101877000D01*
X147673750Y-101877000D01*
X147515000Y-102035750D01*
X135975000Y-102035750D01*
X135975000Y-101023691D01*
X147515000Y-101023691D01*
X147515000Y-101464250D01*
X147673750Y-101623000D01*
X150223000Y-101623000D01*
X150223000Y-100673750D01*
X150477000Y-100673750D01*
X150477000Y-101623000D01*
X153026250Y-101623000D01*
X153185000Y-101464250D01*
X153185000Y-101023691D01*
X153088327Y-100790302D01*
X152909699Y-100611673D01*
X152676310Y-100515000D01*
X150635750Y-100515000D01*
X150477000Y-100673750D01*
X150223000Y-100673750D01*
X150064250Y-100515000D01*
X148023690Y-100515000D01*
X147790301Y-100611673D01*
X147611673Y-100790302D01*
X147515000Y-101023691D01*
X135975000Y-101023691D01*
X135975000Y-85885000D01*
X147563359Y-85885000D01*
X147551843Y-85902235D01*
G36*
X165165000Y-97988216D02*
X165142765Y-98100000D01*
X165203860Y-98407146D01*
X165230854Y-98542854D01*
X165481711Y-98918289D01*
X165576482Y-98981613D01*
X165959869Y-99365000D01*
X164404523Y-99365000D01*
X164457235Y-99100000D01*
X164434512Y-98985762D01*
X164533750Y-99085000D01*
X164626309Y-99085000D01*
X164859698Y-98988327D01*
X165038327Y-98809699D01*
X165135000Y-98576310D01*
X165135000Y-98285750D01*
X164976250Y-98127000D01*
X164375000Y-98127000D01*
X164375000Y-98147000D01*
X164125000Y-98147000D01*
X164125000Y-98127000D01*
X164103000Y-98127000D01*
X164103000Y-97873000D01*
X164125000Y-97873000D01*
X164125000Y-97853000D01*
X164375000Y-97853000D01*
X164375000Y-97873000D01*
X164976250Y-97873000D01*
X164993826Y-97855424D01*
X165002929Y-97857235D01*
X165165000Y-97824997D01*
X165165000Y-97988216D01*
X165165000Y-97988216D01*
G37*
X165165000Y-97988216D02*
X165142765Y-98100000D01*
X165203860Y-98407146D01*
X165230854Y-98542854D01*
X165481711Y-98918289D01*
X165576482Y-98981613D01*
X165959869Y-99365000D01*
X164404523Y-99365000D01*
X164457235Y-99100000D01*
X164434512Y-98985762D01*
X164533750Y-99085000D01*
X164626309Y-99085000D01*
X164859698Y-98988327D01*
X165038327Y-98809699D01*
X165135000Y-98576310D01*
X165135000Y-98285750D01*
X164976250Y-98127000D01*
X164375000Y-98127000D01*
X164375000Y-98147000D01*
X164125000Y-98147000D01*
X164125000Y-98127000D01*
X164103000Y-98127000D01*
X164103000Y-97873000D01*
X164125000Y-97873000D01*
X164125000Y-97853000D01*
X164375000Y-97853000D01*
X164375000Y-97873000D01*
X164976250Y-97873000D01*
X164993826Y-97855424D01*
X165002929Y-97857235D01*
X165165000Y-97824997D01*
X165165000Y-97988216D01*
G36*
X167722000Y-95773000D02*
X167733027Y-95773000D01*
X167730000Y-95788218D01*
X167730000Y-96027000D01*
X167722000Y-96027000D01*
X167722000Y-97151250D01*
X167730001Y-97159251D01*
X167730001Y-97850283D01*
X167717626Y-97912495D01*
X167435000Y-97629869D01*
X167435000Y-97184250D01*
X167468000Y-97151250D01*
X167468000Y-96027000D01*
X167448000Y-96027000D01*
X167448000Y-95773000D01*
X167468000Y-95773000D01*
X167468000Y-95753000D01*
X167722000Y-95753000D01*
X167722000Y-95773000D01*
X167722000Y-95773000D01*
G37*
X167722000Y-95773000D02*
X167733027Y-95773000D01*
X167730000Y-95788218D01*
X167730000Y-96027000D01*
X167722000Y-96027000D01*
X167722000Y-97151250D01*
X167730001Y-97159251D01*
X167730001Y-97850283D01*
X167717626Y-97912495D01*
X167435000Y-97629869D01*
X167435000Y-97184250D01*
X167468000Y-97151250D01*
X167468000Y-96027000D01*
X167448000Y-96027000D01*
X167448000Y-95773000D01*
X167468000Y-95773000D01*
X167468000Y-95753000D01*
X167722000Y-95753000D01*
X167722000Y-95773000D01*
G36*
X163330865Y-96539936D02*
X163581723Y-96915370D01*
X163676491Y-96978692D01*
X163689213Y-96991414D01*
X163640302Y-97011673D01*
X163509526Y-97142448D01*
X163476762Y-97120556D01*
X163457809Y-97092191D01*
X163247765Y-96951843D01*
X163214306Y-96945188D01*
X163192854Y-96930854D01*
X163133551Y-96919058D01*
X163157235Y-96799992D01*
X163099552Y-96510000D01*
X163276309Y-96510000D01*
X163321211Y-96491401D01*
X163330865Y-96539936D01*
X163330865Y-96539936D01*
G37*
X163330865Y-96539936D02*
X163581723Y-96915370D01*
X163676491Y-96978692D01*
X163689213Y-96991414D01*
X163640302Y-97011673D01*
X163509526Y-97142448D01*
X163476762Y-97120556D01*
X163457809Y-97092191D01*
X163247765Y-96951843D01*
X163214306Y-96945188D01*
X163192854Y-96930854D01*
X163133551Y-96919058D01*
X163157235Y-96799992D01*
X163099552Y-96510000D01*
X163276309Y-96510000D01*
X163321211Y-96491401D01*
X163330865Y-96539936D01*
G36*
X162877000Y-95373000D02*
X162897000Y-95373000D01*
X162897000Y-95627000D01*
X162877000Y-95627000D01*
X162877000Y-95647000D01*
X162623000Y-95647000D01*
X162623000Y-95627000D01*
X162603000Y-95627000D01*
X162603000Y-95373000D01*
X162623000Y-95373000D01*
X162623000Y-95353000D01*
X162877000Y-95353000D01*
X162877000Y-95373000D01*
X162877000Y-95373000D01*
G37*
X162877000Y-95373000D02*
X162897000Y-95373000D01*
X162897000Y-95627000D01*
X162877000Y-95627000D01*
X162877000Y-95647000D01*
X162623000Y-95647000D01*
X162623000Y-95627000D01*
X162603000Y-95627000D01*
X162603000Y-95373000D01*
X162623000Y-95373000D01*
X162623000Y-95353000D01*
X162877000Y-95353000D01*
X162877000Y-95373000D01*
G36*
X161615000Y-85388218D02*
X161615001Y-87888213D01*
X161615000Y-87888218D01*
X161615000Y-88348219D01*
X161592765Y-88460002D01*
X161615000Y-88571784D01*
X161615000Y-88571785D01*
X161680854Y-88902857D01*
X161931712Y-89278291D01*
X162026479Y-89341613D01*
X162182983Y-89498116D01*
X162042191Y-89592191D01*
X162023239Y-89620555D01*
X161931712Y-89681711D01*
X161680855Y-90057145D01*
X161615001Y-90388217D01*
X161615000Y-92888217D01*
X161615000Y-93085288D01*
X161592765Y-93197071D01*
X161615000Y-93308853D01*
X161615000Y-93308854D01*
X161680854Y-93639926D01*
X161931712Y-94015360D01*
X162026479Y-94078682D01*
X162437798Y-94490000D01*
X162223691Y-94490000D01*
X161990302Y-94586673D01*
X161811673Y-94765301D01*
X161741015Y-94935883D01*
X153197440Y-86392309D01*
X153197440Y-86150000D01*
X153148157Y-85902235D01*
X153007809Y-85692191D01*
X152797765Y-85551843D01*
X152550000Y-85502560D01*
X150902331Y-85502560D01*
X150909994Y-85497440D01*
X152550000Y-85497440D01*
X152797765Y-85448157D01*
X152892285Y-85385000D01*
X161615640Y-85385000D01*
X161615000Y-85388218D01*
X161615000Y-85388218D01*
G37*
X161615000Y-85388218D02*
X161615001Y-87888213D01*
X161615000Y-87888218D01*
X161615000Y-88348219D01*
X161592765Y-88460002D01*
X161615000Y-88571784D01*
X161615000Y-88571785D01*
X161680854Y-88902857D01*
X161931712Y-89278291D01*
X162026479Y-89341613D01*
X162182983Y-89498116D01*
X162042191Y-89592191D01*
X162023239Y-89620555D01*
X161931712Y-89681711D01*
X161680855Y-90057145D01*
X161615001Y-90388217D01*
X161615000Y-92888217D01*
X161615000Y-93085288D01*
X161592765Y-93197071D01*
X161615000Y-93308853D01*
X161615000Y-93308854D01*
X161680854Y-93639926D01*
X161931712Y-94015360D01*
X162026479Y-94078682D01*
X162437798Y-94490000D01*
X162223691Y-94490000D01*
X161990302Y-94586673D01*
X161811673Y-94765301D01*
X161741015Y-94935883D01*
X153197440Y-86392309D01*
X153197440Y-86150000D01*
X153148157Y-85902235D01*
X153007809Y-85692191D01*
X152797765Y-85551843D01*
X152550000Y-85502560D01*
X150902331Y-85502560D01*
X150909994Y-85497440D01*
X152550000Y-85497440D01*
X152797765Y-85448157D01*
X152892285Y-85385000D01*
X161615640Y-85385000D01*
X161615000Y-85388218D01*
%TD*%
M02*
