%TF.GenerationSoftware,KiCad,Pcbnew,(5.0.0-rc2-dev)*%
%TF.CreationDate,2018-05-14T12:38:31-07:00*%
%TF.ProjectId,makerlabs-acm-reader-lock_v1.0.0,6D616B65726C6162732D61636D2D7265,rev?*%
%TF.SameCoordinates,Original*%
%TF.FileFunction,Soldermask,Top*%
%TF.FilePolarity,Negative*%
%FSLAX46Y46*%
G04 Gerber Fmt 4.6, Leading zero omitted, Abs format (unit mm)*
G04 Created by KiCad (PCBNEW (5.0.0-rc2-dev)) date Monday, May 14, 2018 at 12:38:31 PM*
%MOMM*%
%LPD*%
G01*
G04 APERTURE LIST*
%ADD10R,1.200000X1.150000*%
%ADD11R,1.400000X2.000000*%
%ADD12R,1.200000X1.600000*%
%ADD13R,1.000000X1.950000*%
%ADD14C,1.400000*%
%ADD15R,4.800000X1.600000*%
%ADD16R,6.000000X2.600000*%
%ADD17R,1.600000X4.800000*%
%ADD18R,2.600000X6.000000*%
%ADD19C,3.600000*%
%ADD20C,3.900000*%
%ADD21O,2.100000X2.100000*%
%ADD22C,2.100000*%
%ADD23R,2.100000X2.100000*%
%ADD24C,2.400000*%
%ADD25R,4.300000X6.600000*%
%ADD26R,3.700000X4.800000*%
%ADD27R,0.900000X1.300000*%
G04 APERTURE END LIST*
D10*
%TO.C,C1*%
X162700000Y-103100000D03*
X164200000Y-103100000D03*
%TD*%
%TO.C,C4*%
X162700000Y-82900000D03*
X164200000Y-82900000D03*
%TD*%
%TO.C,C5*%
X164250000Y-95500000D03*
X162750000Y-95500000D03*
%TD*%
D11*
%TO.C,C2*%
X164100000Y-105300000D03*
X161100000Y-105300000D03*
%TD*%
%TO.C,C3*%
X164100000Y-80700000D03*
X161100000Y-80700000D03*
%TD*%
D12*
%TO.C,U2*%
X170770000Y-100000000D03*
X170770000Y-106000000D03*
X168230000Y-106000000D03*
X168230000Y-100000000D03*
%TD*%
D13*
%TO.C,U3*%
X171405000Y-95900000D03*
X170135000Y-95900000D03*
X168865000Y-95900000D03*
X167595000Y-95900000D03*
X167595000Y-90500000D03*
X168865000Y-90500000D03*
X170135000Y-90500000D03*
X171405000Y-90500000D03*
%TD*%
%TO.C,U4*%
X167595000Y-86000000D03*
X168865000Y-86000000D03*
X170135000Y-86000000D03*
X171405000Y-86000000D03*
X171405000Y-80600000D03*
X170135000Y-80600000D03*
X168865000Y-80600000D03*
X167595000Y-80600000D03*
%TD*%
D14*
%TO.C,J1*%
X150950000Y-103150000D03*
D15*
X150350000Y-91750000D03*
X150350000Y-89250000D03*
X150350000Y-86750000D03*
X150350000Y-94250000D03*
X150350000Y-96750000D03*
X150350000Y-99250000D03*
X150350000Y-101750000D03*
X150350000Y-84250000D03*
D16*
X153050000Y-105050000D03*
X153050000Y-80950000D03*
D14*
X150950000Y-82850000D03*
%TD*%
%TO.C,J2*%
X173650000Y-58050000D03*
D17*
X172250000Y-58650000D03*
X169750000Y-58650000D03*
D18*
X175550000Y-55950000D03*
X166450000Y-55950000D03*
D14*
X168350000Y-58050000D03*
%TD*%
%TO.C,J3*%
X186850000Y-58050000D03*
D18*
X184950000Y-55950000D03*
X199050000Y-55950000D03*
D17*
X188250000Y-58650000D03*
X190750000Y-58650000D03*
X193250000Y-58650000D03*
X195750000Y-58650000D03*
D14*
X197150000Y-58050000D03*
%TD*%
D19*
%TO.C,H1*%
X114900000Y-55000000D03*
%TD*%
%TO.C,H2*%
X204900000Y-55000000D03*
%TD*%
%TO.C,H3*%
X115000000Y-145000000D03*
%TD*%
%TO.C,H4*%
X205000000Y-145000000D03*
%TD*%
D20*
%TO.C,MNT1*%
X192000000Y-93000000D03*
X128000000Y-93000000D03*
%TD*%
D21*
%TO.C,U1*%
X174980000Y-121750000D03*
X172440000Y-121750000D03*
X169900000Y-121750000D03*
X167360000Y-121750000D03*
X164820000Y-121750000D03*
X162280000Y-121750000D03*
X159740000Y-121750000D03*
X157200000Y-121750000D03*
X154660000Y-121750000D03*
X152120000Y-121750000D03*
X149580000Y-121750000D03*
X147040000Y-121750000D03*
X144500000Y-121750000D03*
X141960000Y-121750000D03*
X139420000Y-121750000D03*
X136880000Y-121750000D03*
X134340000Y-121750000D03*
D22*
X131800000Y-121750000D03*
D23*
X131800000Y-144250000D03*
D21*
X134340000Y-144250000D03*
X136880000Y-144250000D03*
X139420000Y-144250000D03*
X141960000Y-144250000D03*
X144500000Y-144250000D03*
X147040000Y-144250000D03*
X149580000Y-144250000D03*
X152120000Y-144250000D03*
X154660000Y-144250000D03*
X157200000Y-144250000D03*
X159740000Y-144250000D03*
X162280000Y-144250000D03*
X164820000Y-144250000D03*
X167360000Y-144250000D03*
X169900000Y-144250000D03*
X172440000Y-144250000D03*
X174980000Y-144250000D03*
%TD*%
D24*
%TO.C,J4*%
X129800000Y-53500000D03*
D25*
X123350000Y-57300000D03*
X136250000Y-57300000D03*
D26*
X129100000Y-66300000D03*
%TD*%
D27*
%TO.C,R1*%
X164250000Y-100500000D03*
X162750000Y-100500000D03*
%TD*%
%TO.C,R2*%
X164250000Y-98000000D03*
X162750000Y-98000000D03*
%TD*%
%TO.C,R3*%
X164250000Y-85500000D03*
X162750000Y-85500000D03*
%TD*%
%TO.C,R4*%
X164250000Y-90500000D03*
X162750000Y-90500000D03*
%TD*%
%TO.C,R5*%
X162750000Y-88000000D03*
X164250000Y-88000000D03*
%TD*%
%TO.C,R6*%
X162750000Y-93000000D03*
X164250000Y-93000000D03*
%TD*%
D14*
%TO.C,J5*%
X147300000Y-58150000D03*
D18*
X145400000Y-56050000D03*
X157000000Y-56050000D03*
D17*
X148700000Y-58750000D03*
X151200000Y-58750000D03*
X153700000Y-58750000D03*
D14*
X155100000Y-58150000D03*
%TD*%
M02*
