%TF.GenerationSoftware,KiCad,Pcbnew,(5.0.0-rc2-dev)*%
%TF.CreationDate,2018-05-14T12:38:31-07:00*%
%TF.ProjectId,makerlabs-acm-reader-lock_v1.0.0,6D616B65726C6162732D61636D2D7265,rev?*%
%TF.SameCoordinates,Original*%
%TF.FileFunction,Paste,Top*%
%TF.FilePolarity,Positive*%
%FSLAX46Y46*%
G04 Gerber Fmt 4.6, Leading zero omitted, Abs format (unit mm)*
G04 Created by KiCad (PCBNEW (5.0.0-rc2-dev)) date Monday, May 14, 2018 at 12:38:31 PM*
%MOMM*%
%LPD*%
G01*
G04 APERTURE LIST*
%ADD10R,0.800000X0.750000*%
%ADD11R,1.000000X1.600000*%
%ADD12R,0.800000X1.200000*%
%ADD13R,0.600000X1.550000*%
%ADD14R,4.400000X1.200000*%
%ADD15R,5.600000X2.200000*%
%ADD16R,1.200000X4.400000*%
%ADD17R,2.200000X5.600000*%
%ADD18R,3.900000X6.200000*%
%ADD19R,3.300000X4.400000*%
%ADD20R,0.500000X0.900000*%
G04 APERTURE END LIST*
D10*
%TO.C,C1*%
X162700000Y-103100000D03*
X164200000Y-103100000D03*
%TD*%
%TO.C,C4*%
X162700000Y-82900000D03*
X164200000Y-82900000D03*
%TD*%
%TO.C,C5*%
X164250000Y-95500000D03*
X162750000Y-95500000D03*
%TD*%
D11*
%TO.C,C2*%
X164100000Y-105300000D03*
X161100000Y-105300000D03*
%TD*%
%TO.C,C3*%
X164100000Y-80700000D03*
X161100000Y-80700000D03*
%TD*%
D12*
%TO.C,U2*%
X170770000Y-100000000D03*
X170770000Y-106000000D03*
X168230000Y-106000000D03*
X168230000Y-100000000D03*
%TD*%
D13*
%TO.C,U3*%
X171405000Y-95900000D03*
X170135000Y-95900000D03*
X168865000Y-95900000D03*
X167595000Y-95900000D03*
X167595000Y-90500000D03*
X168865000Y-90500000D03*
X170135000Y-90500000D03*
X171405000Y-90500000D03*
%TD*%
%TO.C,U4*%
X167595000Y-86000000D03*
X168865000Y-86000000D03*
X170135000Y-86000000D03*
X171405000Y-86000000D03*
X171405000Y-80600000D03*
X170135000Y-80600000D03*
X168865000Y-80600000D03*
X167595000Y-80600000D03*
%TD*%
D14*
%TO.C,J1*%
X150350000Y-91750000D03*
X150350000Y-89250000D03*
X150350000Y-86750000D03*
X150350000Y-94250000D03*
X150350000Y-96750000D03*
X150350000Y-99250000D03*
X150350000Y-101750000D03*
X150350000Y-84250000D03*
D15*
X153050000Y-105050000D03*
X153050000Y-80950000D03*
%TD*%
D16*
%TO.C,J2*%
X172250000Y-58650000D03*
X169750000Y-58650000D03*
D17*
X175550000Y-55950000D03*
X166450000Y-55950000D03*
%TD*%
%TO.C,J3*%
X184950000Y-55950000D03*
X199050000Y-55950000D03*
D16*
X188250000Y-58650000D03*
X190750000Y-58650000D03*
X193250000Y-58650000D03*
X195750000Y-58650000D03*
%TD*%
D18*
%TO.C,J4*%
X123350000Y-57300000D03*
X136250000Y-57300000D03*
D19*
X129100000Y-66300000D03*
%TD*%
D20*
%TO.C,R1*%
X164250000Y-100500000D03*
X162750000Y-100500000D03*
%TD*%
%TO.C,R2*%
X164250000Y-98000000D03*
X162750000Y-98000000D03*
%TD*%
%TO.C,R3*%
X164250000Y-85500000D03*
X162750000Y-85500000D03*
%TD*%
%TO.C,R4*%
X164250000Y-90500000D03*
X162750000Y-90500000D03*
%TD*%
%TO.C,R5*%
X162750000Y-88000000D03*
X164250000Y-88000000D03*
%TD*%
%TO.C,R6*%
X162750000Y-93000000D03*
X164250000Y-93000000D03*
%TD*%
D17*
%TO.C,J5*%
X145400000Y-56050000D03*
X157000000Y-56050000D03*
D16*
X148700000Y-58750000D03*
X151200000Y-58750000D03*
X153700000Y-58750000D03*
%TD*%
M02*
