M48
;DRILL file {KiCad (5.0.0-rc2-dev)} date Wednesday, March 07, 2018 at 10:42:51 PM
;FORMAT={3:3/ absolute / metric / suppress leading zeros}
FMAT,2
METRIC,TZ
T1C0.400
T2C1.000
T3C1.000
T4C2.000
T5C3.200
T6C3.500
%
G90
G05
M71
T1
X131800Y-101800
X136200Y-101800
X148700Y-61800
X148700Y-119750
X154650Y-96800
X157200Y-99300
X158400Y-99300
X158400Y-118200
X159600Y-99300
X159600Y-117000
X160800Y-99300
X160800Y-115750
X161100Y-79000
X161250Y-93550
X162000Y-96800
X162000Y-114550
X163300Y-99100
X165003Y-96700
X165400Y-103100
X165900Y-99400
X165900Y-101800
X166300Y-95600
X167500Y-79250
X167600Y-97700
X168200Y-93200
X168250Y-104500
X168900Y-82400
X168900Y-89100
X169500Y-79000
X170100Y-97500
X171400Y-88800
X171400Y-94300
X172250Y-79755
X172400Y-106000
X172400Y-107600
X172700Y-87300
X175000Y-108800
T2
X131800Y-121750
X131800Y-144250
X134340Y-121750
X134340Y-144250
X136880Y-121750
X136880Y-144250
X139420Y-121750
X139420Y-144250
X141960Y-121750
X141960Y-144250
X144500Y-121750
X144500Y-144250
X147040Y-121750
X147040Y-144250
X149580Y-121750
X149580Y-144250
X152120Y-121750
X152120Y-144250
X154660Y-121750
X154660Y-144250
X157200Y-121750
X157200Y-144250
X159740Y-121750
X159740Y-144250
X162280Y-121750
X162280Y-144250
X164820Y-121750
X164820Y-144250
X167360Y-121750
X167360Y-144250
X169900Y-121750
X169900Y-144250
X172440Y-121750
X172440Y-144250
X174980Y-121750
X174980Y-144250
T3
X147300Y-58150
X155100Y-58150
X168350Y-58050
X173650Y-58050
X186850Y-58050
X197150Y-58050
X150950Y-82850
X150950Y-103150
T4
X129800Y-53500
T5
X205000Y-145000
X115000Y-145000
X204900Y-55000
X114900Y-55000
T6
X128000Y-93000
X192000Y-93000
T0
M30
